<?xml version="1.0" encoding="utf-8"?>
<!-- Generator: Adobe Illustrator 23.0.6, SVG Export Plug-In . SVG Version: 6.00 Build 0)  -->
<svg version="1.1" id="Layer_1" xmlns="http://www.w3.org/2000/svg" xmlns:xlink="http://www.w3.org/1999/xlink" x="0px" y="0px"
	 viewBox="0 0 131 131" style="enable-background:new 0 0 131 131;" xml:space="preserve">
<style type="text/css">
	.st0{display:none;}
	.st1{display:inline;fill:#063B5B;}
	.st2{fill:#40EBEE;}
</style>
<g id="Dots" class="st0">
	<path class="st1" d="M65,54.4c0.3,0,0.6-0.3,0.6-0.6s-0.3-0.6-0.6-0.6c-0.3,0-0.6,0.3-0.6,0.6S64.7,54.4,65,54.4z"/>
	<path class="st1" d="M65,51c0.2,0,0.3-0.1,0.3-0.3s-0.1-0.3-0.3-0.3s-0.3,0.1-0.3,0.3S64.8,51,65,51z"/>
	<path class="st1" d="M68.8,51.5c0.2,0,0.3,0,0.4-0.2S69.1,51,69,50.9c-0.2,0-0.3,0-0.4,0.2C68.6,51.3,68.7,51.5,68.8,51.5z"/>
	<path class="st1" d="M72.8,52.9c0.1-0.1,0-0.3-0.1-0.4s-0.3,0-0.4,0.1s0,0.3,0.1,0.4C72.6,53,72.7,53,72.8,52.9z"/>
	<path class="st1" d="M75.9,55.3c0.1-0.1,0.1-0.3,0-0.4c-0.1-0.1-0.3-0.1-0.4,0c-0.1,0.1-0.1,0.3,0,0.4
		C75.6,55.5,75.8,55.5,75.9,55.3z"/>
	<path class="st1" d="M78.3,58.5c0.1-0.1,0.2-0.3,0.1-0.4C78.3,58,78.1,57.9,78,58c-0.1,0.1-0.2,0.3-0.1,0.4
		C77.9,58.6,78.1,58.6,78.3,58.5z"/>
	<path class="st1" d="M79.7,62.2c0.2,0,0.2-0.2,0.2-0.4s-0.2-0.2-0.4-0.2s-0.2,0.2-0.2,0.4S79.5,62.2,79.7,62.2z"/>
	<path class="st1" d="M80.1,66.1c0.2,0,0.3-0.1,0.3-0.3s-0.1-0.3-0.3-0.3s-0.3,0.1-0.3,0.3S80,66.1,80.1,66.1z"/>
	<path class="st1" d="M79.6,70.1c0.2,0,0.3-0.1,0.4-0.2c0-0.2-0.1-0.3-0.2-0.4c-0.2,0-0.3,0.1-0.4,0.2C79.3,69.8,79.4,70,79.6,70.1z
		"/>
	<path class="st1" d="M77.9,73.3c-0.1,0.1,0,0.3,0.1,0.4s0.3,0,0.4-0.1s0-0.3-0.1-0.4C78.1,73.1,77.9,73.1,77.9,73.3z"/>
	<path class="st1" d="M75.5,76.4c-0.1,0.1-0.1,0.3,0,0.4c0.1,0.1,0.3,0.1,0.4,0c0.1-0.1,0.1-0.3,0-0.4
		C75.8,76.2,75.6,76.2,75.5,76.4z"/>
	<path class="st1" d="M72.4,78.7c-0.1,0.1-0.2,0.3-0.1,0.4s0.3,0.2,0.4,0.1s0.2-0.3,0.1-0.4C72.7,78.7,72.6,78.7,72.4,78.7z"/>
	<path class="st1" d="M68.8,80.2c-0.2,0-0.2,0.2-0.2,0.4s0.2,0.2,0.4,0.2s0.2-0.2,0.2-0.4C69.2,80.3,69,80.2,68.8,80.2z"/>
	<path class="st1" d="M65,80.7c-0.2,0-0.3,0.1-0.3,0.3s0.1,0.3,0.3,0.3s0.3-0.1,0.3-0.3S65.1,80.7,65,80.7z"/>
	<path class="st1" d="M61.1,80.2c-0.2,0-0.3,0.1-0.4,0.2c0,0.2,0,0.3,0.2,0.4s0.3-0.1,0.4-0.2S61.3,80.2,61.1,80.2z"/>
	<path class="st1" d="M57.1,78.8c-0.1,0.1,0,0.3,0.1,0.4s0.3,0,0.4-0.1s0-0.3-0.1-0.4C57.4,78.7,57.2,78.7,57.1,78.8z"/>
	<path class="st1" d="M54,76.4c-0.1,0.1-0.1,0.3,0,0.4c0.1,0.1,0.3,0.1,0.4,0c0.1-0.1,0.1-0.3,0-0.4C54.3,76.2,54.2,76.2,54,76.4z"
		/>
	<path class="st1" d="M51.7,73.2c-0.1,0.1-0.2,0.3-0.1,0.4c0.1,0.1,0.3,0.2,0.4,0.1c0.1-0.1,0.2-0.3,0.1-0.4
		C52,73.1,51.8,73.1,51.7,73.2z"/>
	<path class="st1" d="M50.3,69.5c-0.2,0-0.2,0.2-0.2,0.4s0.2,0.2,0.4,0.2s0.2-0.2,0.2-0.4C50.6,69.5,50.4,69.4,50.3,69.5z"/>
	<path class="st1" d="M49.8,65.6c-0.2,0-0.3,0.1-0.3,0.3s0.1,0.3,0.3,0.3s0.3-0.1,0.3-0.3C50.1,65.7,50,65.6,49.8,65.6z"/>
	<path class="st1" d="M50.4,61.6c-0.2,0-0.3,0-0.4,0.2s0,0.3,0.2,0.4s0.3,0,0.4-0.2S50.6,61.7,50.4,61.6z"/>
	<path class="st1" d="M52.1,58.4c0.1-0.1,0-0.3-0.1-0.4s-0.3,0-0.4,0.1s0,0.3,0.1,0.4C51.8,58.6,52,58.6,52.1,58.4z"/>
	<path class="st1" d="M54.5,55.3c0.1-0.1,0.1-0.3,0-0.4c-0.1-0.1-0.3-0.1-0.4,0c-0.1,0.1-0.1,0.3,0,0.4
		C54.2,55.5,54.3,55.5,54.5,55.3z"/>
	<path class="st1" d="M57.5,53c0.1-0.1,0.2-0.3,0.1-0.4c-0.1-0.1-0.3-0.2-0.4-0.1c-0.1,0.1-0.2,0.3-0.1,0.4C57.2,53,57.4,53,57.5,53
		z"/>
	<path class="st1" d="M61.1,51.5c0.2,0,0.2-0.2,0.2-0.4s-0.2-0.2-0.4-0.2s-0.2,0.2-0.2,0.4C60.8,51.4,61,51.5,61.1,51.5z"/>
	<path class="st1" d="M67.9,54.8c0.3,0.1,0.6-0.1,0.7-0.4c0.1-0.3-0.1-0.6-0.4-0.7c-0.3-0.1-0.6,0.1-0.7,0.4
		C67.4,54.4,67.6,54.7,67.9,54.8z"/>
	<path class="st1" d="M70.7,55.9c0.3,0.2,0.6,0.1,0.8-0.2s0.1-0.6-0.2-0.8c-0.3-0.2-0.6-0.1-0.8,0.2S70.4,55.8,70.7,55.9z"/>
	<circle class="st1" cx="73.5" cy="57.3" r="0.6"/>
	<path class="st1" d="M75.7,60.3c0.3-0.2,0.4-0.5,0.2-0.8c-0.2-0.3-0.5-0.4-0.8-0.2c-0.3,0.2-0.4,0.5-0.2,0.8
		C75.1,60.4,75.4,60.5,75.7,60.3z"/>
	<path class="st1" d="M76.8,63.3c0.3-0.1,0.5-0.4,0.4-0.7s-0.4-0.5-0.7-0.4s-0.5,0.4-0.4,0.7C76.2,63.2,76.5,63.4,76.8,63.3z"/>
	<path class="st1" d="M71.6,70.6c0.1,0.3,0.4,0.5,0.7,0.4s0.5-0.4,0.4-0.7s-0.4-0.5-0.7-0.4C71.7,70,71.5,70.3,71.6,70.6z"/>
	<path class="st1" d="M64.8,57.9c-0.3,0.1-0.5,0.4-0.4,0.7s0.4,0.5,0.7,0.4s0.5-0.4,0.4-0.7C65.5,58,65.1,57.8,64.8,57.9z"/>
	<path class="st1" d="M58.1,71c0.3-0.1,0.5-0.4,0.4-0.7s-0.4-0.5-0.7-0.4s-0.5,0.4-0.4,0.7S57.8,71.1,58.1,71z"/>
	<path class="st1" d="M53.2,63.3c0.3,0.1,0.6-0.1,0.7-0.4c0.1-0.3-0.1-0.6-0.4-0.7s-0.6,0.1-0.7,0.4C52.7,62.9,52.9,63.2,53.2,63.3z
		"/>
	<path class="st1" d="M54.2,60.3c0.3,0.2,0.6,0.1,0.8-0.2s0.1-0.6-0.2-0.8c-0.3-0.2-0.6-0.1-0.8,0.2C53.9,59.8,54,60.2,54.2,60.3z"
		/>
	<path class="st1" d="M56.9,57.7c0.2-0.2,0.2-0.6,0-0.8c-0.2-0.2-0.6-0.2-0.8,0c-0.2,0.2-0.2,0.6,0,0.8C56.3,58,56.6,58,56.9,57.7z"
		/>
	<path class="st1" d="M59.2,55.9c0.3-0.2,0.4-0.5,0.2-0.8c-0.2-0.3-0.5-0.4-0.8-0.2c-0.3,0.2-0.4,0.5-0.2,0.8
		C58.6,56,59,56.1,59.2,55.9z"/>
	<path class="st1" d="M62,54.8c0.3-0.1,0.5-0.4,0.4-0.7s-0.4-0.5-0.7-0.4s-0.5,0.4-0.4,0.7C61.4,54.7,61.7,54.8,62,54.8z"/>
	<path class="st1" d="M75.4,25.1c-1.1-0.3-2.2,0.4-2.5,1.4s0.3,2.2,1.4,2.5c1.1,0.3,2.2-0.4,2.5-1.4C77.1,26.5,76.5,25.4,75.4,25.1z
		"/>
	<path class="st1" d="M85.1,29.2c-1-0.6-2.2-0.2-2.8,0.7s-0.2,2.2,0.7,2.8c1,0.6,2.2,0.2,2.8-0.7C86.4,31,86.1,29.7,85.1,29.2z"/>
	<circle class="st1" cx="92" cy="37" r="2"/>
	<path class="st1" d="M55.5,29c1.1-0.3,1.7-1.4,1.4-2.5s-1.4-1.7-2.5-1.4c-1.1,0.3-1.7,1.4-1.4,2.5S54.5,29.3,55.5,29z"/>
	<path class="st1" d="M46.7,32.6c1-0.6,1.3-1.8,0.7-2.8c-0.6-1-1.8-1.3-2.8-0.7s-1.3,1.8-0.7,2.8C44.5,32.9,45.8,33.2,46.7,32.6z"/>
	<circle class="st1" cx="37.7" cy="37" r="2"/>
	<path class="st1" d="M65.5,118.9c-0.1,0-0.2,0.1-0.2,0.2c0,0.1,0.1,0.2,0.2,0.2c0.1,0,0.2-0.1,0.2-0.3
		C65.8,119.1,65.7,118.9,65.5,118.9z"/>
	<path class="st1" d="M98.5,20.5c-0.1,0.1-0.1,0.3,0.1,0.4c0,0,0.1,0,0.2,0c0.1,0,0.2,0,0.2-0.1c0.1-0.1,0.1-0.3-0.1-0.4
		C98.8,20.4,98.6,20.4,98.5,20.5z"/>
	<path class="st1" d="M103.2,103.4c-0.1,0.1-0.1,0.2,0,0.3c0.1,0.1,0.1,0.1,0.2,0.1c0.1,0,0.1,0,0.2-0.1c0.1-0.1,0.1-0.3,0-0.4
		S103.3,103.3,103.2,103.4z"/>
	<path class="st1" d="M107.2,99c-0.1,0.1-0.1,0.3,0,0.3c0.1,0,0.1,0.1,0.2,0.1c0.1,0,0.1,0,0.2-0.1c0.1-0.1,0.1-0.3,0-0.3
		C107.5,98.9,107.3,98.9,107.2,99z"/>
	<path class="st1" d="M109.6,32c-0.1,0.1-0.1,0.2-0.1,0.3c0.1,0.1,0.1,0.1,0.2,0.1c0.1,0,0.1,0,0.1,0c0.1-0.1,0.1-0.2,0.1-0.3
		C109.9,31.9,109.7,31.9,109.6,32z"/>
	<path class="st1" d="M100.1,21.8c-0.1,0.1-0.1,0.3,0,0.4c0,0,0.1,0.1,0.2,0.1c0.1,0,0.1,0,0.2-0.1c0.1-0.1,0.1-0.3,0-0.4
		C100.3,21.6,100.2,21.7,100.1,21.8z"/>
	<path class="st1" d="M110.8,33.6c-0.1,0.1-0.2,0.2-0.1,0.3c0.1,0.1,0.1,0.1,0.2,0.1c0.1,0,0.1,0,0.1,0c0.1-0.1,0.1-0.2,0.1-0.3
		C111,33.5,110.9,33.5,110.8,33.6z"/>
	<path class="st1" d="M105.9,27.3c-0.1,0.1-0.1,0.2,0,0.4c0.1,0,0.1,0.1,0.2,0.1s0.1,0,0.2-0.1c0.1-0.1,0.1-0.2,0-0.4
		C106.1,27.2,106,27.2,105.9,27.3z"/>
	<path class="st1" d="M107.2,28.8c-0.1,0.1-0.1,0.2,0,0.4c0.1,0.1,0.1,0.1,0.2,0.1c0.1,0,0.1,0,0.2-0.1c0.1-0.1,0.1-0.2,0-0.4
		C107.4,28.7,107.3,28.7,107.2,28.8z"/>
	<path class="st1" d="M111.8,35.3c-0.1,0.1-0.2,0.2-0.1,0.3c0,0.1,0.1,0.1,0.2,0.1c0.1,0,0.1,0,0.1,0c0.1-0.1,0.2-0.2,0.1-0.3
		C112.1,35.2,112,35.2,111.8,35.3z"/>
	<path class="st1" d="M108.4,30.4c-0.1,0.1-0.1,0.2,0,0.4c0.1,0.1,0.1,0.1,0.2,0.1c0.1,0,0.1,0,0.2,0c0.1-0.1,0.1-0.2,0-0.4
		C108.7,30.3,108.5,30.3,108.4,30.4z"/>
	<path class="st1" d="M105.9,100.6c-0.1,0.1-0.1,0.3,0,0.4c0,0,0.1,0.1,0.2,0.1c0.1,0,0.1,0,0.2-0.1c0.1-0.1,0.1-0.3,0-0.3
		C106.2,100.4,106,100.4,105.9,100.6z"/>
	<path class="st1" d="M120.3,63.9c0-0.1-0.1-0.2-0.2-0.2s-0.2,0.1-0.2,0.2c0,0,0,0.1,0,0.1c0,0,0,0.1,0,0.1c0,0.1,0.1,0.2,0.2,0.2
		s0.2-0.1,0.2-0.2c0,0,0-0.1,0-0.1C120.3,64,120.3,64,120.3,63.9z"/>
	<path class="st1" d="M103.1,24.4c-0.1,0.1-0.1,0.3,0,0.4c0.1,0,0.1,0.1,0.2,0.1c0.1,0,0.1,0,0.2-0.1c0.1-0.1,0.1-0.3,0-0.4
		C103.3,24.3,103.2,24.3,103.1,24.4z"/>
	<path class="st1" d="M101.6,23.1c-0.1,0.1-0.1,0.3,0,0.4c0,0,0.1,0.1,0.2,0.1c0.1,0,0.1,0,0.2-0.1c0.1-0.1,0.1-0.3,0-0.4
		C101.9,23,101.7,23,101.6,23.1z"/>
	<path class="st1" d="M67.5,118.9c-0.1,0-0.2,0.1-0.2,0.3c0,0.1,0.1,0.2,0.2,0.2h0c0.1,0,0.2-0.1,0.2-0.3
		C67.8,119,67.7,118.9,67.5,118.9z"/>
	<path class="st1" d="M104.6,102c-0.1,0.1-0.1,0.2,0,0.3c0,0.1,0.1,0.1,0.2,0.1c0.1,0,0.1,0,0.2-0.1c0.1-0.1,0.1-0.3,0-0.3
		C104.8,101.9,104.7,101.9,104.6,102z"/>
	<path class="st1" d="M112.9,37c-0.1,0.1-0.2,0.2-0.1,0.3c0.1,0.1,0.1,0.1,0.2,0.1c0,0,0.1,0,0.1,0c0.1-0.1,0.2-0.2,0.1-0.3
		C113.1,37,113,36.9,112.9,37z"/>
	<path class="st1" d="M113.8,38.7c-0.1,0.1-0.2,0.2-0.1,0.3c0.1,0.1,0.1,0.1,0.2,0.1c0,0,0.1,0,0.1,0c0.1-0.1,0.2-0.2,0.1-0.3
		C114.1,38.7,113.9,38.7,113.8,38.7z"/>
	<path class="st1" d="M104.5,25.8c-0.1,0.1-0.1,0.2,0,0.4c0.1,0,0.1,0.1,0.2,0.1c0.1,0,0.1,0,0.2-0.1c0.1-0.1,0.1-0.3,0-0.4
		C104.8,25.7,104.6,25.7,104.5,25.8z"/>
	<path class="st1" d="M79.3,117.1c-0.1,0-0.2,0.2-0.2,0.3c0,0.1,0.1,0.2,0.2,0.2c0,0,0,0,0.1,0c0.1,0,0.2-0.2,0.2-0.3
		C79.6,117.1,79.4,117,79.3,117.1z"/>
	<path class="st1" d="M95.5,109.7c-0.1,0.1-0.2,0.2-0.1,0.3c0.1,0.1,0.1,0.1,0.2,0.1c0.1,0,0.1,0,0.1,0c0.1-0.1,0.1-0.2,0.1-0.3
		C95.8,109.6,95.6,109.6,95.5,109.7z"/>
	<path class="st1" d="M93.8,110.8c-0.1,0.1-0.2,0.2-0.1,0.3c0.1,0.1,0.1,0.1,0.2,0.1c0.1,0,0.1,0,0.1,0c0.1-0.1,0.2-0.2,0.1-0.3
		C94.1,110.7,93.9,110.7,93.8,110.8z"/>
	<path class="st1" d="M88.6,113.6c-0.1,0.1-0.2,0.2-0.1,0.3c0,0.1,0.1,0.1,0.2,0.1c0,0,0.1,0,0.1,0c0.1-0.1,0.2-0.2,0.1-0.3
		C88.9,113.6,88.7,113.6,88.6,113.6z"/>
	<path class="st1" d="M97.1,108.5c-0.1,0.1-0.1,0.2-0.1,0.3c0.1,0.1,0.1,0.1,0.2,0.1c0.1,0,0.1,0,0.2-0.1c0.1-0.1,0.1-0.2,0.1-0.3
		S97.2,108.5,97.1,108.5z"/>
	<path class="st1" d="M90.4,112.7c-0.1,0.1-0.2,0.2-0.1,0.3c0.1,0.1,0.1,0.1,0.2,0.1c0,0,0.1,0,0.1,0c0.1-0.1,0.2-0.2,0.1-0.3
		C90.6,112.7,90.5,112.7,90.4,112.7z"/>
	<path class="st1" d="M92.1,111.8c-0.1,0.1-0.2,0.2-0.1,0.3c0.1,0.1,0.1,0.1,0.2,0.1c0,0,0.1,0,0.1,0c0.1-0.1,0.2-0.2,0.1-0.3
		C92.4,111.8,92.2,111.7,92.1,111.8z"/>
	<path class="st1" d="M101.7,104.8c-0.1,0.1-0.1,0.2,0,0.3c0.1,0.1,0.1,0.1,0.2,0.1c0.1,0,0.1,0,0.2-0.1c0.1-0.1,0.1-0.2,0-0.3
		C102,104.7,101.8,104.7,101.7,104.8z"/>
	<path class="st1" d="M98.7,107.3c-0.1,0.1-0.1,0.2,0,0.3c0.1,0.1,0.1,0.1,0.2,0.1c0.1,0,0.1,0,0.2-0.1c0.1-0.1,0.1-0.2,0-0.3
		C99,107.3,98.8,107.3,98.7,107.3z"/>
	<path class="st1" d="M73.3,9.5C73.3,9.5,73.3,9.5,73.3,9.5c-0.1,0-0.3,0.1-0.3,0.2c0,0.1,0.1,0.3,0.2,0.3c0,0,0,0,0,0
		c0.1,0,0.2-0.1,0.2-0.2C73.5,9.6,73.4,9.5,73.3,9.5z"/>
	<path class="st1" d="M100.2,106.1c-0.1,0.1-0.1,0.2,0,0.3c0.1,0.1,0.1,0.1,0.2,0.1c0.1,0,0.1,0,0.2-0.1c0.1-0.1,0.1-0.2,0-0.3
		C100.5,106,100.3,106,100.2,106.1z"/>
	<path class="st1" d="M81.2,116.5c-0.1,0-0.2,0.2-0.2,0.3c0,0.1,0.1,0.2,0.2,0.2c0,0,0.1,0,0.1,0c0.1,0,0.2-0.2,0.2-0.3
		C81.5,116.5,81.3,116.5,81.2,116.5z"/>
	<path class="st1" d="M86.8,114.4c-0.1,0.1-0.2,0.2-0.1,0.3c0,0.1,0.1,0.2,0.2,0.2c0,0,0.1,0,0.1,0c0.1-0.1,0.2-0.2,0.1-0.3
		C87.1,114.4,86.9,114.4,86.8,114.4z"/>
	<path class="st1" d="M77.4,117.5c-0.1,0-0.2,0.2-0.2,0.3c0,0.1,0.1,0.2,0.2,0.2c0,0,0,0,0.1,0c0.1,0,0.2-0.2,0.2-0.3
		C77.6,117.6,77.5,117.5,77.4,117.5z"/>
	<path class="st1" d="M71.5,118.6c-0.1,0-0.2,0.1-0.2,0.3c0,0.1,0.1,0.2,0.2,0.2c0,0,0,0,0,0c0.1,0,0.2-0.1,0.2-0.3
		C71.7,118.7,71.6,118.6,71.5,118.6z"/>
	<path class="st1" d="M96.9,19.3c-0.1,0.1-0.1,0.3,0.1,0.4c0.1,0,0.1,0,0.2,0c0.1,0,0.2,0,0.2-0.1c0.1-0.1,0.1-0.3-0.1-0.4
		C97.2,19.2,97,19.2,96.9,19.3z"/>
	<path class="st1" d="M73.4,118.3c-0.1,0-0.2,0.2-0.2,0.3c0,0.1,0.1,0.2,0.2,0.2c0,0,0,0,0,0c0.1,0,0.2-0.2,0.2-0.3
		C73.7,118.4,73.6,118.3,73.4,118.3z"/>
	<path class="st1" d="M75.4,118c-0.1,0-0.2,0.2-0.2,0.3c0,0.1,0.1,0.2,0.2,0.2c0,0,0,0,0,0c0.1,0,0.2-0.2,0.2-0.3
		C75.7,118,75.6,117.9,75.4,118z"/>
	<path class="st1" d="M71.3,9.2c-0.1,0-0.3,0.1-0.3,0.2c0,0.1,0.1,0.3,0.2,0.3c0,0,0,0,0,0c0.1,0,0.2-0.1,0.2-0.2
		C71.6,9.4,71.5,9.2,71.3,9.2z"/>
	<path class="st1" d="M69.5,118.8c-0.1,0-0.2,0.1-0.2,0.3c0,0.1,0.1,0.2,0.2,0.2c0,0,0,0,0,0c0.1,0,0.2-0.1,0.2-0.3
		C69.8,118.9,69.6,118.8,69.5,118.8z"/>
	<path class="st1" d="M84.9,115.2c-0.1,0.1-0.2,0.2-0.1,0.3c0,0.1,0.1,0.2,0.2,0.2c0,0,0.1,0,0.1,0c0.1-0.1,0.2-0.2,0.1-0.3
		C85.2,115.2,85.1,115.2,84.9,115.2z"/>
	<path class="st1" d="M83.1,115.9c-0.1,0-0.2,0.2-0.2,0.3c0,0.1,0.1,0.2,0.2,0.2c0,0,0.1,0,0.1,0c0.1-0.1,0.2-0.2,0.2-0.3
		C83.4,115.9,83.2,115.8,83.1,115.9z"/>
	<path class="st1" d="M83.1,11.9c-0.1,0-0.3,0-0.3,0.2c0,0.1,0,0.3,0.2,0.3c0,0,0.1,0,0.1,0c0.1,0,0.2-0.1,0.2-0.2
		C83.2,12.1,83.2,11.9,83.1,11.9z"/>
	<path class="st1" d="M118.7,52.3C118.7,52.3,118.7,52.3,118.7,52.3c0.2,0,0.3-0.2,0.2-0.3c0-0.1-0.2-0.2-0.3-0.2
		c-0.1,0-0.2,0.2-0.2,0.3C118.5,52.2,118.6,52.3,118.7,52.3z"/>
	<path class="st1" d="M119.4,58c0,0.1,0.1,0.2,0.2,0.2c0,0,0,0,0,0c0.1,0,0.2-0.1,0.2-0.3c0,0,0,0,0,0c0-0.1-0.1-0.2-0.3-0.2
		C119.5,57.7,119.4,57.8,119.4,58z"/>
	<path class="st1" d="M118.8,54c0,0.1,0.1,0.2,0.2,0.2c0,0,0,0,0,0c0.1,0,0.2-0.2,0.2-0.3c0-0.1-0.2-0.2-0.3-0.2
		C118.9,53.8,118.8,53.9,118.8,54z"/>
	<path class="st1" d="M117.7,48.4C117.7,48.4,117.7,48.4,117.7,48.4c0.2,0,0.3-0.2,0.2-0.3c0-0.1-0.2-0.2-0.3-0.2
		c-0.1,0-0.2,0.2-0.2,0.3C117.5,48.4,117.6,48.4,117.7,48.4z"/>
	<path class="st1" d="M119.6,60c0,0.1,0.1,0.2,0.2,0.2c0,0,0,0,0,0c0.1,0,0.2-0.1,0.2-0.3c0-0.1-0.1-0.2-0.3-0.2
		C119.7,59.7,119.6,59.8,119.6,60z"/>
	<path class="st1" d="M119.2,56c0,0.1,0.1,0.2,0.2,0.2c0,0,0,0,0,0c0.1,0,0.2-0.2,0.2-0.3c0-0.1-0.1-0.2-0.3-0.2
		S119.2,55.9,119.2,56z"/>
	<path class="st1" d="M119.7,62c0,0.1,0.1,0.2,0.2,0.2c0,0,0,0,0,0c0.1,0,0.2-0.1,0.2-0.2c0-0.1-0.1-0.2-0.3-0.2
		C119.8,61.7,119.7,61.8,119.7,62z"/>
	<path class="st1" d="M112.8,90.8L112.8,90.8c-0.1,0.1,0,0.3,0.1,0.3c0,0,0.1,0,0.1,0c0.1,0,0.2-0.1,0.2-0.1c0.1-0.1,0-0.3-0.1-0.3
		C113.1,90.7,112.9,90.7,112.8,90.8z"/>
	<path class="st1" d="M111.8,92.6c-0.1,0.1,0,0.3,0.1,0.3c0,0,0.1,0,0.1,0c0.1,0,0.2,0,0.2-0.1c0.1-0.1,0-0.3-0.1-0.3
		C112.1,92.4,111.9,92.4,111.8,92.6z"/>
	<path class="st1" d="M113.8,89.1c-0.1,0.1,0,0.3,0.1,0.3c0,0,0.1,0,0.1,0c0.1,0,0.2,0,0.2-0.1c0.1-0.1,0-0.3-0.1-0.3
		C114,88.9,113.8,89,113.8,89.1z"/>
	<path class="st1" d="M116.4,44.7C116.4,44.7,116.4,44.7,116.4,44.7c0.2-0.1,0.3-0.2,0.2-0.3c-0.1-0.1-0.2-0.2-0.3-0.1
		c-0.1,0-0.2,0.2-0.1,0.3C116.2,44.6,116.3,44.7,116.4,44.7z"/>
	<path class="st1" d="M110.8,94.2c-0.1,0.1-0.1,0.3,0.1,0.3c0,0,0.1,0,0.1,0c0.1,0,0.2,0,0.2-0.1c0.1-0.1,0-0.3-0.1-0.3
		C111,94.1,110.8,94.1,110.8,94.2z"/>
	<path class="st1" d="M115.5,85.5c-0.1,0.1,0,0.3,0.1,0.3c0,0,0.1,0,0.1,0c0.1,0,0.2-0.1,0.2-0.2c0.1-0.1,0-0.3-0.1-0.3
		C115.7,85.3,115.5,85.3,115.5,85.5z"/>
	<path class="st1" d="M114.8,41c0,0,0.1,0,0.1,0c0.1-0.1,0.2-0.2,0.1-0.3c0,0,0,0,0,0c-0.1-0.1-0.2-0.2-0.3-0.1
		c-0.1,0.1-0.2,0.2-0.1,0.3C114.6,40.9,114.7,41,114.8,41z"/>
	<path class="st1" d="M116.2,83.6c-0.1,0.1,0,0.3,0.2,0.3c0,0,0.1,0,0.1,0c0.1,0,0.2-0.1,0.2-0.2c0.1-0.1,0-0.3-0.1-0.3
		C116.4,83.4,116.3,83.5,116.2,83.6z"/>
	<path class="st1" d="M75.3,9.8C75.2,9.8,75,9.9,75,10c0,0.1,0.1,0.3,0.2,0.3c0,0,0,0,0.1,0c0.1,0,0.2-0.1,0.2-0.2
		C75.5,10,75.4,9.9,75.3,9.8z"/>
	<path class="st1" d="M117.1,46.5C117.1,46.5,117.1,46.5,117.1,46.5c0.2-0.1,0.3-0.2,0.2-0.3c0-0.1-0.2-0.2-0.3-0.2
		s-0.2,0.2-0.2,0.3C116.8,46.5,116.9,46.5,117.1,46.5z"/>
	<path class="st1" d="M115.6,42.8C115.7,42.8,115.7,42.8,115.6,42.8c0.2-0.1,0.3-0.2,0.2-0.4c-0.1-0.1-0.2-0.2-0.3-0.1
		c-0.1,0.1-0.2,0.2-0.1,0.3C115.4,42.8,115.5,42.8,115.6,42.8z"/>
	<path class="st1" d="M117.2,81.6c-0.1-0.1-0.3,0-0.3,0.2c-0.1,0.1,0,0.3,0.2,0.3c0,0,0.1,0,0.1,0c0.1,0,0.2-0.1,0.2-0.2
		C117.4,81.8,117.3,81.6,117.2,81.6z"/>
	<path class="st1" d="M114.7,87.3c-0.1,0.1,0,0.3,0.1,0.3c0,0,0.1,0,0.1,0c0.1,0,0.2-0.1,0.2-0.2c0.1-0.1,0-0.3-0.1-0.3
		C114.9,87.1,114.7,87.2,114.7,87.3z"/>
	<path class="st1" d="M84.9,12.6c-0.1-0.1-0.3,0-0.3,0.1c0,0.1,0,0.3,0.2,0.3c0,0,0.1,0,0.1,0c0.1,0,0.2-0.1,0.2-0.2
		C85.1,12.8,85.1,12.6,84.9,12.6z"/>
	<path class="st1" d="M91.9,16.1c-0.1,0.1,0,0.3,0.1,0.3c0,0,0.1,0,0.1,0c0.1,0,0.2,0,0.2-0.1c0.1-0.1,0-0.3-0.1-0.3
		C92.1,15.9,91.9,16,91.9,16.1z"/>
	<path class="st1" d="M119.5,71.9c-0.1,0-0.3,0.1-0.3,0.2c0,0.1,0.1,0.3,0.2,0.3c0,0,0,0,0,0c0.1,0,0.2-0.1,0.2-0.2
		C119.7,72,119.6,71.9,119.5,71.9z"/>
	<path class="st1" d="M119.2,73.8c-0.1,0-0.3,0.1-0.3,0.2c0,0.1,0.1,0.3,0.2,0.3c0,0,0,0,0.1,0c0.1,0,0.2-0.1,0.2-0.2
		C119.4,74,119.3,73.9,119.2,73.8z"/>
	<path class="st1" d="M93.6,17.1c-0.1,0.1,0,0.3,0.1,0.4c0,0,0.1,0,0.1,0c0.1,0,0.2,0,0.2-0.1c0.1-0.1,0-0.3-0.1-0.4
		C93.8,17,93.7,17,93.6,17.1z"/>
	<path class="st1" d="M90.1,15.2c-0.1,0.1,0,0.3,0.1,0.3c0,0,0.1,0,0.1,0c0.1,0,0.2-0.1,0.2-0.1c0.1-0.1,0-0.3-0.1-0.3
		C90.3,15,90.2,15,90.1,15.2z"/>
	<path class="st1" d="M120,65.9c-0.1,0-0.2,0.1-0.3,0.2c0,0.1,0.1,0.3,0.2,0.3s0.2-0.1,0.2-0.2C120.2,66,120.1,65.9,120,65.9z"/>
	<path class="st1" d="M108.5,97.5c-0.1,0.1-0.1,0.3,0.1,0.3c0,0,0.1,0.1,0.2,0.1c0.1,0,0.2,0,0.2-0.1c0.1-0.1,0.1-0.3-0.1-0.3
		S108.6,97.4,108.5,97.5z"/>
	<path class="st1" d="M109.7,95.9c-0.1,0.1-0.1,0.3,0.1,0.3c0.1,0,0.1,0.1,0.2,0.1c0.1,0,0.2,0,0.2-0.1c0.1-0.1,0.1-0.3-0.1-0.3
		C109.9,95.8,109.7,95.8,109.7,95.9z"/>
	<path class="st1" d="M77.3,10.2c-0.1,0-0.3,0.1-0.3,0.2c0,0.1,0.1,0.3,0.2,0.3c0,0,0,0,0.1,0c0.1,0,0.2-0.1,0.2-0.2
		C77.5,10.4,77.4,10.3,77.3,10.2z"/>
	<path class="st1" d="M119.7,69.9c-0.1,0-0.3,0.1-0.3,0.2s0.1,0.3,0.2,0.3c0,0,0,0,0,0c0.1,0,0.2-0.1,0.2-0.2
		C120,70,119.9,69.9,119.7,69.9z"/>
	<path class="st1" d="M119.9,67.9c-0.1,0-0.2,0.1-0.3,0.2c0,0.1,0.1,0.3,0.2,0.3h0c0.1,0,0.2-0.1,0.3-0.2
		C120.1,68,120,67.9,119.9,67.9z"/>
	<path class="st1" d="M81.1,11.3c-0.1,0-0.3,0-0.3,0.2c0,0.1,0,0.3,0.2,0.3c0,0,0.1,0,0.1,0c0.1,0,0.2-0.1,0.2-0.2
		C81.3,11.4,81.3,11.3,81.1,11.3z"/>
	<path class="st1" d="M117.8,79.7c-0.1,0-0.3,0-0.3,0.2c0,0.1,0,0.3,0.2,0.3c0,0,0.1,0,0.1,0c0.1,0,0.2-0.1,0.2-0.2
		C118,79.9,117.9,79.7,117.8,79.7z"/>
	<path class="st1" d="M95.3,18.2c-0.1,0.1-0.1,0.3,0.1,0.3c0,0,0.1,0,0.1,0c0.1,0,0.2,0,0.2-0.1c0.1-0.1,0.1-0.3-0.1-0.3
		C95.5,18,95.3,18.1,95.3,18.2z"/>
	<path class="st1" d="M79.2,10.7c-0.1,0-0.3,0-0.3,0.2c0,0.1,0,0.3,0.2,0.3c0,0,0,0,0.1,0c0.1,0,0.2-0.1,0.2-0.2
		C79.4,10.9,79.3,10.7,79.2,10.7z"/>
	<path class="st1" d="M118.3,77.8c-0.1,0-0.3,0.1-0.3,0.2c0,0.1,0.1,0.3,0.2,0.3c0,0,0,0,0.1,0c0.1,0,0.2-0.1,0.2-0.2
		C118.5,77.9,118.5,77.8,118.3,77.8z"/>
	<path class="st1" d="M118.2,50.4C118.2,50.4,118.2,50.4,118.2,50.4c0.2,0,0.3-0.2,0.2-0.3c0,0,0,0,0,0c0-0.1-0.2-0.2-0.3-0.2
		c-0.1,0-0.2,0.2-0.2,0.3C118,50.3,118.1,50.4,118.2,50.4z"/>
	<path class="st1" d="M88.3,14.3c-0.1,0.1,0,0.3,0.1,0.3c0,0,0.1,0,0.1,0c0.1,0,0.2-0.1,0.2-0.1c0.1-0.1,0-0.3-0.1-0.3
		C88.5,14.1,88.4,14.2,88.3,14.3z"/>
	<path class="st1" d="M118.8,75.8c-0.1,0-0.3,0.1-0.3,0.2c0,0.1,0.1,0.3,0.2,0.3c0,0,0,0,0.1,0c0.1,0,0.2-0.1,0.2-0.2
		C119,76,118.9,75.8,118.8,75.8z"/>
	<path class="st1" d="M86.5,13.5c-0.1,0.1,0,0.3,0.1,0.3c0,0,0.1,0,0.1,0c0.1,0,0.2-0.1,0.2-0.2c0.1-0.1,0-0.3-0.1-0.3
		C86.7,13.3,86.5,13.3,86.5,13.5z"/>
	<path class="st1" d="M61.3,9C61.3,9,61.3,9,61.3,9c-0.2,0-0.2,0.1-0.2,0.3c0,0.1,0.1,0.2,0.2,0.2c0,0,0,0,0,0
		c0.1,0,0.2-0.1,0.2-0.3C61.6,9.1,61.4,9,61.3,9z"/>
	<path class="st1" d="M16.4,90.4c0,0,0.1,0,0.1,0c0.1-0.1,0.2-0.2,0.1-0.3c-0.1-0.1-0.2-0.2-0.3-0.1c-0.1,0.1-0.2,0.2-0.1,0.3
		C16.3,90.3,16.4,90.4,16.4,90.4z"/>
	<path class="st1" d="M18.5,93.8c0,0,0.1,0,0.1,0c0.1-0.1,0.1-0.2,0.1-0.3v0c-0.1-0.1-0.2-0.2-0.4-0.1c-0.1,0.1-0.1,0.2-0.1,0.3
		C18.3,93.8,18.4,93.8,18.5,93.8z"/>
	<path class="st1" d="M15.3,88.5c0,0.1,0.1,0.1,0.2,0.1c0,0,0.1,0,0.1,0c0.1-0.1,0.2-0.2,0.1-0.3s-0.2-0.2-0.3-0.1
		C15.3,88.2,15.2,88.4,15.3,88.5z"/>
	<path class="st1" d="M17.4,92.1c0,0,0.1,0,0.1,0c0.1-0.1,0.2-0.2,0.1-0.3c-0.1-0.1-0.2-0.2-0.3-0.1c-0.1,0.1-0.2,0.2-0.1,0.3
		C17.2,92.1,17.3,92.1,17.4,92.1z"/>
	<path class="st1" d="M15.2,40c-0.1,0.1,0,0.3,0.1,0.3c0,0,0.1,0,0.1,0c0.1,0,0.2,0,0.2-0.1c0.1-0.1,0-0.3-0.1-0.3
		C15.4,39.8,15.3,39.9,15.2,40z"/>
	<path class="st1" d="M16.1,38.2c-0.1,0.1,0,0.3,0.1,0.3c0,0,0.1,0,0.1,0c0.1,0,0.2,0,0.2-0.1c0.1-0.1,0-0.3-0.1-0.3
		C16.4,38,16.2,38.1,16.1,38.2z"/>
	<path class="st1" d="M43.8,13.1c-0.1,0.1-0.2,0.2-0.1,0.3c0,0.1,0.1,0.1,0.2,0.1c0,0,0.1,0,0.1,0c0.1-0.1,0.2-0.2,0.1-0.3
		C44.1,13.1,43.9,13,43.8,13.1z"/>
	<path class="st1" d="M17.1,36.5c-0.1,0.1,0,0.3,0.1,0.3c0,0,0.1,0,0.1,0c0.1,0,0.2,0,0.2-0.1c0.1-0.1,0-0.3-0.1-0.3
		C17.3,36.3,17.2,36.3,17.1,36.5z"/>
	<path class="st1" d="M19.5,95.5c0,0,0.1,0,0.1,0c0.1-0.1,0.1-0.2,0.1-0.3c-0.1-0.1-0.2-0.1-0.4-0.1s-0.1,0.2-0.1,0.3
		C19.4,95.5,19.5,95.5,19.5,95.5z"/>
	<path class="st1" d="M25.9,103.2c0.1,0,0.1,0,0.2-0.1c0.1-0.1,0.1-0.2,0-0.3s-0.3-0.1-0.4,0c-0.1,0.1-0.1,0.2,0,0.3
		C25.8,103.2,25.9,103.2,25.9,103.2z"/>
	<path class="st1" d="M27.3,104.6c0.1,0,0.1,0,0.2-0.1c0.1-0.1,0.1-0.3,0-0.4c-0.1-0.1-0.3-0.1-0.4,0c-0.1,0.1-0.1,0.3,0,0.3
		C27.2,104.6,27.3,104.6,27.3,104.6z"/>
	<path class="st1" d="M24.5,101.7c0.1,0,0.1,0,0.2-0.1c0.1-0.1,0.1-0.3,0-0.4c-0.1-0.1-0.2-0.1-0.4,0c-0.1,0.1-0.1,0.2,0,0.3
		C24.4,101.7,24.5,101.7,24.5,101.7z"/>
	<path class="st1" d="M28.8,105.9c0.1,0,0.1,0,0.2-0.1c0.1-0.1,0.1-0.3,0-0.3c-0.1-0.1-0.3-0.1-0.4,0c-0.1,0.1-0.1,0.3,0,0.4
		C28.7,105.9,28.8,105.9,28.8,105.9z"/>
	<path class="st1" d="M20.7,97.1c0,0,0.1,0,0.1-0.1c0.1-0.1,0.1-0.2,0-0.3c-0.1-0.1-0.2-0.1-0.4-0.1c-0.1,0.1-0.1,0.2,0,0.3
		C20.6,97.1,20.6,97.1,20.7,97.1z"/>
	<path class="st1" d="M23.2,100.2c0.1,0,0.1,0,0.2-0.1c0.1-0.1,0.1-0.2,0-0.3c-0.1-0.1-0.2-0.1-0.4,0c-0.1,0.1-0.1,0.2,0,0.3
		C23.1,100.2,23.1,100.2,23.2,100.2z"/>
	<path class="st1" d="M19.3,33c-0.1,0.1,0,0.3,0.1,0.3c0,0,0.1,0,0.1,0c0.1,0,0.2,0,0.2-0.1c0.1-0.1,0-0.3-0.1-0.3
		C19.5,32.9,19.3,32.9,19.3,33z"/>
	<path class="st1" d="M21.9,98.7c0,0,0.1,0,0.1-0.1c0.1-0.1,0.1-0.2,0-0.3c-0.1-0.1-0.2-0.1-0.4,0c-0.1,0.1-0.1,0.2,0,0.3
		C21.8,98.7,21.9,98.7,21.9,98.7z"/>
	<path class="st1" d="M51.6,117.8C51.6,117.8,51.6,117.8,51.6,117.8C51.6,117.8,51.7,117.8,51.6,117.8c0.2,0,0.3-0.1,0.3-0.2
		c0-0.1,0-0.3-0.2-0.3c-0.1,0-0.3,0.1-0.3,0.2C51.4,117.7,51.5,117.8,51.6,117.8z"/>
	<path class="st1" d="M38.7,15.8c-0.1-0.1-0.2-0.2-0.3-0.1c-0.1,0.1-0.2,0.2-0.1,0.3c0,0.1,0.1,0.1,0.2,0.1c0,0,0.1,0,0.1,0h0
		C38.8,16,38.8,15.9,38.7,15.8z"/>
	<path class="st1" d="M35,17.7C34.9,17.7,34.9,17.7,35,17.7c-0.1,0.1-0.2,0.2-0.1,0.3c0,0.1,0.1,0.1,0.2,0.1c0,0,0.1,0,0.1,0
		c0.1-0.1,0.1-0.2,0.1-0.4C35.2,17.7,35.1,17.6,35,17.7z"/>
	<path class="st1" d="M36.7,16.7c-0.1,0.1-0.2,0.2-0.1,0.3c0,0.1,0.1,0.1,0.2,0.1c0,0,0.1,0,0.1,0c0.1-0.1,0.2-0.2,0.1-0.3
		C36.9,16.6,36.8,16.6,36.7,16.7z"/>
	<path class="st1" d="M33.3,18.8c-0.1,0.1-0.1,0.2-0.1,0.4c0,0.1,0.1,0.1,0.2,0.1c0,0,0.1,0,0.1,0c0.1-0.1,0.1-0.2,0.1-0.4
		C33.5,18.8,33.4,18.8,33.3,18.8z"/>
	<path class="st1" d="M14.6,86.3c-0.1,0.1-0.2,0.2-0.1,0.3c0,0.1,0.1,0.2,0.2,0.2c0,0,0.1,0,0.1,0c0.1-0.1,0.2-0.2,0.1-0.3
		C14.9,86.3,14.7,86.3,14.6,86.3z"/>
	<path class="st1" d="M20.4,31.4C20.4,31.4,20.4,31.4,20.4,31.4c-0.1,0.1-0.1,0.3,0,0.3c0,0,0.1,0,0.1,0c0.1,0,0.1,0,0.2-0.1
		c0.1-0.1,0.1-0.3,0-0.4C20.7,31.3,20.5,31.3,20.4,31.4z"/>
	<path class="st1" d="M31.7,20c-0.1,0.1-0.1,0.2,0,0.4c0,0.1,0.1,0.1,0.2,0.1c0.1,0,0.1,0,0.1,0c0.1-0.1,0.1-0.2,0.1-0.4
		C31.9,20,31.8,19.9,31.7,20z"/>
	<path class="st1" d="M40.2,14.7C40,14.8,40,14.9,40,15.1c0,0.1,0.1,0.1,0.2,0.1c0,0,0.1,0,0.1,0c0.1-0.1,0.2-0.2,0.1-0.3
		C40.4,14.7,40.3,14.7,40.2,14.7z"/>
	<path class="st1" d="M42,13.9c-0.1,0.1-0.2,0.2-0.1,0.3c0,0.1,0.1,0.1,0.2,0.1c0,0,0.1,0,0.1,0c0.1-0.1,0.2-0.2,0.1-0.3
		C42.2,13.9,42.1,13.8,42,13.9z"/>
	<path class="st1" d="M22.9,28.3c-0.1,0.1-0.1,0.3,0,0.4c0,0,0.1,0.1,0.2,0.1c0.1,0,0.1,0,0.2-0.1c0.1-0.1,0.1-0.3,0-0.4
		C23.2,28.1,23,28.2,22.9,28.3z"/>
	<path class="st1" d="M30.1,21.3C30.1,21.3,30.1,21.3,30.1,21.3c-0.1,0.1-0.1,0.2,0,0.4c0,0.1,0.1,0.1,0.2,0.1c0.1,0,0.1,0,0.2,0
		c0.1-0.1,0.1-0.2,0-0.4C30.4,21.2,30.2,21.2,30.1,21.3z"/>
	<path class="st1" d="M21.6,29.8c-0.1,0.1-0.1,0.3,0,0.4c0,0,0.1,0.1,0.1,0.1c0.1,0,0.1,0,0.2-0.1c0.1-0.1,0.1-0.3,0-0.4
		C21.9,29.7,21.7,29.7,21.6,29.8z"/>
	<path class="st1" d="M24.2,26.8c-0.1,0.1-0.1,0.3,0,0.4c0,0,0.1,0.1,0.2,0.1c0.1,0,0.1,0,0.2-0.1c0.1-0.1,0.1-0.3,0-0.4
		C24.5,26.6,24.3,26.7,24.2,26.8z"/>
	<path class="st1" d="M28.5,22.5c-0.1,0.1-0.1,0.2,0,0.4c0,0,0.1,0.1,0.2,0.1c0.1,0,0.1,0,0.2-0.1c0.1-0.1,0.1-0.2,0-0.4
		C28.8,22.5,28.6,22.5,28.5,22.5z"/>
	<path class="st1" d="M49.7,117.3C49.7,117.3,49.7,117.3,49.7,117.3c0.2,0,0.3-0.1,0.3-0.2c0-0.1,0-0.3-0.2-0.3
		c-0.1,0-0.3,0-0.3,0.2C49.5,117.1,49.5,117.3,49.7,117.3z"/>
	<path class="st1" d="M25.6,25.3c-0.1,0.1-0.1,0.3,0,0.4c0,0,0.1,0.1,0.2,0.1s0.1,0,0.2-0.1c0.1-0.1,0.1-0.3,0-0.4
		C25.9,25.2,25.7,25.2,25.6,25.3z"/>
	<path class="st1" d="M18.2,34.7c-0.1,0.1,0,0.3,0.1,0.3c0,0,0.1,0,0.1,0c0.1,0,0.2,0,0.2-0.1c0.1-0.1,0-0.3-0.1-0.3
		C18.4,34.6,18.2,34.6,18.2,34.7z"/>
	<path class="st1" d="M10.1,59.5C10.1,59.5,10.1,59.5,10.1,59.5c0.1,0,0.3-0.1,0.3-0.2c0-0.1-0.1-0.2-0.2-0.3
		c-0.1,0-0.3,0.1-0.3,0.2C9.9,59.4,10,59.5,10.1,59.5z"/>
	<path class="st1" d="M30.4,107.2c0.1,0,0.1,0,0.2-0.1c0.1-0.1,0.1-0.3,0-0.3c-0.1-0.1-0.3-0.1-0.4,0c-0.1,0.1-0.1,0.3,0,0.3
		C30.2,107.2,30.3,107.2,30.4,107.2z"/>
	<path class="st1" d="M31.9,108.4c0.1,0,0.2,0,0.2-0.1c0.1-0.1,0.1-0.3,0-0.3c-0.1-0.1-0.3-0.1-0.4,0.1c-0.1,0.1-0.1,0.3,0,0.3
		C31.8,108.4,31.9,108.4,31.9,108.4z"/>
	<path class="st1" d="M11.4,51.6C11.4,51.6,11.4,51.6,11.4,51.6c0.2,0,0.3-0.1,0.3-0.2c0-0.1-0.1-0.3-0.2-0.3c-0.1,0-0.3,0-0.3,0.2
		C11.1,51.5,11.2,51.6,11.4,51.6z"/>
	<path class="st1" d="M10.9,53.6C11,53.6,11,53.6,10.9,53.6c0.2,0,0.3-0.1,0.3-0.2c0-0.1-0.1-0.3-0.2-0.3c-0.1,0-0.3,0.1-0.3,0.2
		C10.7,53.4,10.8,53.6,10.9,53.6z"/>
	<path class="st1" d="M10.3,57.5C10.3,57.5,10.4,57.5,10.3,57.5c0.1,0,0.3-0.1,0.3-0.2c0-0.1-0.1-0.3-0.2-0.3
		c-0.1,0-0.3,0.1-0.3,0.2C10.1,57.4,10.2,57.5,10.3,57.5z"/>
	<path class="st1" d="M33.5,109.6c0.1,0,0.2,0,0.2-0.1c0.1-0.1,0-0.3-0.1-0.3c-0.1-0.1-0.3-0.1-0.3,0.1c-0.1,0.1,0,0.3,0.1,0.3
		C33.5,109.6,33.5,109.6,33.5,109.6z"/>
	<path class="st1" d="M10.6,55.6C10.6,55.6,10.6,55.6,10.6,55.6c0.2,0,0.3-0.1,0.3-0.2c0-0.1-0.1-0.3-0.2-0.3s-0.3,0.1-0.3,0.2
		C10.4,55.4,10.5,55.5,10.6,55.6z"/>
	<path class="st1" d="M11.9,49.7C11.9,49.7,11.9,49.7,11.9,49.7c0.2,0,0.3-0.1,0.3-0.2c0-0.1,0-0.3-0.2-0.3c-0.1,0-0.3,0-0.3,0.2
		C11.6,49.5,11.7,49.7,11.9,49.7z"/>
	<path class="st1" d="M35.2,110.7c0.1,0,0.2,0,0.2-0.1c0.1-0.1,0-0.3-0.1-0.3c-0.1-0.1-0.3,0-0.3,0.1c-0.1,0.1,0,0.3,0.1,0.3
		C35.1,110.7,35.2,110.7,35.2,110.7z"/>
	<path class="st1" d="M45.9,116.1C45.9,116.1,45.9,116.1,45.9,116.1C45.9,116.1,45.9,116.1,45.9,116.1c0.2,0,0.3,0,0.3-0.1
		c0-0.1,0-0.3-0.2-0.3c-0.1-0.1-0.3,0-0.3,0.1C45.7,115.9,45.7,116,45.9,116.1z"/>
	<path class="st1" d="M44.1,115.3c0.1,0,0.2-0.1,0.2-0.2c0-0.1,0-0.3-0.1-0.3s-0.3,0-0.3,0.1C43.8,115.1,43.9,115.3,44.1,115.3
		C44,115.3,44,115.3,44.1,115.3z"/>
	<path class="st1" d="M47.8,116.7C47.8,116.7,47.8,116.7,47.8,116.7c0.2,0,0.3-0.1,0.3-0.2c0-0.1,0-0.3-0.2-0.3s-0.3,0-0.3,0.2
		C47.6,116.5,47.6,116.7,47.8,116.7z"/>
	<path class="st1" d="M42.2,114.6c0.1,0,0.2-0.1,0.2-0.2c0-0.1,0-0.3-0.1-0.3c-0.1-0.1-0.3,0-0.3,0.1c-0.1,0.1,0,0.3,0.1,0.3
		C42.2,114.5,42.2,114.6,42.2,114.6z"/>
	<path class="st1" d="M36.9,111.8c0.1,0,0.2,0,0.2-0.1c0.1-0.1,0-0.3-0.1-0.3c-0.1-0.1-0.3,0-0.3,0.1s0,0.3,0.1,0.3
		C36.8,111.8,36.9,111.8,36.9,111.8z"/>
	<path class="st1" d="M38.7,112.8c0.1,0,0.2-0.1,0.2-0.1c0.1-0.1,0-0.3-0.1-0.3s-0.3,0-0.3,0.1c-0.1,0.1,0,0.3,0.1,0.3
		C38.6,112.8,38.6,112.8,38.7,112.8z"/>
	<path class="st1" d="M40.4,113.7c0.1,0,0.2-0.1,0.2-0.1c0.1-0.1,0-0.3-0.1-0.3s-0.3,0-0.3,0.1c-0.1,0.1,0,0.3,0.1,0.3
		C40.3,113.7,40.4,113.7,40.4,113.7z"/>
	<path class="st1" d="M11.4,76.9c-0.1,0-0.2,0.2-0.2,0.3c0,0.1,0.1,0.2,0.2,0.2c0,0,0,0,0.1,0c0.1,0,0.2-0.2,0.2-0.3
		C11.7,76.9,11.5,76.8,11.4,76.9z"/>
	<path class="st1" d="M12.5,80.7c-0.1,0-0.2,0.2-0.2,0.3c0,0.1,0.1,0.2,0.2,0.2c0,0,0.1,0,0.1,0c0.1,0,0.2-0.2,0.2-0.3
		S12.6,80.7,12.5,80.7z"/>
	<path class="st1" d="M10,61.5C10,61.5,10,61.5,10,61.5c0.2,0,0.3-0.1,0.3-0.2c0-0.1-0.1-0.3-0.2-0.3c-0.1,0-0.3,0.1-0.3,0.2
		C9.8,61.4,9.9,61.5,10,61.5z"/>
	<path class="st1" d="M11.9,78.8c-0.1,0-0.2,0.2-0.2,0.3c0,0.1,0.1,0.2,0.2,0.2c0,0,0.1,0,0.1,0c0.1,0,0.2-0.2,0.2-0.3
		C12.2,78.9,12,78.8,11.9,78.8z"/>
	<path class="st1" d="M13.1,45.9c0.1,0,0.2-0.1,0.2-0.2c0-0.1,0-0.3-0.1-0.3c-0.1,0-0.3,0-0.3,0.2C12.8,45.7,12.9,45.8,13.1,45.9
		C13.1,45.9,13.1,45.9,13.1,45.9z"/>
	<path class="st1" d="M12.5,47.8c0.1,0,0.2-0.1,0.2-0.2c0-0.1,0-0.3-0.2-0.3s-0.3,0-0.3,0.2S12.3,47.7,12.5,47.8
		C12.4,47.8,12.5,47.8,12.5,47.8z"/>
	<path class="st1" d="M13.1,82.6c-0.1,0.1-0.2,0.2-0.1,0.3c0,0.1,0.1,0.2,0.2,0.2c0,0,0.1,0,0.1,0c0.1-0.1,0.2-0.2,0.1-0.3
		C13.4,82.7,13.2,82.6,13.1,82.6z"/>
	<path class="st1" d="M13.8,84.5c-0.1,0.1-0.2,0.2-0.1,0.3c0,0.1,0.1,0.2,0.2,0.2c0,0,0.1,0,0.1,0c0.1-0.1,0.2-0.2,0.1-0.3
		C14.1,84.5,13.9,84.4,13.8,84.5z"/>
	<path class="st1" d="M13.8,44c0.1,0,0.2-0.1,0.2-0.2c0.1-0.1,0-0.3-0.1-0.3c-0.1,0-0.3,0-0.3,0.1C13.5,43.8,13.6,43.9,13.8,44
		C13.8,44,13.8,44,13.8,44z"/>
	<path class="st1" d="M14.6,42.2c0.1,0,0.2-0.1,0.2-0.2c0.1-0.1,0-0.3-0.1-0.3s-0.3,0-0.3,0.1c-0.1,0.1,0,0.3,0.1,0.3
		C14.5,42.2,14.6,42.2,14.6,42.2z"/>
	<path class="st1" d="M10,67.5c0.1,0,0.2-0.1,0.2-0.3c0-0.1-0.1-0.2-0.3-0.2c-0.1,0-0.2,0.1-0.2,0.3C9.8,67.4,9.9,67.5,10,67.5
		L10,67.5z"/>
	<path class="st1" d="M9.9,65.5c0.1,0,0.2-0.1,0.2-0.2c0-0.1-0.1-0.2-0.2-0.2s-0.2,0.1-0.2,0.3C9.7,65.4,9.8,65.5,9.9,65.5L9.9,65.5
		z"/>
	<path class="st1" d="M11.3,75.1c0-0.1-0.2-0.2-0.3-0.2c-0.1,0-0.2,0.2-0.2,0.3c0,0.1,0.1,0.2,0.2,0.2c0,0,0,0,0,0
		C11.2,75.4,11.3,75.3,11.3,75.1z"/>
	<path class="st1" d="M9.9,63.5c0.1,0,0.2-0.1,0.2-0.2c0-0.1-0.1-0.3-0.2-0.3s-0.2,0.1-0.2,0.2C9.7,63.4,9.8,63.5,9.9,63.5z"/>
	<path class="st1" d="M10.9,73.2c0-0.1-0.1-0.2-0.3-0.2c-0.1,0-0.2,0.2-0.2,0.3c0,0.1,0.1,0.2,0.2,0.2c0,0,0,0,0,0
		C10.9,73.4,10.9,73.3,10.9,73.2z"/>
	<path class="st1" d="M10.6,71.2L10.6,71.2c0-0.1-0.1-0.2-0.3-0.2c-0.1,0-0.2,0.1-0.2,0.3c0,0.1,0.1,0.2,0.2,0.2c0,0,0,0,0,0
		C10.6,71.5,10.6,71.3,10.6,71.2z"/>
	<path class="st1" d="M10.2,69.5c0.1,0,0.2-0.1,0.2-0.3c0-0.1-0.1-0.2-0.3-0.2c-0.1,0-0.2,0.1-0.2,0.3C9.9,69.4,10,69.5,10.2,69.5
		C10.2,69.5,10.2,69.5,10.2,69.5z"/>
	<path class="st1" d="M27.1,23.9c-0.1,0.1-0.1,0.2,0,0.4c0,0,0.1,0.1,0.2,0.1c0.1,0,0.1,0,0.2-0.1c0.1-0.1,0.1-0.3,0-0.4
		S27.2,23.8,27.1,23.9z"/>
	<path class="st1" d="M51.4,10.5c-0.1,0-0.2,0.2-0.2,0.3c0,0.1,0.1,0.2,0.2,0.2c0,0,0,0,0.1,0c0.1,0,0.2-0.2,0.2-0.3
		C51.7,10.6,51.5,10.5,51.4,10.5z"/>
	<path class="st1" d="M63.5,119.4C63.5,119.4,63.5,119.4,63.5,119.4c0.1,0,0.3-0.1,0.3-0.2c0-0.1-0.1-0.3-0.2-0.3
		c-0.1,0-0.2,0.1-0.3,0.2C63.3,119.3,63.4,119.4,63.5,119.4z"/>
	<path class="st1" d="M57.5,118.9C57.5,118.9,57.5,118.9,57.5,118.9c0.1,0,0.3-0.1,0.3-0.2c0-0.1-0.1-0.3-0.2-0.3
		c-0.1,0-0.3,0.1-0.3,0.2C57.3,118.8,57.4,118.9,57.5,118.9z"/>
	<path class="st1" d="M61.5,119.3C61.5,119.3,61.5,119.3,61.5,119.3c0.2,0,0.3-0.1,0.3-0.2c0-0.1-0.1-0.3-0.2-0.3
		c-0.1,0-0.3,0.1-0.3,0.2C61.3,119.2,61.4,119.3,61.5,119.3z"/>
	<path class="st1" d="M55.5,118.7C55.6,118.7,55.6,118.7,55.5,118.7c0.2,0,0.3-0.1,0.3-0.2c0-0.1-0.1-0.3-0.2-0.3
		c-0.1,0-0.3,0.1-0.3,0.2S55.4,118.6,55.5,118.7z"/>
	<path class="st1" d="M57.3,9.4c-0.1,0-0.2,0.1-0.2,0.3c0,0.1,0.1,0.2,0.2,0.2c0,0,0,0,0,0c0.1,0,0.2-0.1,0.2-0.3
		C57.6,9.5,57.5,9.4,57.3,9.4z"/>
	<path class="st1" d="M53.4,10.1c-0.1,0-0.2,0.2-0.2,0.3c0,0.1,0.1,0.2,0.2,0.2c0,0,0,0,0,0c0.1,0,0.2-0.2,0.2-0.3
		C53.6,10.1,53.5,10.1,53.4,10.1z"/>
	<path class="st1" d="M59.5,119.2C59.5,119.2,59.5,119.2,59.5,119.2c0.1,0,0.3-0.1,0.3-0.2c0-0.1-0.1-0.3-0.2-0.3
		c-0.1,0-0.3,0.1-0.3,0.2C59.3,119.1,59.4,119.2,59.5,119.2z"/>
	<path class="st1" d="M55.3,9.7c-0.1,0-0.2,0.1-0.2,0.3c0,0.1,0.1,0.2,0.2,0.2c0,0,0,0,0,0c0.1,0,0.2-0.1,0.2-0.3
		C55.6,9.8,55.5,9.7,55.3,9.7z"/>
	<path class="st1" d="M69.3,9c-0.1,0-0.2,0.1-0.3,0.2c0,0.1,0.1,0.3,0.2,0.3c0,0,0,0,0,0c0.1,0,0.2-0.1,0.2-0.2
		C69.6,9.2,69.5,9,69.3,9z"/>
	<path class="st1" d="M67.3,8.9c-0.1,0-0.2,0.1-0.3,0.2c0,0.1,0.1,0.2,0.2,0.3h0c0.1,0,0.2-0.1,0.2-0.2C67.6,9,67.5,8.9,67.3,8.9z"
		/>
	<path class="st1" d="M47.5,11.7c-0.1,0.1-0.2,0.2-0.2,0.3c0,0.1,0.1,0.2,0.2,0.2c0,0,0,0,0.1,0c0.1-0.1,0.2-0.2,0.2-0.3
		C47.8,11.7,47.7,11.6,47.5,11.7z"/>
	<path class="st1" d="M45.7,12.3c-0.1,0.1-0.2,0.2-0.2,0.3c0,0.1,0.1,0.2,0.2,0.2c0,0,0,0,0.1,0c0.1-0.1,0.2-0.2,0.2-0.3
		C45.9,12.4,45.8,12.3,45.7,12.3z"/>
	<path class="st1" d="M53.6,118.3C53.6,118.3,53.6,118.3,53.6,118.3c0.2,0,0.3-0.1,0.3-0.2c0-0.1-0.1-0.3-0.2-0.3
		c-0.1,0-0.3,0.1-0.3,0.2C53.3,118.1,53.4,118.2,53.6,118.3z"/>
	<path class="st1" d="M59.3,9.1c-0.1,0-0.2,0.1-0.2,0.3c0,0.1,0.1,0.2,0.2,0.2c0,0,0,0,0,0c0.1,0,0.2-0.1,0.2-0.3
		C59.6,9.2,59.4,9.1,59.3,9.1z"/>
	<path class="st1" d="M49.5,11.1C49.5,11.1,49.5,11.1,49.5,11.1c-0.1,0-0.2,0.2-0.2,0.3c0,0.1,0.1,0.2,0.2,0.2c0,0,0,0,0.1,0
		c0.1,0,0.2-0.2,0.2-0.3C49.7,11.1,49.6,11,49.5,11.1z"/>
	<path class="st1" d="M65.3,8.9C65.3,8.9,65.3,8.9,65.3,8.9c-0.1,0-0.3,0.1-0.3,0.2s0.1,0.2,0.2,0.2c0,0,0,0,0,0
		c0.1,0,0.2-0.1,0.2-0.2C65.6,9,65.4,8.9,65.3,8.9z"/>
	<path class="st1" d="M63.3,8.9c-0.1,0-0.2,0.1-0.2,0.2c0,0.1,0.1,0.2,0.2,0.2c0,0,0,0,0,0c0.1,0,0.2-0.1,0.2-0.2
		C63.6,9,63.4,8.9,63.3,8.9z"/>
	<path class="st1" d="M69.9,21.6C69.9,21.6,69.9,21.6,69.9,21.6C69.9,21.6,69.9,21.6,69.9,21.6C69.9,21.5,69.9,21.5,69.9,21.6
		C69.9,21.5,69.9,21.5,69.9,21.6z"/>
	<circle class="st1" cx="74.8" cy="22.4" r="0"/>
	<path class="st1" d="M79.5,23.8C79.5,23.9,79.5,23.9,79.5,23.8c0.1,0.1,0.1,0,0.1,0C79.6,23.8,79.6,23.8,79.5,23.8
		C79.5,23.8,79.5,23.8,79.5,23.8z"/>
	<path class="st1" d="M84.1,25.9C84.2,25.9,84.2,25.8,84.1,25.9c0.1-0.1,0-0.2,0-0.2C84.1,25.7,84,25.8,84.1,25.9
		C84,25.9,84.1,25.9,84.1,25.9z"/>
	<path class="st1" d="M88.4,28.2c-0.1,0-0.1,0-0.1,0.1c0,0.1,0.1,0.1,0.1,0.1s0.1,0,0.1-0.1C88.5,28.2,88.5,28.2,88.4,28.2z"/>
	<path class="st1" d="M92.4,31.4c0.1,0,0.1-0.1,0.1-0.1s-0.1-0.1-0.1-0.1s-0.1,0.1-0.1,0.1S92.3,31.4,92.4,31.4z"/>
	<circle class="st1" cx="96" cy="34.7" r="0.2"/>
	<path class="st1" d="M99.2,38.6c0.1,0,0.2-0.1,0.2-0.2s-0.1-0.2-0.2-0.2S99,38.3,99,38.4C99,38.5,99.1,38.6,99.2,38.6z"/>
	<path class="st1" d="M101.9,42.8c0.1,0,0.2-0.1,0.2-0.2s-0.1-0.2-0.2-0.2s-0.2,0.1-0.2,0.2S101.8,42.8,101.9,42.8z"/>
	<path class="st1" d="M104.2,47.3c0.2,0,0.3-0.1,0.3-0.3c0-0.2-0.1-0.3-0.3-0.3s-0.3,0.1-0.3,0.3C103.8,47.2,104,47.3,104.2,47.3z"
		/>
	<path class="st1" d="M105.8,52c0.2,0,0.4-0.2,0.4-0.4s-0.2-0.4-0.4-0.4s-0.4,0.2-0.4,0.4S105.7,52,105.8,52z"/>
	<path class="st1" d="M107,56.9c0.2,0,0.4-0.2,0.4-0.4s-0.2-0.4-0.4-0.4c-0.2,0-0.4,0.2-0.4,0.4S106.8,56.9,107,56.9z"/>
	<path class="st1" d="M107.1,61.4c0,0.3,0.2,0.5,0.5,0.5s0.5-0.2,0.5-0.5c0-0.3-0.2-0.5-0.5-0.5C107.3,61,107.1,61.2,107.1,61.4z"/>
	<circle class="st1" cx="107.6" cy="66.4" r="0.5"/>
	<path class="st1" d="M107,71.9c0.3,0,0.6-0.3,0.6-0.6s-0.3-0.6-0.6-0.6s-0.6,0.3-0.6,0.6S106.7,71.9,107,71.9z"/>
	<path class="st1" d="M105.9,76.8c0.3,0,0.6-0.3,0.6-0.6s-0.3-0.6-0.6-0.6s-0.6,0.3-0.6,0.6S105.5,76.8,105.9,76.8z"/>
	<path class="st1" d="M104.2,81.5c0.4,0,0.7-0.3,0.7-0.7c0-0.4-0.3-0.7-0.7-0.7c-0.4,0-0.7,0.3-0.7,0.7
		C103.5,81.2,103.8,81.5,104.2,81.5z"/>
	<path class="st1" d="M101.2,85.2c0,0.4,0.3,0.7,0.8,0.7c0.4,0,0.7-0.3,0.7-0.7s-0.3-0.7-0.7-0.7C101.5,84.5,101.2,84.8,101.2,85.2z
		"/>
	<ellipse class="st1" cx="99.2" cy="89.4" rx="0.8" ry="0.8"/>
	<path class="st1" d="M96,92.3c-0.5,0-0.8,0.4-0.8,0.8S95.6,94,96,94s0.8-0.4,0.8-0.8S96.5,92.3,96,92.3z"/>
	<path class="st1" d="M92.4,95.7c-0.5,0-0.9,0.4-0.9,0.9s0.4,0.9,0.9,0.9s0.9-0.4,0.9-0.9S92.9,95.7,92.4,95.7z"/>
	<path class="st1" d="M88.5,98.7c-0.5,0-0.9,0.4-0.9,0.9s0.4,0.9,0.9,0.9s0.9-0.4,0.9-0.9S88.9,98.7,88.5,98.7z"/>
	<path class="st1" d="M84.2,101.1c-0.5,0-0.9,0.4-0.9,0.9s0.4,0.9,0.9,0.9s0.9-0.4,0.9-0.9C85.1,101.5,84.7,101.1,84.2,101.1z"/>
	<path class="st1" d="M79.6,103.1c-0.5,0-0.9,0.4-0.9,0.9c0,0.5,0.4,0.9,0.9,0.9s0.9-0.4,0.9-0.9C80.6,103.5,80.1,103.1,79.6,103.1z
		"/>
	<path class="st1" d="M74.9,104.5c-0.5,0-1,0.4-1,1s0.4,1,1,1s1-0.4,1-1S75.4,104.5,74.9,104.5z"/>
	<path class="st1" d="M70,105.3c-0.5,0-1,0.4-1,1s0.4,1,1,1s1-0.4,1-1C71,105.8,70.5,105.3,70,105.3z"/>
	<path class="st1" d="M60.1,107.3c0.5,0,1-0.4,1-1s-0.4-1-1-1s-1,0.4-1,1S59.5,107.3,60.1,107.3z"/>
	<path class="st1" d="M55.2,106.4c0.5,0,1-0.4,1-1s-0.4-1-1-1s-1,0.4-1,1S54.7,106.4,55.2,106.4z"/>
	<circle class="st1" cx="50.4" cy="104" r="0.9"/>
	<path class="st1" d="M45.9,103c0.5,0,0.9-0.4,0.9-0.9c0-0.5-0.4-0.9-0.9-0.9s-0.9,0.4-0.9,0.9S45.4,103,45.9,103z"/>
	<path class="st1" d="M41.6,100.5c0.5,0,0.9-0.4,0.9-0.9s-0.4-0.9-0.9-0.9c-0.5,0-0.9,0.4-0.9,0.9S41.1,100.5,41.6,100.5z"/>
	<path class="st1" d="M37.6,97.5c0.5,0,0.9-0.4,0.9-0.9s-0.4-0.9-0.9-0.9s-0.9,0.4-0.9,0.9S37.1,97.5,37.6,97.5z"/>
	<ellipse class="st1" cx="34" cy="93.3" rx="0.8" ry="0.8"/>
	<ellipse class="st1" cx="30.8" cy="89.5" rx="0.8" ry="0.8"/>
	<path class="st1" d="M27.3,85.3c0,0.4,0.3,0.8,0.8,0.8s0.8-0.3,0.8-0.8s-0.3-0.8-0.8-0.8S27.3,84.9,27.3,85.3z"/>
	<path class="st1" d="M25.8,80.2c-0.4,0-0.7,0.3-0.7,0.7s0.3,0.7,0.7,0.7c0.4,0,0.7-0.3,0.7-0.7S26.2,80.2,25.8,80.2z"/>
	<path class="st1" d="M24.1,75.6c-0.4,0-0.6,0.3-0.6,0.6s0.3,0.6,0.6,0.6c0.4,0,0.6-0.3,0.6-0.6C24.8,75.9,24.5,75.6,24.1,75.6z"/>
	<path class="st1" d="M23,70.8c-0.3,0-0.6,0.3-0.6,0.6c0,0.3,0.3,0.6,0.6,0.6s0.6-0.3,0.6-0.6C23.6,71.1,23.3,70.8,23,70.8z"/>
	<path class="st1" d="M22.9,66.5c0-0.3-0.2-0.5-0.5-0.5s-0.5,0.2-0.5,0.5s0.2,0.5,0.5,0.5S22.9,66.8,22.9,66.5z"/>
	<path class="st1" d="M22.4,62c0.3,0,0.5-0.2,0.5-0.5s-0.2-0.5-0.5-0.5s-0.5,0.2-0.5,0.5S22.1,62,22.4,62z"/>
	<circle class="st1" cx="23" cy="56.6" r="0.4"/>
	<path class="st1" d="M24.1,52.1c0.2,0,0.4-0.2,0.4-0.4s-0.2-0.4-0.4-0.4s-0.4,0.2-0.4,0.4C23.7,52,23.9,52.1,24.1,52.1z"/>
	<path class="st1" d="M25.8,47.4c0.2,0,0.3-0.1,0.3-0.3c0-0.2-0.1-0.3-0.3-0.3s-0.3,0.1-0.3,0.3C25.5,47.3,25.6,47.4,25.8,47.4z"/>
	<path class="st1" d="M28,42.9c0.1,0,0.2-0.1,0.2-0.2s-0.1-0.2-0.2-0.2s-0.2,0.1-0.2,0.2S27.8,42.9,28,42.9z"/>
	<path class="st1" d="M30.7,38.3c-0.1,0-0.2,0.1-0.2,0.2s0.1,0.2,0.2,0.2s0.2-0.1,0.2-0.2C30.9,38.4,30.8,38.3,30.7,38.3z"/>
	<path class="st1" d="M33.9,34.9c0.1,0,0.2-0.1,0.2-0.2s-0.1-0.2-0.2-0.2s-0.2,0.1-0.2,0.2S33.8,34.9,33.9,34.9z"/>
	<path class="st1" d="M37.5,31.5c0.1,0,0.1-0.1,0.1-0.1s-0.1-0.1-0.1-0.1s-0.1,0.1-0.1,0.1C37.3,31.4,37.4,31.5,37.5,31.5z"/>
	<circle class="st1" cx="41.5" cy="28.4" r="0.1"/>
	<path class="st1" d="M45.7,25.9C45.8,25.9,45.8,25.9,45.7,25.9c0.1-0.1,0-0.2,0-0.2S45.6,25.8,45.7,25.9
		C45.6,25.9,45.7,25.9,45.7,25.9z"/>
	<path class="st1" d="M50.3,23.9C50.3,23.8,50.3,23.8,50.3,23.9c-0.1-0.1-0.1,0-0.1,0C50.2,23.9,50.2,23.9,50.3,23.9
		C50.3,23.9,50.3,23.9,50.3,23.9z"/>
	<path class="st1" d="M55.1,22.4C55.1,22.4,55,22.4,55.1,22.4C55,22.4,55,22.4,55.1,22.4C55,22.5,55,22.5,55.1,22.4
		C55,22.5,55.1,22.5,55.1,22.4z"/>
	<path class="st1" d="M59.9,21.6C59.9,21.6,59.9,21.5,59.9,21.6C59.9,21.5,59.9,21.6,59.9,21.6C59.9,21.6,59.9,21.6,59.9,21.6
		C59.9,21.6,59.9,21.6,59.9,21.6z"/>
</g>
<g id="Back">
	<path class="st2" d="M130.7,68.2c-2.3,0-4.2-1.9-4.2-4.2c0-2.3,1.9-4.2,4.2-4.2c0,0,0.1,0,0.1,0c-0.7-10.7-3.9-20.7-9.1-29.4
		l-5.2,3.6C106.2,16.3,86.9,4.3,64.9,4.3C32,4.3,5.2,31.1,5.2,64c0,22.1,12.1,41.4,30,51.7l-3.7,4.6c8.7,5.2,18.7,8.4,29.3,9.1
		c0,0,0-0.1,0-0.1c0-2.3,1.9-4.2,4.2-4.2c2.3,0,4.2,1.9,4.2,4.2c0,0,0,0.1,0,0.1c10.7-0.7,20.7-3.9,29.4-9.1l-3.3-4.8
		c9-5.3,16.5-12.9,21.6-21.9l4.9,4C126.9,88.9,130.1,78.9,130.7,68.2C130.8,68.2,130.7,68.2,130.7,68.2z M112.5,64
		c0,12.7-4.9,24.6-13.9,33.6l-0.3-0.3c-8.8,8.8-20.5,13.7-33,13.8v-3.5c0.5-0.1,0.8-0.5,0.8-1s-0.3-0.9-0.8-1v-2.3
		c20.1-0.2,36.4-16.5,36.4-36.7c0-0.9,0-1.7-0.1-2.6c0-0.1-0.1-0.2-0.3-0.2c-0.1,0-0.2,0.1-0.2,0.3c0.1,0.8,0.1,1.7,0.1,2.6
		c0,9.2-3.5,17.7-9.2,24.1l-5.1-5.2c2-2.2,3.7-4.8,5-7.6c0,0,0,0,0,0c0.1-0.1,0.1-0.1,0.1-0.2c1-2.1,1.7-4.3,2.1-6.7
		c2.7-0.3,4.7-2.6,4.7-5.4c0-2.7-2-5-4.7-5.4V47.9c0-0.1,0-0.2-0.1-0.2l0,0l0,0l-6.5-6.3c0,0,0,0,0,0l-2.4-2.4
		c0.1-0.2,0.2-0.5,0.2-0.7c0-0.7-0.6-1.3-1.3-1.3s-1.3,0.6-1.3,1.3s0.6,1.3,1.3,1.3c0.3,0,0.5-0.1,0.8-0.3l2.2,2.2l-2.4,2.4H68.8
		c-2.3-4.2-3.6-8.3-3.6-11.9v-4.2c1-0.1,1.8-1,1.8-2s-0.8-1.9-1.8-2V17c12.5,0.1,24.2,4.9,33,13.8l1.1-1.1l-0.7,0.7
		C107.6,39.4,112.5,51.3,112.5,64z M36.3,71.1C36.3,71.1,36.3,71.1,36.3,71.1c2.1,0,3.8-1.1,4.8-2.7c1.3,0.6,2.5,1.3,3.8,2.1v0.1
		l-6.7,6.7C37.3,75.3,36.7,73.3,36.3,71.1z M43.1,42.6l1.7,1.7v16.6c-1.3,0.8-2.5,1.5-3.8,2.1c-0.9-1.6-2.7-2.7-4.7-2.7
		c0,0-0.1,0-0.2,0V49.5L43.1,42.6z M65,34.9c0.5,2.9,1.6,5.9,3.3,9h-6.6C63.4,40.9,64.5,37.8,65,34.9z M68.8,45
		c1.9,3.2,4.4,6.4,7.4,9.4c2.5,2.5,5.1,4.6,7.7,6.3v9.9c-2.6,1.7-5.2,3.9-7.7,6.3c-2,2-3.7,4.1-5.3,6.2H59c-1.5-2.1-3.3-4.2-5.3-6.2
		c-2.5-2.5-5.2-4.7-7.9-6.4v-9.7c2.7-1.8,5.3-3.9,7.9-6.4c3-3,5.5-6.2,7.4-9.4C61.1,45,68.8,45,68.8,45z M87.9,42.4l5.7,5.5v12.3
		c-0.1,0-0.2,0-0.3,0c-1.9,0-3.7,1-4.6,2.6c-1.2-0.6-2.5-1.3-3.7-2V44.3l2.4-2.4L87.9,42.4C87.9,42.4,87.9,42.4,87.9,42.4z
		 M59.5,94.2c-2.9-0.5-5.6-1.5-8.1-2.8l7.3-7.3h0.3c1.3,1.9,2.4,3.8,3.2,5.6C60.7,90.6,59.6,92.3,59.5,94.2z M41.2,63.4
		c1.2-0.6,2.4-1.2,3.6-1.9v8.4c-1.2-0.7-2.4-1.4-3.6-1.9c0.3-0.7,0.5-1.5,0.5-2.3C41.8,64.9,41.6,64.1,41.2,63.4z M45.8,71.1
		c2.2,1.5,4.4,3.2,6.5,5.2l-6.5,6.5V71.1z M52.7,76.6c0.2,0.2,0.5,0.4,0.7,0.7c1.9,1.9,3.5,3.8,5,5.8H46.2L52.7,76.6z M85,61.4
		c1.2,0.7,2.3,1.3,3.5,1.9c-0.4,0.7-0.6,1.6-0.6,2.4c0,0.8,0.2,1.7,0.6,2.4c-1.1,0.6-2.3,1.2-3.4,1.9L85,61.4L85,61.4z M84,82.8
		l-6.4-6.4c2.1-2,4.2-3.7,6.4-5.2V82.8z M77.2,76.7l6.4,6.4h-12c1.4-2,3.1-3.9,5-5.8C76.8,77.1,77,76.9,77.2,76.7z M67.7,89.7
		c0.9-1.9,2-3.7,3.2-5.6h0.2l7.3,7.3c-2.5,1.3-5.2,2.2-8,2.8C70.3,92.3,69.2,90.6,67.7,89.7z M65,96.4c-0.3-1.9-0.9-3.9-1.8-6
		c0.6-0.2,1.2-0.4,1.8-0.4s1.3,0.2,1.8,0.4C65.9,92.4,65.3,94.5,65,96.4z M67.2,90.7c1.3,0.8,2.2,2.2,2.2,3.8c0,2.4-1.9,4.3-4.2,4.4
		C65.3,96.3,66,93.5,67.2,90.7z M67.2,89.5C66.5,89.2,65.8,89,65,89c-0.8,0-1.5,0.2-2.2,0.5c-0.8-1.8-1.9-3.6-3.1-5.4h10.7
		C69.1,85.9,68.1,87.7,67.2,89.5z M62.7,90.7c1.2,2.9,1.9,5.7,2,8.2c-2.3-0.1-4.2-2.1-4.2-4.4C60.5,92.8,61.4,91.4,62.7,90.7z
		 M65.2,99.9c2.8-0.1,5.1-2.4,5.2-5.2c6.3-1.2,11.8-4.3,16-8.8l5.2,5.2c-6.6,7.2-15.9,11.7-26.4,11.7V99.9z M78.9,91.2l-7-7H85V71.5
		l6.3,6.3C88.7,83.5,84.3,88.2,78.9,91.2z M91.6,77.4L85,70.8v-0.2c1.2-0.8,2.4-1.4,3.7-2c1,1.6,2.7,2.6,4.7,2.6c0.1,0,0.1,0,0.2,0
		C93.1,73.3,92.4,75.4,91.6,77.4z M88.9,65.7c0-0.7,0.2-1.4,0.5-2c2.2,1,4.3,1.6,6.3,2c-2.1,0.3-4.2,1-6.4,2
		C89,67.1,88.9,66.4,88.9,65.7z M93.3,70.2c-1.6,0-3-0.8-3.8-2.1c2.8-1.3,5.6-2,8.2-2.1C97.6,68.3,95.7,70.2,93.3,70.2z M89.6,63.3
		c0.8-1.2,2.2-2,3.7-2c2.3,0,4.2,1.8,4.4,4.1C95.2,65.2,92.4,64.5,89.6,63.3z M84,60.1c-2.5-1.7-5-3.7-7.4-6.1
		c-0.2-0.2-0.5-0.5-0.7-0.7c0,0,0,0,0.1,0l8-8V60.1z M75.6,53C75.6,53,75.6,53,75.6,53c-2.5-2.6-4.6-5.3-6.2-8h14.2L75.6,53z
		 M54.3,53l-8.1-8.1h14.3C58.9,47.7,56.8,50.4,54.3,53z M53.9,53.4c-0.2,0.2-0.4,0.4-0.6,0.6c-2.4,2.4-5,4.5-7.5,6.2V45.3L53.9,53.4
		z M40.8,65.7c0,0.7-0.2,1.3-0.4,1.9c-2.1-0.9-4.1-1.5-6.1-1.9c2-0.3,4-0.9,6.1-1.9C40.6,64.4,40.8,65,40.8,65.7z M36.3,61.2
		c1.6,0,3,0.9,3.8,2.2c-2.9,1.2-5.7,1.9-8.2,2C32,63.1,33.9,61.2,36.3,61.2z M40.1,68c-0.8,1.3-2.2,2.2-3.8,2.2
		c-2.4,0-4.3-1.8-4.4-4.2C34.5,66,37.2,66.7,40.1,68z M44.8,71.3v12.8H58l-7.1,7.1c-5.5-3-9.9-7.7-12.5-13.4L44.8,71.3z M43.3,85.9
		c4.2,4.5,9.9,7.6,16.2,8.8c0.1,2.8,2.4,5,5.2,5.2v2.9c-10.5-0.1-19.9-4.6-26.5-11.8L43.3,85.9z M84.9,38.2c0,0.5-0.4,0.8-0.8,0.8
		s-0.8-0.4-0.8-0.8c0-0.5,0.4-0.8,0.8-0.8C84.5,37.4,84.9,37.8,84.9,38.2z M64.7,23.8c-1,0.1-1.8,1-1.8,2c0,1,0.8,1.9,1.8,2V32
		c0,3.7-1.3,7.8-3.6,11.9H45.2l-1.7-1.7l2.9-2.9c0.2,0.2,0.5,0.3,0.8,0.3c0.7,0,1.3-0.6,1.3-1.3s-0.6-1.3-1.3-1.3s-1.3,0.6-1.3,1.3
		c0,0.3,0.1,0.5,0.2,0.7L42.9,42l-7.2,7.2c-0.1,0.1-0.1,0.1-0.1,0.2v10.8c-2.7,0.3-4.8,2.6-4.8,5.4c0,2.8,2.2,5.2,4.9,5.4
		c0.4,2.3,1.1,4.5,2.1,6.6c0,0.1,0,0.2,0.1,0.2c0,0,0,0,0,0c1.3,2.8,3,5.4,5.1,7.7l-5.1,5.1c-5.7-6.4-9.2-14.8-9.2-24
		c0-0.9,0-1.7,0.1-2.6c0-0.1-0.1-0.3-0.2-0.3c-0.1,0-0.3,0.1-0.3,0.2c-0.1,0.9-0.1,1.8-0.1,2.6c0,20.2,16.3,36.6,36.5,36.7v2.3
		c-0.4,0.1-0.7,0.5-0.7,0.9c0,0.4,0.3,0.8,0.7,0.9v3.6c-12.5-0.1-24.2-4.9-33-13.8l-0.4,0.3c-9-9-13.9-20.9-13.9-33.6
		s4.9-24.6,13.9-33.6l0.4,0.4c8.8-8.8,20.5-13.7,33-13.8C64.7,17,64.7,23.8,64.7,23.8z M46.2,38.2c0-0.5,0.4-0.8,0.8-0.8
		c0.5,0,0.8,0.4,0.8,0.8c0,0.5-0.4,0.8-0.8,0.8S46.2,38.7,46.2,38.2z M65.2,122.7v-8.7c13.3-0.1,25.8-5.3,35.1-14.7l-0.3-0.3
		c9.4-9.4,14.5-21.8,14.5-35s-5.2-25.7-14.5-35l0.3-0.4C90.9,19.2,78.3,14,65,14C51.6,14,39,19.2,29.6,28.7l0.3,0.3
		c-9.4,9.4-14.5,21.8-14.5,35s5.1,25.7,14.5,35l-0.4,0.3c9.4,9.4,21.9,14.6,35.1,14.7v8.7C32.4,122.7,6.2,96.4,6.2,64
		c0-32.4,26.3-58.7,58.7-58.7s58.7,26.3,58.7,58.7C123.6,96.3,97.5,122.6,65.2,122.7z"/>
</g>
<g id="Front" class="st0">
	<path class="st1" d="M65,80c7.8,0,14.1-6.3,14.1-14.1c0-7.8-6.3-14.1-14.1-14.1S50.8,58,50.8,65.8C50.8,73.6,57.2,80,65,80z
		 M65,52.7c7.2,0,13.1,5.9,13.1,13.1C78.1,73.1,72.2,79,65,79s-13.1-5.9-13.1-13.1C51.8,58.6,57.7,52.7,65,52.7z"/>
	<path class="st1" d="M65,77c-6.2,0-11.2-5.1-11.2-11.2h-1.5c0,7,5.7,12.8,12.8,12.8s12.8-5.7,12.8-12.8h-1.5C76.2,72,71.2,77,65,77
		z"/>
	<path class="st1" d="M65,76.5c5.9,0,10.7-4.8,10.7-10.7h-0.8c0,5.5-4.5,9.9-9.9,9.9s-10-4.5-10-9.9h-0.8
		C54.3,71.7,59.1,76.5,65,76.5z"/>
	<path class="st1" d="M65,75.4c5.3,0,9.6-4.3,9.6-9.6h-0.2c0,5.1-4.2,9.3-9.3,9.3s-9.3-4.2-9.3-9.3h-0.2
		C55.4,71.1,59.7,75.4,65,75.4z"/>
	<path class="st1" d="M65,59.1L58.3,70h13.3L65,59.1z M65.1,61.2l3.8,6.3l-3.8-3.8l0,0V61.2z M64.8,61.2v2.4L61,67.5L64.8,61.2z
		 M60.4,68.4l4.4-4.4v5h-4.8L60.4,68.4z M65.1,69v-5l4.4,4.4l0.3,0.6C69.9,69,65.1,69,65.1,69z"/>
</g>
</svg>
