<?xml version="1.0" encoding="utf-8"?>
<!-- Generator: Adobe Illustrator 23.0.6, SVG Export Plug-In . SVG Version: 6.00 Build 0)  -->
<svg version="1.1" id="Layer_1" xmlns="http://www.w3.org/2000/svg" xmlns:xlink="http://www.w3.org/1999/xlink" x="0px" y="0px"
	 viewBox="0 0 112 112" style="enable-background:new 0 0 112 112;" xml:space="preserve">
<style type="text/css">
	.st0{fill:#40EBEB;}
	.st1{display:none;}
	.st2{display:inline;fill:#063B5B;}
</style>
<g id="Dots">
	<path class="st0" d="M56,46.4c0.3,0,0.6-0.3,0.6-0.6s-0.3-0.6-0.6-0.6c-0.3,0-0.6,0.3-0.6,0.6S55.7,46.4,56,46.4z"/>
	<path class="st0" d="M56,43c0.2,0,0.3-0.1,0.3-0.3s-0.1-0.3-0.3-0.3s-0.3,0.1-0.3,0.3S55.8,43,56,43z"/>
	<path class="st0" d="M59.8,43.5c0.2,0,0.3,0,0.4-0.2s0-0.3-0.2-0.4s-0.3,0-0.4,0.2C59.6,43.3,59.7,43.5,59.8,43.5z"/>
	<path class="st0" d="M63.8,44.9c0.1-0.1,0-0.3-0.1-0.4s-0.3,0-0.4,0.1s0,0.3,0.1,0.4C63.5,45,63.7,45,63.8,44.9z"/>
	<path class="st0" d="M66.9,47.3c0.1-0.1,0.1-0.3,0-0.4c-0.1-0.1-0.3-0.1-0.4,0c-0.1,0.1-0.1,0.3,0,0.4
		C66.6,47.5,66.8,47.5,66.9,47.3z"/>
	<path class="st0" d="M69.3,50.5c0.1-0.1,0.2-0.3,0.1-0.4C69.3,50,69.1,49.9,69,50c-0.1,0.1-0.2,0.3-0.1,0.4
		C68.9,50.6,69.1,50.6,69.3,50.5z"/>
	<path class="st0" d="M70.7,54.2c0.2,0,0.2-0.2,0.2-0.4s-0.2-0.2-0.4-0.2s-0.2,0.2-0.2,0.4S70.5,54.2,70.7,54.2z"/>
	<path class="st0" d="M71.1,58.1c0.2,0,0.3-0.1,0.3-0.3s-0.1-0.3-0.3-0.3s-0.3,0.1-0.3,0.3S71,58.1,71.1,58.1z"/>
	<path class="st0" d="M70.6,62.1c0.2,0,0.3,0,0.4-0.2s-0.1-0.3-0.2-0.4c-0.2,0-0.3,0-0.4,0.2C70.3,61.8,70.4,62,70.6,62.1z"/>
	<path class="st0" d="M68.9,65.3c-0.1,0.1,0,0.3,0.1,0.4s0.3,0,0.4-0.1s0-0.3-0.1-0.4C69.1,65.1,68.9,65.1,68.9,65.3z"/>
	<path class="st0" d="M66.5,68.4c-0.1,0.1-0.1,0.3,0,0.4c0.1,0.1,0.3,0.1,0.4,0c0.1-0.1,0.1-0.3,0-0.4
		C66.8,68.2,66.6,68.2,66.5,68.4z"/>
	<path class="st0" d="M63.4,70.7c-0.1,0.1-0.2,0.3-0.1,0.4c0.1,0.1,0.3,0.2,0.4,0.1c0.1-0.1,0.2-0.3,0.1-0.4
		C63.7,70.7,63.5,70.7,63.4,70.7z"/>
	<path class="st0" d="M59.8,72.2c-0.2,0-0.2,0.2-0.2,0.4s0.2,0.2,0.4,0.2s0.2-0.2,0.2-0.4C60.2,72.3,60,72.2,59.8,72.2z"/>
	<path class="st0" d="M56,72.7c-0.2,0-0.3,0.1-0.3,0.3s0.1,0.3,0.3,0.3s0.3-0.1,0.3-0.3S56.1,72.7,56,72.7z"/>
	<path class="st0" d="M52.1,72.2c-0.2,0-0.3,0.1-0.4,0.2c0,0.2,0,0.3,0.2,0.4s0.3-0.1,0.4-0.2S52.3,72.2,52.1,72.2z"/>
	<path class="st0" d="M48.1,70.8c-0.1,0.1,0,0.3,0.1,0.4s0.3,0,0.4-0.1s0-0.3-0.1-0.4C48.4,70.7,48.2,70.7,48.1,70.8z"/>
	<path class="st0" d="M45,68.4c-0.1,0.1-0.1,0.3,0,0.4c0.1,0.1,0.3,0.1,0.4,0c0.1-0.1,0.1-0.3,0-0.4C45.3,68.2,45.2,68.2,45,68.4z"
		/>
	<path class="st0" d="M42.7,65.2c-0.1,0.1-0.2,0.3-0.1,0.4c0.1,0.1,0.3,0.2,0.4,0.1c0.1-0.1,0.2-0.3,0.1-0.4
		C43,65.1,42.8,65.1,42.7,65.2z"/>
	<path class="st0" d="M41.3,61.5c-0.2,0-0.2,0.2-0.2,0.4s0.2,0.2,0.4,0.2s0.2-0.2,0.2-0.4C41.6,61.5,41.4,61.5,41.3,61.5z"/>
	<path class="st0" d="M40.8,57.6c-0.2,0-0.3,0.1-0.3,0.3s0.1,0.3,0.3,0.3s0.3-0.1,0.3-0.3C41.1,57.7,41,57.6,40.8,57.6z"/>
	<path class="st0" d="M41.4,53.6c-0.2,0-0.3,0-0.4,0.2s0,0.3,0.2,0.4s0.3,0,0.4-0.2S41.6,53.7,41.4,53.6z"/>
	<path class="st0" d="M43.1,50.4c0.1-0.1,0-0.3-0.1-0.4s-0.3,0-0.4,0.1s0,0.3,0.1,0.4C42.8,50.6,43,50.6,43.1,50.4z"/>
	<path class="st0" d="M45.5,47.3c0.1-0.1,0.1-0.3,0-0.4c-0.1-0.1-0.3-0.1-0.4,0c-0.1,0.1-0.1,0.3,0,0.4
		C45.2,47.5,45.3,47.5,45.5,47.3z"/>
	<path class="st0" d="M48.5,45c0.1-0.1,0.2-0.3,0.1-0.4c-0.1-0.1-0.3-0.2-0.4-0.1c-0.1,0.1-0.2,0.3-0.1,0.4C48.2,45,48.4,45,48.5,45
		z"/>
	<path class="st0" d="M52.1,43.5c0.2,0,0.2-0.2,0.2-0.4s-0.2-0.2-0.4-0.2s-0.2,0.2-0.2,0.4C51.8,43.4,52,43.5,52.1,43.5z"/>
	<path class="st0" d="M59,46.8c0.3,0.1,0.6-0.1,0.7-0.4c0.1-0.3-0.1-0.6-0.4-0.7c-0.3-0.1-0.6,0.1-0.7,0.4
		C58.5,46.4,58.6,46.7,59,46.8z"/>
	<path class="st0" d="M61.7,47.9c0.3,0.2,0.6,0.1,0.8-0.2s0.1-0.6-0.2-0.8c-0.3-0.2-0.6-0.1-0.8,0.2S61.4,47.8,61.7,47.9z"/>
	<circle class="st0" cx="64.5" cy="49.3" r="0.6"/>
	<path class="st0" d="M66.7,52.3c0.3-0.2,0.4-0.5,0.2-0.8c-0.2-0.3-0.5-0.4-0.8-0.2c-0.3,0.2-0.4,0.5-0.2,0.8
		C66.1,52.4,66.4,52.5,66.7,52.3z"/>
	<path class="st0" d="M67.8,55.3c0.3-0.1,0.5-0.4,0.4-0.7s-0.4-0.5-0.7-0.4s-0.5,0.4-0.4,0.7C67.2,55.2,67.5,55.4,67.8,55.3z"/>
	<path class="st0" d="M62.6,62.6c0.1,0.3,0.4,0.5,0.7,0.4s0.5-0.4,0.4-0.7s-0.4-0.5-0.7-0.4C62.7,62,62.5,62.3,62.6,62.6z"/>
	<path class="st0" d="M55.8,49.9c-0.3,0.1-0.5,0.4-0.4,0.7c0.1,0.3,0.4,0.5,0.7,0.4s0.5-0.4,0.4-0.7C56.5,50,56.1,49.8,55.8,49.9z"
		/>
	<path class="st0" d="M49.1,63c0.3-0.1,0.5-0.4,0.4-0.7s-0.4-0.5-0.7-0.4s-0.5,0.4-0.4,0.7S48.8,63.1,49.1,63z"/>
	<path class="st0" d="M44.2,55.3c0.3,0.1,0.6-0.1,0.7-0.4c0.1-0.3-0.1-0.6-0.4-0.7s-0.6,0.1-0.7,0.4C43.7,54.9,43.9,55.2,44.2,55.3z
		"/>
	<path class="st0" d="M45.2,52.3c0.3,0.2,0.6,0.1,0.8-0.2s0.1-0.6-0.2-0.8c-0.3-0.2-0.6-0.1-0.8,0.2C44.9,51.8,45,52.2,45.2,52.3z"
		/>
	<path class="st0" d="M47.9,49.7c0.2-0.2,0.2-0.6,0-0.8c-0.2-0.2-0.6-0.2-0.8,0c-0.2,0.2-0.2,0.6,0,0.8C47.3,50,47.6,50,47.9,49.7z"
		/>
	<path class="st0" d="M50.2,47.9c0.3-0.2,0.4-0.5,0.2-0.8c-0.2-0.3-0.5-0.4-0.8-0.2c-0.3,0.2-0.4,0.5-0.2,0.8
		C49.6,48,50,48.1,50.2,47.9z"/>
	<path class="st0" d="M53,46.8c0.3-0.1,0.5-0.4,0.4-0.7s-0.4-0.5-0.7-0.4s-0.5,0.4-0.4,0.7C52.4,46.7,52.7,46.8,53,46.8z"/>
	<path class="st0" d="M66.4,17.1c-1.1-0.3-2.2,0.4-2.5,1.4c-0.3,1.1,0.4,2.2,1.4,2.5c1.1,0.3,2.2-0.4,2.5-1.4
		C68.1,18.5,67.5,17.4,66.4,17.1z"/>
	<path class="st0" d="M76.1,21.2c-1-0.6-2.2-0.2-2.8,0.7s-0.2,2.2,0.7,2.8s2.2,0.2,2.8-0.7C77.4,23,77.1,21.7,76.1,21.2z"/>
	<circle class="st0" cx="83" cy="29" r="2"/>
	<path class="st0" d="M46.5,21c1.1-0.3,1.7-1.4,1.4-2.5s-1.4-1.7-2.5-1.4c-1.1,0.3-1.7,1.4-1.4,2.5S45.5,21.3,46.5,21z"/>
	<path class="st0" d="M37.7,24.6c1-0.6,1.3-1.8,0.7-2.8c-0.6-1-1.8-1.3-2.8-0.7s-1.3,1.8-0.7,2.8C35.5,24.9,36.8,25.2,37.7,24.6z"/>
	<circle class="st0" cx="28.7" cy="29" r="2"/>
	<path class="st0" d="M56.5,110.9c-0.1,0-0.2,0.1-0.2,0.2c0,0.1,0.1,0.2,0.2,0.2c0.1,0,0.2-0.1,0.2-0.3
		C56.8,111.1,56.7,110.9,56.5,110.9z"/>
	<path class="st0" d="M89.5,12.5c-0.1,0.1-0.1,0.3,0.1,0.4c0,0,0.1,0.1,0.2,0.1c0.1,0,0.2,0,0.2-0.1c0.1-0.1,0.1-0.3-0.1-0.4
		C89.8,12.4,89.6,12.4,89.5,12.5z"/>
	<path class="st0" d="M94.2,95.4c-0.1,0.1-0.1,0.2,0,0.3c0.1,0.1,0.1,0.1,0.2,0.1c0.1,0,0.1,0,0.2-0.1c0.1-0.1,0.1-0.3,0-0.4
		S94.3,95.3,94.2,95.4z"/>
	<path class="st0" d="M98.2,91c-0.1,0.1-0.1,0.3,0,0.3c0.1,0,0.1,0.1,0.2,0.1c0.1,0,0.1,0,0.2-0.1c0.1-0.1,0.1-0.3,0-0.3
		C98.5,90.9,98.3,90.9,98.2,91z"/>
	<path class="st0" d="M100.6,24c-0.1,0.1-0.1,0.2-0.1,0.4c0.1,0.1,0.1,0.1,0.2,0.1c0.1,0,0.1,0,0.1,0c0.1-0.1,0.1-0.2,0.1-0.4
		S100.7,23.9,100.6,24z"/>
	<path class="st0" d="M91.1,13.8c-0.1,0.1-0.1,0.3,0,0.4c0,0,0.1,0.1,0.2,0.1c0.1,0,0.1,0,0.2-0.1c0.1-0.1,0.1-0.3,0-0.4
		C91.3,13.6,91.2,13.7,91.1,13.8z"/>
	<path class="st0" d="M101.8,25.6c-0.1,0.1-0.2,0.2-0.1,0.4c0.1,0.1,0.1,0.1,0.2,0.1c0.1,0,0.1,0,0.1,0c0.1-0.1,0.1-0.2,0.1-0.4
		C102,25.5,101.9,25.5,101.8,25.6z"/>
	<path class="st0" d="M96.9,19.3c-0.1,0.1-0.1,0.2,0,0.4c0.1,0,0.1,0.1,0.2,0.1s0.1,0,0.2-0.1c0.1-0.1,0.1-0.2,0-0.4
		C97.1,19.2,97,19.2,96.9,19.3z"/>
	<path class="st0" d="M98.2,20.8c-0.1,0.1-0.1,0.2,0,0.4c0.1,0.1,0.1,0.1,0.2,0.1c0.1,0,0.1,0,0.2-0.1c0.1-0.1,0.1-0.2,0-0.4
		C98.4,20.7,98.3,20.7,98.2,20.8z"/>
	<path class="st0" d="M102.8,27.3c-0.1,0.1-0.2,0.2-0.1,0.3c0,0.1,0.1,0.1,0.2,0.1c0.1,0,0.1,0,0.1,0c0.1-0.1,0.2-0.2,0.1-0.3
		C103.1,27.2,103,27.2,102.8,27.3z"/>
	<path class="st0" d="M99.4,22.4c-0.1,0.1-0.1,0.2,0,0.4c0.1,0.1,0.1,0.1,0.2,0.1c0.1,0,0.1,0,0.2,0c0.1-0.1,0.1-0.2,0-0.4
		C99.7,22.3,99.5,22.3,99.4,22.4z"/>
	<path class="st0" d="M96.9,92.6c-0.1,0.1-0.1,0.3,0,0.4c0,0,0.1,0.1,0.2,0.1c0.1,0,0.1,0,0.2-0.1c0.1-0.1,0.1-0.3,0-0.3
		C97.2,92.4,97,92.4,96.9,92.6z"/>
	<path class="st0" d="M111.3,55.9c0-0.1-0.1-0.2-0.2-0.2s-0.2,0.1-0.2,0.2c0,0,0,0.1,0,0.1c0,0,0,0.1,0,0.1c0,0.1,0.1,0.2,0.2,0.2
		s0.2-0.1,0.2-0.2c0,0,0-0.1,0-0.1C111.3,56,111.3,56,111.3,55.9z"/>
	<path class="st0" d="M94.1,16.4c-0.1,0.1-0.1,0.3,0,0.4c0.1,0,0.1,0.1,0.2,0.1c0.1,0,0.1,0,0.2-0.1c0.1-0.1,0.1-0.3,0-0.4
		C94.3,16.3,94.2,16.3,94.1,16.4z"/>
	<path class="st0" d="M92.6,15.1c-0.1,0.1-0.1,0.3,0,0.4c0,0.1,0.1,0.1,0.2,0.1c0.1,0,0.1,0,0.2-0.1c0.1-0.1,0.1-0.3,0-0.4
		C92.9,15,92.7,15,92.6,15.1z"/>
	<path class="st0" d="M58.5,110.9c-0.1,0-0.2,0.1-0.2,0.3c0,0.1,0.1,0.2,0.2,0.2h0c0.1,0,0.2-0.1,0.2-0.3
		C58.8,111,58.7,110.9,58.5,110.9z"/>
	<path class="st0" d="M95.6,94c-0.1,0.1-0.1,0.2,0,0.3c0,0.1,0.1,0.1,0.2,0.1c0.1,0,0.1,0,0.2-0.1c0.1-0.1,0.1-0.3,0-0.3
		C95.8,93.9,95.7,93.9,95.6,94z"/>
	<path class="st0" d="M103.9,29c-0.1,0.1-0.2,0.2-0.1,0.3c0.1,0.1,0.1,0.1,0.2,0.1c0,0,0.1,0,0.1,0c0.1-0.1,0.2-0.2,0.1-0.3
		C104.1,29,104,28.9,103.9,29z"/>
	<path class="st0" d="M104.8,30.7c-0.1,0.1-0.2,0.2-0.1,0.3c0.1,0.1,0.1,0.1,0.2,0.1c0,0,0.1,0,0.1,0c0.1-0.1,0.2-0.2,0.1-0.3
		C105.1,30.7,104.9,30.7,104.8,30.7z"/>
	<path class="st0" d="M95.5,17.8c-0.1,0.1-0.1,0.2,0,0.4c0.1,0,0.1,0.1,0.2,0.1c0.1,0,0.1,0,0.2-0.1c0.1-0.1,0.1-0.3,0-0.4
		C95.8,17.7,95.6,17.7,95.5,17.8z"/>
	<path class="st0" d="M70.3,109.1c-0.1,0-0.2,0.2-0.2,0.3c0,0.1,0.1,0.2,0.2,0.2c0,0,0,0,0.1,0c0.1,0,0.2-0.2,0.2-0.3
		C70.6,109.1,70.4,109,70.3,109.1z"/>
	<path class="st0" d="M86.5,101.7c-0.1,0.1-0.2,0.2-0.1,0.3c0.1,0.1,0.1,0.1,0.2,0.1c0.1,0,0.1,0,0.1,0c0.1-0.1,0.1-0.2,0.1-0.3
		C86.8,101.6,86.6,101.6,86.5,101.7z"/>
	<path class="st0" d="M84.8,102.8c-0.1,0.1-0.2,0.2-0.1,0.3c0.1,0.1,0.1,0.1,0.2,0.1c0.1,0,0.1,0,0.1,0c0.1-0.1,0.2-0.2,0.1-0.3
		C85.1,102.7,84.9,102.7,84.8,102.8z"/>
	<path class="st0" d="M79.6,105.6c-0.1,0.1-0.2,0.2-0.1,0.3c0,0.1,0.1,0.1,0.2,0.1c0,0,0.1,0,0.1,0c0.1-0.1,0.2-0.2,0.1-0.3
		C79.9,105.6,79.7,105.6,79.6,105.6z"/>
	<path class="st0" d="M88.1,100.5c-0.1,0.1-0.1,0.2-0.1,0.3c0.1,0.1,0.1,0.1,0.2,0.1c0.1,0,0.1,0,0.2-0.1c0.1-0.1,0.1-0.2,0.1-0.3
		S88.2,100.5,88.1,100.5z"/>
	<path class="st0" d="M81.4,104.7c-0.1,0.1-0.2,0.2-0.1,0.3c0.1,0.1,0.1,0.1,0.2,0.1c0,0,0.1,0,0.1,0c0.1-0.1,0.2-0.2,0.1-0.3
		C81.6,104.7,81.5,104.7,81.4,104.7z"/>
	<path class="st0" d="M83.1,103.8c-0.1,0.1-0.2,0.2-0.1,0.3c0.1,0.1,0.1,0.1,0.2,0.1c0,0,0.1,0,0.1,0c0.1-0.1,0.2-0.2,0.1-0.3
		C83.4,103.8,83.2,103.7,83.1,103.8z"/>
	<path class="st0" d="M92.7,96.8c-0.1,0.1-0.1,0.2,0,0.3c0.1,0.1,0.1,0.1,0.2,0.1c0.1,0,0.1,0,0.2-0.1c0.1-0.1,0.1-0.2,0-0.3
		C93,96.7,92.8,96.7,92.7,96.8z"/>
	<path class="st0" d="M89.7,99.3c-0.1,0.1-0.1,0.2,0,0.3c0.1,0.1,0.1,0.1,0.2,0.1c0.1,0,0.1,0,0.2-0.1c0.1-0.1,0.1-0.2,0-0.3
		C90,99.3,89.8,99.3,89.7,99.3z"/>
	<path class="st0" d="M64.3,1.5C64.3,1.5,64.3,1.5,64.3,1.5c-0.1,0-0.3,0.1-0.3,0.2C64,1.8,64.1,2,64.2,2c0,0,0,0,0,0
		c0.1,0,0.2-0.1,0.2-0.2C64.5,1.6,64.4,1.5,64.3,1.5z"/>
	<path class="st0" d="M91.2,98.1c-0.1,0.1-0.1,0.2,0,0.3c0.1,0.1,0.1,0.1,0.2,0.1c0.1,0,0.1,0,0.2-0.1c0.1-0.1,0.1-0.2,0-0.3
		C91.5,98,91.3,98,91.2,98.1z"/>
	<path class="st0" d="M72.2,108.5c-0.1,0-0.2,0.2-0.2,0.3c0,0.1,0.1,0.2,0.2,0.2c0,0,0.1,0,0.1,0c0.1,0,0.2-0.2,0.2-0.3
		C72.5,108.5,72.3,108.5,72.2,108.5z"/>
	<path class="st0" d="M77.8,106.4c-0.1,0.1-0.2,0.2-0.1,0.3c0,0.1,0.1,0.2,0.2,0.2c0,0,0.1,0,0.1,0c0.1-0.1,0.2-0.2,0.1-0.3
		C78.1,106.4,77.9,106.4,77.8,106.4z"/>
	<path class="st0" d="M68.4,109.5c-0.1,0-0.2,0.2-0.2,0.3c0,0.1,0.1,0.2,0.2,0.2c0,0,0,0,0.1,0c0.1,0,0.2-0.2,0.2-0.3
		C68.6,109.6,68.5,109.5,68.4,109.5z"/>
	<path class="st0" d="M62.5,110.6c-0.1,0-0.2,0.1-0.2,0.3c0,0.1,0.1,0.2,0.2,0.2c0,0,0,0,0,0c0.1,0,0.2-0.1,0.2-0.3
		C62.7,110.7,62.6,110.6,62.5,110.6z"/>
	<path class="st0" d="M87.9,11.3c-0.1,0.1-0.1,0.3,0.1,0.4c0.1,0,0.1,0,0.2,0c0.1,0,0.2,0,0.2-0.1c0.1-0.1,0.1-0.3-0.1-0.4
		C88.2,11.2,88,11.2,87.9,11.3z"/>
	<path class="st0" d="M64.4,110.3c-0.1,0-0.2,0.2-0.2,0.3c0,0.1,0.1,0.2,0.2,0.2c0,0,0,0,0,0c0.1,0,0.2-0.2,0.2-0.3
		C64.7,110.4,64.6,110.3,64.4,110.3z"/>
	<path class="st0" d="M66.4,110c-0.1,0-0.2,0.2-0.2,0.3c0,0.1,0.1,0.2,0.2,0.2c0,0,0,0,0,0c0.1,0,0.2-0.2,0.2-0.3
		C66.7,110,66.6,109.9,66.4,110z"/>
	<path class="st0" d="M62.3,1.2c-0.1,0-0.3,0.1-0.3,0.2c0,0.1,0.1,0.3,0.2,0.3c0,0,0,0,0,0c0.1,0,0.2-0.1,0.2-0.2
		C62.6,1.4,62.5,1.2,62.3,1.2z"/>
	<path class="st0" d="M60.5,110.8c-0.1,0-0.2,0.1-0.2,0.3c0,0.1,0.1,0.2,0.2,0.2c0,0,0,0,0,0c0.1,0,0.2-0.1,0.2-0.3
		C60.8,110.9,60.6,110.8,60.5,110.8z"/>
	<path class="st0" d="M75.9,107.2c-0.1,0.1-0.2,0.2-0.1,0.3c0,0.1,0.1,0.2,0.2,0.2c0,0,0.1,0,0.1,0c0.1-0.1,0.2-0.2,0.1-0.3
		C76.2,107.2,76.1,107.2,75.9,107.2z"/>
	<path class="st0" d="M74.1,107.9c-0.1,0-0.2,0.2-0.2,0.3c0,0.1,0.1,0.2,0.2,0.2c0,0,0.1,0,0.1,0c0.1-0.1,0.2-0.2,0.2-0.3
		C74.4,107.9,74.2,107.8,74.1,107.9z"/>
	<path class="st0" d="M74.1,3.9c-0.1,0-0.3,0-0.3,0.2c0,0.1,0,0.3,0.2,0.3c0,0,0.1,0,0.1,0c0.1,0,0.2-0.1,0.2-0.2
		C74.2,4.1,74.2,3.9,74.1,3.9z"/>
	<path class="st0" d="M109.7,44.3C109.7,44.3,109.7,44.3,109.7,44.3c0.2,0,0.3-0.2,0.2-0.3c0-0.1-0.2-0.2-0.3-0.2
		c-0.1,0-0.2,0.2-0.2,0.3C109.5,44.2,109.6,44.3,109.7,44.3z"/>
	<path class="st0" d="M110.4,50c0,0.1,0.1,0.2,0.2,0.2c0,0,0,0,0,0c0.1,0,0.2-0.1,0.2-0.3c0,0,0,0,0,0c0-0.1-0.1-0.2-0.3-0.2
		C110.5,49.7,110.4,49.8,110.4,50z"/>
	<path class="st0" d="M109.8,46c0,0.1,0.1,0.2,0.2,0.2c0,0,0,0,0,0c0.1,0,0.2-0.2,0.2-0.3c0-0.1-0.2-0.2-0.3-0.2
		C109.9,45.8,109.8,45.9,109.8,46z"/>
	<path class="st0" d="M108.7,40.4C108.7,40.4,108.7,40.4,108.7,40.4c0.2,0,0.3-0.2,0.2-0.3c0-0.1-0.2-0.2-0.3-0.2
		c-0.1,0-0.2,0.2-0.2,0.3C108.5,40.4,108.6,40.4,108.7,40.4z"/>
	<path class="st0" d="M110.6,52c0,0.1,0.1,0.2,0.2,0.2c0,0,0,0,0,0c0.1,0,0.2-0.1,0.2-0.3c0-0.1-0.1-0.2-0.3-0.2
		C110.7,51.7,110.6,51.8,110.6,52z"/>
	<path class="st0" d="M110.2,48c0,0.1,0.1,0.2,0.2,0.2c0,0,0,0,0,0c0.1,0,0.2-0.2,0.2-0.3c0-0.1-0.1-0.2-0.3-0.2
		S110.2,47.9,110.2,48z"/>
	<path class="st0" d="M110.7,54c0,0.1,0.1,0.2,0.2,0.2c0,0,0,0,0,0c0.1,0,0.2-0.1,0.2-0.2c0-0.1-0.1-0.2-0.3-0.2
		C110.8,53.7,110.7,53.8,110.7,54z"/>
	<path class="st0" d="M103.8,82.8L103.8,82.8c-0.1,0.1,0,0.3,0.1,0.3c0,0,0.1,0,0.1,0c0.1,0,0.2-0.1,0.2-0.1c0.1-0.1,0-0.3-0.1-0.3
		C104.1,82.7,103.9,82.7,103.8,82.8z"/>
	<path class="st0" d="M102.8,84.6c-0.1,0.1,0,0.3,0.1,0.3c0,0,0.1,0,0.1,0c0.1,0,0.2,0,0.2-0.1c0.1-0.1,0-0.3-0.1-0.3
		C103.1,84.4,102.9,84.4,102.8,84.6z"/>
	<path class="st0" d="M104.8,81.1c-0.1,0.1,0,0.3,0.1,0.3c0,0,0.1,0,0.1,0c0.1,0,0.2,0,0.2-0.1c0.1-0.1,0-0.3-0.1-0.3
		C105,80.9,104.8,81,104.8,81.1z"/>
	<path class="st0" d="M107.4,36.7C107.4,36.7,107.4,36.7,107.4,36.7c0.2-0.1,0.3-0.2,0.2-0.3c-0.1-0.1-0.2-0.2-0.3-0.1
		c-0.1,0-0.2,0.2-0.1,0.3C107.2,36.6,107.3,36.7,107.4,36.7z"/>
	<path class="st0" d="M101.8,86.2c-0.1,0.1-0.1,0.3,0.1,0.3c0,0,0.1,0,0.1,0c0.1,0,0.2,0,0.2-0.1c0.1-0.1,0-0.3-0.1-0.3
		C102,86.1,101.8,86.1,101.8,86.2z"/>
	<path class="st0" d="M106.5,77.5c-0.1,0.1,0,0.3,0.1,0.3c0,0,0.1,0,0.1,0c0.1,0,0.2-0.1,0.2-0.2c0.1-0.1,0-0.3-0.1-0.3
		C106.7,77.3,106.5,77.3,106.5,77.5z"/>
	<path class="st0" d="M105.8,33c0,0,0.1,0,0.1,0c0.1-0.1,0.2-0.2,0.1-0.3c0,0,0,0,0,0c-0.1-0.1-0.2-0.2-0.3-0.1
		c-0.1,0.1-0.2,0.2-0.1,0.3C105.6,32.9,105.7,33,105.8,33z"/>
	<path class="st0" d="M107.2,75.6c-0.1,0.1,0,0.3,0.2,0.3c0,0,0.1,0,0.1,0c0.1,0,0.2-0.1,0.2-0.2c0.1-0.1,0-0.3-0.1-0.3
		C107.4,75.4,107.3,75.5,107.2,75.6z"/>
	<path class="st0" d="M66.3,1.8C66.2,1.8,66,1.9,66,2c0,0.1,0.1,0.3,0.2,0.3c0,0,0,0,0.1,0c0.1,0,0.2-0.1,0.2-0.2
		C66.5,2,66.4,1.9,66.3,1.8z"/>
	<path class="st0" d="M108.1,38.5C108.1,38.5,108.1,38.5,108.1,38.5c0.2-0.1,0.3-0.2,0.2-0.3c0-0.1-0.2-0.2-0.3-0.2
		s-0.2,0.2-0.2,0.3C107.8,38.5,107.9,38.5,108.1,38.5z"/>
	<path class="st0" d="M106.6,34.8C106.7,34.8,106.7,34.8,106.6,34.8c0.2-0.1,0.3-0.2,0.2-0.4c-0.1-0.1-0.2-0.2-0.3-0.1
		c-0.1,0.1-0.2,0.2-0.1,0.3C106.4,34.8,106.5,34.8,106.6,34.8z"/>
	<path class="st0" d="M108.2,73.6c-0.1-0.1-0.3,0-0.3,0.2c-0.1,0.1,0,0.3,0.2,0.3c0,0,0.1,0,0.1,0c0.1,0,0.2-0.1,0.2-0.2
		C108.4,73.8,108.3,73.6,108.2,73.6z"/>
	<path class="st0" d="M105.7,79.3c-0.1,0.1,0,0.3,0.1,0.3c0,0,0.1,0,0.1,0c0.1,0,0.2-0.1,0.2-0.2c0.1-0.1,0-0.3-0.1-0.3
		C105.9,79.1,105.7,79.2,105.7,79.3z"/>
	<path class="st0" d="M75.9,4.6c-0.1-0.1-0.3,0-0.3,0.2c0,0.1,0,0.3,0.2,0.3c0,0,0.1,0,0.1,0c0.1,0,0.2-0.1,0.2-0.2
		C76.1,4.8,76.1,4.6,75.9,4.6z"/>
	<path class="st0" d="M82.9,8.1c-0.1,0.1,0,0.3,0.1,0.3c0,0,0.1,0,0.1,0c0.1,0,0.2-0.1,0.2-0.1c0.1-0.1,0-0.3-0.1-0.3
		C83.1,7.9,82.9,8,82.9,8.1z"/>
	<path class="st0" d="M110.5,63.9c-0.1,0-0.3,0.1-0.3,0.2c0,0.1,0.1,0.3,0.2,0.3c0,0,0,0,0,0c0.1,0,0.2-0.1,0.2-0.2
		C110.7,64,110.6,63.9,110.5,63.9z"/>
	<path class="st0" d="M110.2,65.8c-0.1,0-0.3,0.1-0.3,0.2c0,0.1,0.1,0.3,0.2,0.3c0,0,0,0,0.1,0c0.1,0,0.2-0.1,0.2-0.2
		C110.4,66,110.3,65.9,110.2,65.8z"/>
	<path class="st0" d="M84.6,9.1c-0.1,0.1,0,0.3,0.1,0.4c0,0,0.1,0,0.1,0c0.1,0,0.2,0,0.2-0.1c0.1-0.1,0-0.3-0.1-0.4
		C84.8,9,84.7,9,84.6,9.1z"/>
	<path class="st0" d="M81.1,7.2c-0.1,0.1,0,0.3,0.1,0.3c0,0,0.1,0,0.1,0c0.1,0,0.2-0.1,0.2-0.1c0.1-0.1,0-0.3-0.1-0.3
		C81.3,7,81.2,7,81.1,7.2z"/>
	<path class="st0" d="M111,57.9c-0.1,0-0.2,0.1-0.3,0.2c0,0.1,0.1,0.3,0.2,0.3s0.2-0.1,0.2-0.2C111.2,58,111.1,57.9,111,57.9z"/>
	<path class="st0" d="M99.5,89.5c-0.1,0.1-0.1,0.3,0.1,0.3c0,0,0.1,0.1,0.2,0.1c0.1,0,0.2,0,0.2-0.1c0.1-0.1,0.1-0.3-0.1-0.3
		S99.6,89.4,99.5,89.5z"/>
	<path class="st0" d="M100.7,87.9c-0.1,0.1-0.1,0.3,0.1,0.3c0.1,0,0.1,0.1,0.2,0.1c0.1,0,0.2,0,0.2-0.1c0.1-0.1,0.1-0.3-0.1-0.3
		C100.9,87.8,100.7,87.8,100.7,87.9z"/>
	<path class="st0" d="M68.3,2.2c-0.1,0-0.3,0-0.3,0.2c0,0.1,0.1,0.3,0.2,0.3c0,0,0,0,0.1,0c0.1,0,0.2-0.1,0.2-0.2
		C68.5,2.4,68.4,2.3,68.3,2.2z"/>
	<path class="st0" d="M110.7,61.9c-0.1,0-0.3,0.1-0.3,0.2s0.1,0.3,0.2,0.3c0,0,0,0,0,0c0.1,0,0.2-0.1,0.2-0.2
		C111,62,110.9,61.9,110.7,61.9z"/>
	<path class="st0" d="M110.9,59.9c-0.1,0-0.2,0.1-0.3,0.2s0.1,0.3,0.2,0.3h0c0.1,0,0.2-0.1,0.3-0.2C111.1,60,111,59.9,110.9,59.9z"
		/>
	<path class="st0" d="M72.1,3.3c-0.1,0-0.3,0-0.3,0.2c0,0.1,0,0.3,0.2,0.3c0,0,0.1,0,0.1,0c0.1,0,0.2-0.1,0.2-0.2
		C72.3,3.4,72.3,3.3,72.1,3.3z"/>
	<path class="st0" d="M108.8,71.7c-0.1,0-0.3,0-0.3,0.2c0,0.1,0,0.3,0.2,0.3c0,0,0.1,0,0.1,0c0.1,0,0.2-0.1,0.2-0.2
		C109,71.9,108.9,71.7,108.8,71.7z"/>
	<path class="st0" d="M86.3,10.2c-0.1,0.1-0.1,0.3,0.1,0.3c0,0,0.1,0,0.1,0c0.1,0,0.2,0,0.2-0.1c0.1-0.1,0.1-0.3-0.1-0.3
		C86.5,10.1,86.3,10.1,86.3,10.2z"/>
	<path class="st0" d="M70.2,2.7c-0.1,0-0.3,0-0.3,0.2c0,0.1,0,0.3,0.2,0.3c0,0,0,0,0.1,0c0.1,0,0.2-0.1,0.2-0.2
		C70.4,2.9,70.3,2.7,70.2,2.7z"/>
	<path class="st0" d="M109.3,69.8c-0.1,0-0.3,0.1-0.3,0.2c0,0.1,0.1,0.3,0.2,0.3c0,0,0,0,0.1,0c0.1,0,0.2-0.1,0.2-0.2
		C109.5,69.9,109.5,69.8,109.3,69.8z"/>
	<path class="st0" d="M109.2,42.4C109.2,42.4,109.2,42.4,109.2,42.4c0.2,0,0.3-0.2,0.2-0.3c0,0,0,0,0,0c0-0.1-0.2-0.2-0.3-0.2
		c-0.1,0-0.2,0.2-0.2,0.3C109,42.3,109.1,42.4,109.2,42.4z"/>
	<path class="st0" d="M79.3,6.3c-0.1,0.1,0,0.3,0.1,0.3c0,0,0.1,0,0.1,0c0.1,0,0.2-0.1,0.2-0.1c0.1-0.1,0-0.3-0.1-0.3
		C79.5,6.1,79.4,6.2,79.3,6.3z"/>
	<path class="st0" d="M109.8,67.8c-0.1,0-0.3,0.1-0.3,0.2c0,0.1,0.1,0.3,0.2,0.3c0,0,0,0,0.1,0c0.1,0,0.2-0.1,0.2-0.2
		C110,68,109.9,67.8,109.8,67.8z"/>
	<path class="st0" d="M77.5,5.5c-0.1,0.1,0,0.3,0.1,0.3c0,0,0.1,0,0.1,0c0.1,0,0.2-0.1,0.2-0.2c0.1-0.1,0-0.3-0.1-0.3
		C77.7,5.3,77.5,5.3,77.5,5.5z"/>
	<path class="st0" d="M52.3,1C52.3,1,52.3,1,52.3,1c-0.2,0-0.2,0.1-0.2,0.3c0,0.1,0.1,0.2,0.2,0.2c0,0,0,0,0,0
		c0.1,0,0.2-0.1,0.2-0.3C52.6,1.1,52.4,1,52.3,1z"/>
	<path class="st0" d="M7.4,82.4c0,0,0.1,0,0.1,0c0.1-0.1,0.2-0.2,0.1-0.3c-0.1-0.1-0.2-0.2-0.3-0.1c-0.1,0.1-0.2,0.2-0.1,0.3
		C7.3,82.3,7.3,82.4,7.4,82.4z"/>
	<path class="st0" d="M9.4,85.8c0.1,0,0.1,0,0.1,0c0.1-0.1,0.1-0.2,0.1-0.3v0c-0.1-0.1-0.2-0.2-0.4-0.1c-0.1,0.1-0.1,0.2-0.1,0.3
		C9.3,85.8,9.4,85.8,9.4,85.8z"/>
	<path class="st0" d="M6.3,80.5c0,0.1,0.1,0.1,0.2,0.1c0,0,0.1,0,0.1,0c0.1-0.1,0.2-0.2,0.1-0.3s-0.2-0.2-0.3-0.1
		C6.3,80.2,6.2,80.4,6.3,80.5z"/>
	<path class="st0" d="M8.4,84.1c0,0,0.1,0,0.1,0c0.1-0.1,0.2-0.2,0.1-0.3c-0.1-0.1-0.2-0.2-0.3-0.1c-0.1,0.1-0.2,0.2-0.1,0.3
		C8.2,84.1,8.3,84.1,8.4,84.1z"/>
	<path class="st0" d="M6.2,32c-0.1,0.1,0,0.3,0.1,0.3c0,0,0.1,0,0.1,0c0.1,0,0.2,0,0.2-0.1c0.1-0.1,0-0.3-0.1-0.3
		C6.4,31.8,6.3,31.9,6.2,32z"/>
	<path class="st0" d="M7.1,30.2c-0.1,0.1,0,0.3,0.1,0.3c0,0,0.1,0,0.1,0c0.1,0,0.2,0,0.2-0.1c0.1-0.1,0-0.3-0.1-0.3
		C7.4,30,7.2,30.1,7.1,30.2z"/>
	<path class="st0" d="M34.8,5.1c-0.1,0.1-0.2,0.2-0.1,0.3c0,0.1,0.1,0.2,0.2,0.2c0,0,0.1,0,0.1,0c0.1-0.1,0.2-0.2,0.1-0.3
		C35.1,5.1,34.9,5,34.8,5.1z"/>
	<path class="st0" d="M8.1,28.5c-0.1,0.1,0,0.3,0.1,0.3c0,0,0.1,0,0.1,0c0.1,0,0.2,0,0.2-0.1c0.1-0.1,0-0.3-0.1-0.4
		S8.2,28.3,8.1,28.5z"/>
	<path class="st0" d="M10.6,87.5c0.1,0,0.1,0,0.1,0c0.1-0.1,0.1-0.2,0.1-0.3c-0.1-0.1-0.2-0.1-0.4-0.1c-0.1,0.1-0.1,0.2-0.1,0.3
		C10.4,87.5,10.5,87.5,10.6,87.5z"/>
	<path class="st0" d="M16.9,95.2c0.1,0,0.1,0,0.2-0.1c0.1-0.1,0.1-0.2,0-0.3s-0.3-0.1-0.4,0c-0.1,0.1-0.1,0.2,0,0.3
		C16.8,95.2,16.9,95.2,16.9,95.2z"/>
	<path class="st0" d="M18.3,96.6c0.1,0,0.1,0,0.2-0.1c0.1-0.1,0.1-0.3,0-0.4c-0.1-0.1-0.3-0.1-0.4,0c-0.1,0.1-0.1,0.3,0,0.3
		C18.2,96.6,18.3,96.6,18.3,96.6z"/>
	<path class="st0" d="M15.5,93.7c0.1,0,0.1,0,0.2-0.1c0.1-0.1,0.1-0.3,0-0.4c-0.1-0.1-0.2-0.1-0.4,0c-0.1,0.1-0.1,0.2,0,0.3
		C15.4,93.7,15.5,93.7,15.5,93.7z"/>
	<path class="st0" d="M19.8,97.9c0.1,0,0.1,0,0.2-0.1c0.1-0.1,0.1-0.3,0-0.3c-0.1-0.1-0.3-0.1-0.4,0c-0.1,0.1-0.1,0.3,0,0.4
		C19.7,97.9,19.8,97.9,19.8,97.9z"/>
	<path class="st0" d="M11.7,89.1c0.1,0,0.1,0,0.1-0.1c0.1-0.1,0.1-0.2,0.1-0.3c-0.1-0.1-0.2-0.1-0.4-0.1c-0.1,0.1-0.1,0.2-0.1,0.3
		C11.6,89.1,11.6,89.1,11.7,89.1z"/>
	<path class="st0" d="M14.2,92.2c0.1,0,0.1,0,0.2-0.1c0.1-0.1,0.1-0.2,0-0.3c-0.1-0.1-0.2-0.1-0.4,0c-0.1,0.1-0.1,0.2,0,0.3
		C14.1,92.2,14.1,92.2,14.2,92.2z"/>
	<path class="st0" d="M10.3,25c-0.1,0.1-0.1,0.3,0.1,0.3c0.1,0,0.1,0,0.1,0c0.1,0,0.2,0,0.2-0.1c0.1-0.1,0.1-0.3-0.1-0.4
		C10.5,24.9,10.3,24.9,10.3,25z"/>
	<path class="st0" d="M12.9,90.7c0.1,0,0.1,0,0.1-0.1c0.1-0.1,0.1-0.2,0-0.3c-0.1-0.1-0.2-0.1-0.4,0c-0.1,0.1-0.1,0.2,0,0.3
		C12.8,90.7,12.9,90.7,12.9,90.7z"/>
	<path class="st0" d="M42.6,109.8C42.6,109.8,42.6,109.8,42.6,109.8C42.6,109.8,42.7,109.8,42.6,109.8c0.2,0,0.3-0.1,0.3-0.2
		c0-0.1,0-0.3-0.2-0.3c-0.1,0-0.3,0.1-0.3,0.2C42.4,109.7,42.5,109.8,42.6,109.8z"/>
	<path class="st0" d="M29.7,7.8c-0.1-0.1-0.2-0.2-0.3-0.1c-0.1,0.1-0.2,0.2-0.1,0.3c0,0.1,0.1,0.1,0.2,0.1c0,0,0.1,0,0.1,0h0
		C29.8,8,29.8,7.9,29.7,7.8z"/>
	<path class="st0" d="M26,9.7C25.9,9.7,25.9,9.7,26,9.7c-0.1,0.1-0.2,0.2-0.1,0.3c0,0.1,0.1,0.1,0.2,0.1c0,0,0.1,0,0.1,0
		c0.1-0.1,0.1-0.2,0.1-0.4C26.2,9.7,26.1,9.6,26,9.7z"/>
	<path class="st0" d="M27.6,8.7c-0.1,0.1-0.2,0.2-0.1,0.3c0,0.1,0.1,0.1,0.2,0.1c0,0,0.1,0,0.1,0C28,9,28.1,8.9,28,8.8
		C27.9,8.6,27.8,8.6,27.6,8.7z"/>
	<path class="st0" d="M24.3,10.8c-0.1,0.1-0.1,0.2-0.1,0.4c0,0.1,0.1,0.1,0.2,0.1c0,0,0.1,0,0.1,0c0.1-0.1,0.1-0.2,0.1-0.4
		S24.4,10.8,24.3,10.8z"/>
	<path class="st0" d="M5.6,78.3c-0.1,0.1-0.2,0.2-0.1,0.3c0,0.1,0.1,0.2,0.2,0.2c0,0,0.1,0,0.1,0c0.1-0.1,0.2-0.2,0.1-0.3
		C5.9,78.3,5.7,78.3,5.6,78.3z"/>
	<path class="st0" d="M11.4,23.4C11.4,23.4,11.4,23.4,11.4,23.4c-0.1,0.1-0.1,0.3,0.1,0.3c0.1,0,0.1,0,0.1,0c0.1,0,0.1,0,0.2-0.1
		c0.1-0.1,0.1-0.3-0.1-0.4C11.7,23.3,11.5,23.3,11.4,23.4z"/>
	<path class="st0" d="M22.7,12c-0.1,0.1-0.1,0.2,0,0.4c0,0.1,0.1,0.1,0.2,0.1c0.1,0,0.1,0,0.1-0.1c0.1-0.1,0.1-0.2,0-0.4
		S22.8,11.9,22.7,12z"/>
	<path class="st0" d="M31.2,6.7C31,6.8,31,6.9,31,7.1c0,0.1,0.1,0.1,0.2,0.1c0,0,0.1,0,0.1,0c0.1-0.1,0.2-0.2,0.1-0.3
		S31.3,6.7,31.2,6.7z"/>
	<path class="st0" d="M33,5.9c-0.1,0.1-0.2,0.2-0.1,0.3c0,0.1,0.1,0.2,0.2,0.2c0,0,0.1,0,0.1,0c0.1-0.1,0.2-0.2,0.1-0.3
		C33.2,5.9,33.1,5.8,33,5.9z"/>
	<path class="st0" d="M13.9,20.3c-0.1,0.1-0.1,0.3,0,0.4c0.1,0,0.1,0.1,0.2,0.1c0.1,0,0.1,0,0.2-0.1c0.1-0.1,0.1-0.3,0-0.4
		C14.2,20.1,14,20.2,13.9,20.3z"/>
	<path class="st0" d="M21.1,13.3C21.1,13.3,21.1,13.3,21.1,13.3c-0.1,0.1-0.1,0.2,0,0.4c0,0.1,0.1,0.1,0.2,0.1c0.1,0,0.1,0,0.2-0.1
		c0.1-0.1,0.1-0.2,0-0.4C21.4,13.2,21.2,13.2,21.1,13.3z"/>
	<path class="st0" d="M12.6,21.8c-0.1,0.1-0.1,0.3,0,0.4c0,0,0.1,0.1,0.1,0.1c0.1,0,0.1,0,0.2-0.1c0.1-0.1,0.1-0.3,0-0.4
		C12.9,21.7,12.7,21.7,12.6,21.8z"/>
	<path class="st0" d="M15.2,18.8c-0.1,0.1-0.1,0.3,0,0.4c0.1,0,0.1,0.1,0.2,0.1c0.1,0,0.1,0,0.2-0.1c0.1-0.1,0.1-0.3,0-0.4
		C15.5,18.6,15.3,18.7,15.2,18.8z"/>
	<path class="st0" d="M19.5,14.6c-0.1,0.1-0.1,0.2,0,0.4c0,0.1,0.1,0.1,0.2,0.1c0.1,0,0.1,0,0.2-0.1c0.1-0.1,0.1-0.2,0-0.4
		C19.8,14.5,19.6,14.5,19.5,14.6z"/>
	<path class="st0" d="M40.7,109.3C40.7,109.3,40.7,109.3,40.7,109.3c0.2,0,0.3-0.1,0.3-0.2c0-0.1,0-0.3-0.2-0.3
		c-0.1,0-0.3,0-0.3,0.2C40.5,109.1,40.5,109.3,40.7,109.3z"/>
	<path class="st0" d="M16.6,17.3c-0.1,0.1-0.1,0.3,0,0.4c0,0,0.1,0.1,0.2,0.1s0.1,0,0.2-0.1c0.1-0.1,0.1-0.3,0-0.4
		C16.9,17.2,16.7,17.2,16.6,17.3z"/>
	<path class="st0" d="M9.2,26.7c-0.1,0.1,0,0.3,0.1,0.3c0,0,0.1,0,0.1,0c0.1,0,0.2,0,0.2-0.1c0.1-0.1,0-0.3-0.1-0.3
		C9.4,26.6,9.2,26.6,9.2,26.7z"/>
	<path class="st0" d="M1.1,51.5C1.1,51.5,1.1,51.5,1.1,51.5c0.1,0,0.3-0.1,0.3-0.2c0-0.1-0.1-0.2-0.2-0.3c-0.1,0-0.3,0.1-0.3,0.2
		C0.9,51.4,1,51.5,1.1,51.5z"/>
	<path class="st0" d="M21.4,99.2c0.1,0,0.1,0,0.2-0.1c0.1-0.1,0.1-0.3,0-0.3c-0.1-0.1-0.3-0.1-0.4,0c-0.1,0.1-0.1,0.3,0,0.3
		C21.2,99.2,21.3,99.2,21.4,99.2z"/>
	<path class="st0" d="M22.9,100.4c0.1,0,0.1,0,0.2-0.1c0.1-0.1,0.1-0.3,0-0.3c-0.1-0.1-0.3-0.1-0.4,0.1c-0.1,0.1-0.1,0.3,0,0.3
		C22.8,100.4,22.9,100.4,22.9,100.4z"/>
	<path class="st0" d="M2.4,43.6C2.4,43.6,2.4,43.6,2.4,43.6c0.2,0,0.3-0.1,0.3-0.2c0-0.1,0-0.3-0.2-0.3c-0.1,0-0.3,0-0.3,0.2
		C2.2,43.5,2.2,43.6,2.4,43.6z"/>
	<path class="st0" d="M2,45.6C2,45.6,2,45.6,2,45.6c0.2,0,0.3-0.1,0.3-0.2c0-0.1-0.1-0.3-0.2-0.3c-0.1,0-0.3,0.1-0.3,0.2
		C1.7,45.4,1.8,45.6,2,45.6z"/>
	<path class="st0" d="M1.3,49.5C1.3,49.5,1.4,49.5,1.3,49.5c0.1,0,0.3-0.1,0.3-0.2c0-0.1-0.1-0.3-0.2-0.3c-0.1,0-0.3,0.1-0.3,0.2
		C1.1,49.4,1.2,49.5,1.3,49.5z"/>
	<path class="st0" d="M24.5,101.6c0.1,0,0.2,0,0.2-0.1c0.1-0.1,0-0.3-0.1-0.3c-0.1-0.1-0.3-0.1-0.4,0.1s0,0.3,0.1,0.3
		C24.5,101.6,24.5,101.6,24.5,101.6z"/>
	<path class="st0" d="M1.6,47.6C1.6,47.6,1.6,47.6,1.6,47.6c0.2,0,0.3-0.1,0.3-0.2c0-0.1-0.1-0.3-0.2-0.3s-0.3,0.1-0.3,0.2
		S1.5,47.5,1.6,47.6z"/>
	<path class="st0" d="M2.8,41.7C2.9,41.7,2.9,41.7,2.8,41.7c0.2,0,0.3-0.1,0.3-0.2c0-0.1,0-0.3-0.2-0.3c-0.1,0-0.3,0-0.3,0.2
		C2.6,41.5,2.7,41.7,2.8,41.7z"/>
	<path class="st0" d="M26.2,102.7c0.1,0,0.2,0,0.2-0.1c0.1-0.1,0-0.3-0.1-0.3c-0.1-0.1-0.3,0-0.3,0.1c-0.1,0.1,0,0.3,0.1,0.3
		C26.1,102.7,26.2,102.7,26.2,102.7z"/>
	<path class="st0" d="M36.9,108.1C36.9,108.1,36.9,108.1,36.9,108.1C36.9,108.1,36.9,108.1,36.9,108.1c0.2,0,0.3,0,0.3-0.1
		c0-0.1,0-0.3-0.2-0.3c-0.1-0.1-0.3,0-0.3,0.1C36.7,107.9,36.7,108,36.9,108.1z"/>
	<path class="st0" d="M35.1,107.3c0.1,0,0.2-0.1,0.2-0.2c0-0.1,0-0.3-0.1-0.3s-0.3,0-0.3,0.1C34.8,107.1,34.9,107.3,35.1,107.3
		C35,107.3,35,107.3,35.1,107.3z"/>
	<path class="st0" d="M38.8,108.7C38.8,108.7,38.8,108.7,38.8,108.7c0.2,0,0.3-0.1,0.3-0.2c0-0.1,0-0.3-0.2-0.3s-0.3,0-0.3,0.2
		C38.6,108.5,38.6,108.7,38.8,108.7z"/>
	<path class="st0" d="M33.2,106.6c0.1,0,0.2-0.1,0.2-0.2c0-0.1,0-0.3-0.1-0.3c-0.1-0.1-0.3,0-0.3,0.1c-0.1,0.1,0,0.3,0.1,0.3
		C33.2,106.5,33.2,106.6,33.2,106.6z"/>
	<path class="st0" d="M27.9,103.8c0.1,0,0.2,0,0.2-0.1c0.1-0.1,0-0.3-0.1-0.3c-0.1-0.1-0.3,0-0.3,0.1s0,0.3,0.1,0.3
		C27.8,103.8,27.9,103.8,27.9,103.8z"/>
	<path class="st0" d="M29.7,104.8c0.1,0,0.2-0.1,0.2-0.1c0.1-0.1,0-0.3-0.1-0.3s-0.3,0-0.3,0.1c-0.1,0.1,0,0.3,0.1,0.3
		C29.6,104.8,29.6,104.8,29.7,104.8z"/>
	<path class="st0" d="M31.4,105.7c0.1,0,0.2-0.1,0.2-0.1c0.1-0.1,0-0.3-0.1-0.3s-0.3,0-0.3,0.1c-0.1,0.1,0,0.3,0.1,0.3
		C31.4,105.7,31.4,105.7,31.4,105.7z"/>
	<path class="st0" d="M2.4,68.9c-0.1,0-0.2,0.2-0.2,0.3c0,0.1,0.1,0.2,0.2,0.2c0,0,0,0,0.1,0c0.1,0,0.2-0.2,0.2-0.3
		C2.7,68.9,2.5,68.8,2.4,68.9z"/>
	<path class="st0" d="M3.5,72.7c-0.1,0-0.2,0.2-0.2,0.3c0,0.1,0.1,0.2,0.2,0.2c0,0,0,0,0.1,0c0.1,0,0.2-0.2,0.2-0.3
		S3.6,72.7,3.5,72.7z"/>
	<path class="st0" d="M1,53.5C1,53.5,1,53.5,1,53.5c0.1,0,0.3-0.1,0.3-0.2C1.3,53.1,1.2,53,1,53c-0.1,0-0.3,0.1-0.3,0.2
		C0.8,53.4,0.9,53.5,1,53.5z"/>
	<path class="st0" d="M2.9,70.8c-0.1,0-0.2,0.2-0.2,0.3c0,0.1,0.1,0.2,0.2,0.2c0,0,0,0,0.1,0c0.1,0,0.2-0.2,0.2-0.3
		C3.2,70.9,3,70.8,2.9,70.8z"/>
	<path class="st0" d="M4.1,37.9c0.1,0,0.2-0.1,0.2-0.2c0-0.1,0-0.3-0.2-0.3c-0.1,0-0.3,0-0.3,0.2C3.8,37.7,3.9,37.8,4.1,37.9
		C4.1,37.9,4.1,37.9,4.1,37.9z"/>
	<path class="st0" d="M3.5,39.8c0.1,0,0.2-0.1,0.2-0.2c0-0.1,0-0.3-0.2-0.3s-0.3,0-0.3,0.2S3.3,39.7,3.5,39.8
		C3.4,39.8,3.5,39.8,3.5,39.8z"/>
	<path class="st0" d="M4.1,74.6C4,74.7,3.9,74.8,4,74.9c0,0.1,0.1,0.2,0.2,0.2c0,0,0.1,0,0.1,0c0.1-0.1,0.2-0.2,0.2-0.3
		C4.4,74.7,4.2,74.6,4.1,74.6z"/>
	<path class="st0" d="M4.8,76.5c-0.1,0.1-0.2,0.2-0.1,0.3c0,0.1,0.1,0.2,0.2,0.2c0,0,0.1,0,0.1,0c0.1-0.1,0.2-0.2,0.1-0.3
		C5.1,76.5,4.9,76.4,4.8,76.5z"/>
	<path class="st0" d="M4.8,36C4.9,36,5,36,5.1,35.9c0.1-0.1,0-0.3-0.1-0.3c-0.1,0-0.3,0-0.3,0.1C4.6,35.8,4.6,36,4.8,36
		C4.8,36,4.8,36,4.8,36z"/>
	<path class="st0" d="M5.6,34.2c0.1,0,0.2-0.1,0.2-0.2c0.1-0.1,0-0.3-0.1-0.3s-0.3,0-0.3,0.1C5.3,33.9,5.4,34.1,5.6,34.2
		C5.5,34.2,5.6,34.2,5.6,34.2z"/>
	<path class="st0" d="M1,59.5c0.1,0,0.2-0.1,0.2-0.3C1.3,59.1,1.1,59,1,59c-0.1,0-0.2,0.1-0.2,0.3C0.8,59.4,0.9,59.5,1,59.5L1,59.5z
		"/>
	<path class="st0" d="M0.9,57.5c0.1,0,0.3-0.1,0.2-0.2c0-0.1-0.1-0.2-0.2-0.2s-0.2,0.1-0.2,0.3C0.7,57.4,0.8,57.5,0.9,57.5L0.9,57.5
		z"/>
	<path class="st0" d="M2.3,67.1c0-0.1-0.2-0.2-0.3-0.2c-0.1,0-0.2,0.2-0.2,0.3c0,0.1,0.1,0.2,0.2,0.2c0,0,0,0,0,0
		C2.2,67.4,2.3,67.3,2.3,67.1z"/>
	<path class="st0" d="M0.9,55.5c0.1,0,0.3-0.1,0.3-0.2c0-0.1-0.1-0.3-0.2-0.3s-0.2,0.1-0.2,0.2C0.7,55.4,0.8,55.5,0.9,55.5z"/>
	<path class="st0" d="M1.9,65.2c0-0.1-0.1-0.2-0.3-0.2c-0.1,0-0.2,0.2-0.2,0.3c0,0.1,0.1,0.2,0.2,0.2c0,0,0,0,0,0
		C1.9,65.4,1.9,65.3,1.9,65.2z"/>
	<path class="st0" d="M1.6,63.2L1.6,63.2c0-0.1-0.1-0.2-0.3-0.2s-0.2,0.1-0.2,0.3c0,0.1,0.1,0.2,0.2,0.2c0,0,0,0,0,0
		C1.5,63.5,1.6,63.3,1.6,63.2z"/>
	<path class="st0" d="M1.2,61.5c0.1,0,0.2-0.1,0.2-0.3c0-0.1-0.1-0.2-0.3-0.2s-0.2,0.1-0.2,0.3C0.9,61.4,1,61.5,1.2,61.5
		C1.2,61.5,1.2,61.5,1.2,61.5z"/>
	<path class="st0" d="M18.1,15.9c-0.1,0.1-0.1,0.2,0,0.4c0,0,0.1,0.1,0.2,0.1c0.1,0,0.1,0,0.2-0.1c0.1-0.1,0.1-0.3,0-0.4
		C18.3,15.8,18.2,15.8,18.1,15.9z"/>
	<path class="st0" d="M42.4,2.5c-0.1,0-0.2,0.2-0.2,0.3C42.2,3,42.4,3,42.5,3c0,0,0,0,0.1,0c0.1,0,0.2-0.2,0.2-0.3
		C42.7,2.6,42.5,2.5,42.4,2.5z"/>
	<path class="st0" d="M54.5,111.4C54.5,111.4,54.5,111.4,54.5,111.4c0.1,0,0.3-0.1,0.3-0.2c0-0.1-0.1-0.3-0.2-0.3
		c-0.1,0-0.2,0.1-0.3,0.2C54.3,111.3,54.4,111.4,54.5,111.4z"/>
	<path class="st0" d="M48.5,110.9C48.5,110.9,48.5,110.9,48.5,110.9c0.1,0,0.3-0.1,0.3-0.2c0-0.1-0.1-0.3-0.2-0.3
		c-0.1,0-0.3,0.1-0.3,0.2C48.3,110.8,48.4,110.9,48.5,110.9z"/>
	<path class="st0" d="M52.5,111.3C52.5,111.3,52.5,111.3,52.5,111.3c0.2,0,0.3-0.1,0.3-0.2c0-0.1-0.1-0.3-0.2-0.3
		c-0.1,0-0.3,0.1-0.3,0.2C52.3,111.2,52.4,111.3,52.5,111.3z"/>
	<path class="st0" d="M46.5,110.7C46.6,110.7,46.6,110.7,46.5,110.7c0.2,0,0.3-0.1,0.3-0.2c0-0.1-0.1-0.3-0.2-0.3
		c-0.1,0-0.3,0.1-0.3,0.2S46.4,110.6,46.5,110.7z"/>
	<path class="st0" d="M48.3,1.4c-0.1,0-0.2,0.1-0.2,0.3c0,0.1,0.1,0.2,0.2,0.2c0,0,0,0,0,0c0.1,0,0.2-0.1,0.2-0.3S48.5,1.4,48.3,1.4
		z"/>
	<path class="st0" d="M44.4,2.1c-0.1,0-0.2,0.2-0.2,0.3c0,0.1,0.1,0.2,0.2,0.2c0,0,0,0,0,0c0.1,0,0.2-0.2,0.2-0.3
		C44.6,2.1,44.5,2,44.4,2.1z"/>
	<path class="st0" d="M50.5,111.2C50.5,111.2,50.5,111.2,50.5,111.2c0.1,0,0.3-0.1,0.3-0.2c0-0.1-0.1-0.3-0.2-0.3
		c-0.1,0-0.3,0.1-0.3,0.2C50.3,111.1,50.4,111.2,50.5,111.2z"/>
	<path class="st0" d="M46.3,1.7c-0.1,0-0.2,0.1-0.2,0.3c0,0.1,0.1,0.2,0.2,0.2c0,0,0,0,0,0c0.1,0,0.2-0.2,0.2-0.3
		C46.6,1.8,46.5,1.7,46.3,1.7z"/>
	<path class="st0" d="M60.3,1c-0.1,0-0.2,0.1-0.3,0.2c0,0.1,0.1,0.3,0.2,0.3c0,0,0,0,0,0c0.1,0,0.2-0.1,0.2-0.2
		C60.6,1.2,60.5,1,60.3,1z"/>
	<path class="st0" d="M58.3,0.9c-0.1,0-0.2,0.1-0.3,0.2c0,0.1,0.1,0.2,0.2,0.3h0c0.1,0,0.2-0.1,0.2-0.2C58.6,1,58.5,0.9,58.3,0.9z"
		/>
	<path class="st0" d="M38.5,3.7c-0.1,0-0.2,0.2-0.2,0.3c0,0.1,0.1,0.2,0.2,0.2c0,0,0,0,0.1,0c0.1-0.1,0.2-0.2,0.2-0.3
		C38.8,3.7,38.7,3.6,38.5,3.7z"/>
	<path class="st0" d="M36.7,4.3c-0.1,0.1-0.2,0.2-0.2,0.3c0,0.1,0.1,0.2,0.2,0.2c0,0,0,0,0.1,0C37,4.7,37,4.6,37,4.5
		C36.9,4.3,36.8,4.3,36.7,4.3z"/>
	<path class="st0" d="M44.6,110.3C44.6,110.3,44.6,110.3,44.6,110.3c0.2,0,0.3-0.1,0.3-0.2c0-0.1-0.1-0.3-0.2-0.3
		c-0.1,0-0.3,0.1-0.3,0.2C44.3,110.1,44.4,110.2,44.6,110.3z"/>
	<path class="st0" d="M50.3,1.1c-0.1,0-0.2,0.1-0.2,0.3c0,0.1,0.1,0.2,0.2,0.2c0,0,0,0,0,0c0.1,0,0.2-0.1,0.2-0.3
		C50.6,1.2,50.4,1.1,50.3,1.1z"/>
	<path class="st0" d="M40.5,3.1C40.5,3.1,40.5,3.1,40.5,3.1c-0.1,0-0.2,0.2-0.2,0.3c0,0.1,0.1,0.2,0.2,0.2c0,0,0,0,0.1,0
		c0.1,0,0.2-0.2,0.2-0.3C40.7,3.1,40.6,3,40.5,3.1z"/>
	<path class="st0" d="M56.3,0.9C56.3,0.9,56.3,0.9,56.3,0.9c-0.1,0-0.3,0.1-0.3,0.2s0.1,0.2,0.2,0.2c0,0,0,0,0,0
		c0.1,0,0.2-0.1,0.2-0.2C56.6,1,56.5,0.9,56.3,0.9z"/>
	<path class="st0" d="M54.3,0.9c-0.1,0-0.2,0.1-0.2,0.2c0,0.1,0.1,0.2,0.2,0.2c0,0,0,0,0,0c0.1,0,0.2-0.1,0.2-0.2
		C54.6,1,54.4,0.9,54.3,0.9z"/>
	<path class="st0" d="M60.9,13.6C60.9,13.6,60.9,13.6,60.9,13.6C60.9,13.6,61,13.6,60.9,13.6C61,13.6,60.9,13.5,60.9,13.6
		C60.9,13.5,60.9,13.6,60.9,13.6z"/>
	<circle class="st0" cx="65.8" cy="14.4" r="0"/>
	<path class="st0" d="M70.5,15.8C70.5,15.9,70.5,15.9,70.5,15.8c0.1,0.1,0.1,0,0.1,0C70.6,15.8,70.6,15.8,70.5,15.8
		C70.5,15.8,70.5,15.8,70.5,15.8z"/>
	<path class="st0" d="M75.1,17.9C75.2,17.9,75.2,17.8,75.1,17.9c0.1-0.1,0-0.2,0-0.2C75.1,17.7,75,17.8,75.1,17.9
		C75,17.9,75.1,17.9,75.1,17.9z"/>
	<path class="st0" d="M79.4,20.2c-0.1,0-0.1,0-0.1,0.1c0,0.1,0.1,0.1,0.1,0.1s0.1,0,0.1-0.1C79.5,20.2,79.5,20.2,79.4,20.2z"/>
	<path class="st0" d="M83.4,23.4c0.1,0,0.1-0.1,0.1-0.1s-0.1-0.1-0.1-0.1s-0.1,0.1-0.1,0.1S83.3,23.4,83.4,23.4z"/>
	<circle class="st0" cx="87" cy="26.6" r="0.2"/>
	<path class="st0" d="M90.2,30.6c0.1,0,0.2-0.1,0.2-0.2s-0.1-0.2-0.2-0.2S90,30.3,90,30.4C90,30.5,90.1,30.6,90.2,30.6z"/>
	<path class="st0" d="M92.9,34.8c0.1,0,0.2-0.1,0.2-0.2s-0.1-0.2-0.2-0.2s-0.2,0.1-0.2,0.2S92.8,34.8,92.9,34.8z"/>
	<path class="st0" d="M95.2,39.3c0.2,0,0.3-0.1,0.3-0.3c0-0.2-0.1-0.3-0.3-0.3s-0.3,0.1-0.3,0.3C94.8,39.2,95,39.3,95.2,39.3z"/>
	<path class="st0" d="M96.8,44c0.2,0,0.4-0.2,0.4-0.4s-0.2-0.4-0.4-0.4s-0.4,0.2-0.4,0.4S96.7,44,96.8,44z"/>
	<path class="st0" d="M98,48.9c0.2,0,0.4-0.2,0.4-0.4s-0.2-0.4-0.4-0.4c-0.2,0-0.4,0.2-0.4,0.4S97.8,48.9,98,48.9z"/>
	<path class="st0" d="M98.1,53.4c0,0.3,0.2,0.5,0.5,0.5s0.5-0.2,0.5-0.5c0-0.3-0.2-0.5-0.5-0.5C98.3,53,98.1,53.2,98.1,53.4z"/>
	<circle class="st0" cx="98.6" cy="58.4" r="0.5"/>
	<path class="st0" d="M98,63.9c0.3,0,0.6-0.3,0.6-0.6c0-0.3-0.3-0.6-0.6-0.6s-0.6,0.3-0.6,0.6S97.7,63.9,98,63.9z"/>
	<path class="st0" d="M96.9,68.8c0.3,0,0.6-0.3,0.6-0.6s-0.3-0.6-0.6-0.6s-0.6,0.3-0.6,0.6S96.5,68.8,96.9,68.8z"/>
	<path class="st0" d="M95.2,73.5c0.4,0,0.7-0.3,0.7-0.7c0-0.4-0.3-0.7-0.7-0.7c-0.4,0-0.7,0.3-0.7,0.7
		C94.5,73.2,94.8,73.5,95.2,73.5z"/>
	<path class="st0" d="M92.2,77.2c0,0.4,0.3,0.7,0.8,0.7c0.4,0,0.7-0.3,0.7-0.7s-0.3-0.7-0.7-0.7C92.5,76.5,92.2,76.8,92.2,77.2z"/>
	<ellipse class="st0" cx="90.2" cy="81.4" rx="0.8" ry="0.8"/>
	<path class="st0" d="M87,84.3c-0.5,0-0.8,0.4-0.8,0.8S86.6,86,87,86s0.8-0.4,0.8-0.8S87.5,84.3,87,84.3z"/>
	<path class="st0" d="M83.4,87.7c-0.5,0-0.9,0.4-0.9,0.9s0.4,0.9,0.9,0.9s0.9-0.4,0.9-0.9S83.9,87.7,83.4,87.7z"/>
	<path class="st0" d="M79.5,90.7c-0.5,0-0.9,0.4-0.9,0.9s0.4,0.9,0.9,0.9s0.9-0.4,0.9-0.9S79.9,90.7,79.5,90.7z"/>
	<path class="st0" d="M75.2,93.1c-0.5,0-0.9,0.4-0.9,0.9s0.4,0.9,0.9,0.9s0.9-0.4,0.9-0.9C76.1,93.5,75.7,93.1,75.2,93.1z"/>
	<path class="st0" d="M70.6,95.1c-0.5,0-0.9,0.4-0.9,0.9c0,0.5,0.4,0.9,0.9,0.9s0.9-0.4,0.9-0.9C71.6,95.5,71.1,95.1,70.6,95.1z"/>
	<path class="st0" d="M65.9,96.5c-0.5,0-1,0.4-1,1s0.4,1,1,1s1-0.4,1-1S66.4,96.5,65.9,96.5z"/>
	<path class="st0" d="M61,97.3c-0.5,0-1,0.4-1,1s0.4,1,1,1s1-0.4,1-1C62,97.8,61.5,97.3,61,97.3z"/>
	<path class="st0" d="M51.1,99.3c0.5,0,1-0.4,1-1s-0.4-1-1-1s-1,0.4-1,1S50.5,99.3,51.1,99.3z"/>
	<path class="st0" d="M46.2,98.4c0.5,0,1-0.4,1-1s-0.4-1-1-1s-1,0.4-1,1S45.7,98.4,46.2,98.4z"/>
	<circle class="st0" cx="41.4" cy="96" r="0.9"/>
	<path class="st0" d="M36.9,95c0.5,0,0.9-0.4,0.9-0.9c0-0.5-0.4-0.9-0.9-0.9S36,93.6,36,94.1S36.4,95,36.9,95z"/>
	<path class="st0" d="M32.6,92.5c0.5,0,0.9-0.4,0.9-0.9s-0.4-0.9-0.9-0.9c-0.5,0-0.9,0.4-0.9,0.9S32.1,92.5,32.6,92.5z"/>
	<path class="st0" d="M28.6,89.5c0.5,0,0.9-0.4,0.9-0.9s-0.4-0.9-0.9-0.9c-0.5,0-0.9,0.4-0.9,0.9S28.1,89.5,28.6,89.5z"/>
	<ellipse class="st0" cx="25" cy="85.3" rx="0.8" ry="0.8"/>
	<ellipse class="st0" cx="21.8" cy="81.5" rx="0.8" ry="0.8"/>
	<path class="st0" d="M18.3,77.3c0,0.4,0.3,0.8,0.8,0.8s0.8-0.3,0.8-0.8s-0.3-0.8-0.8-0.8S18.3,76.9,18.3,77.3z"/>
	<path class="st0" d="M16.8,72.2c-0.4,0-0.7,0.3-0.7,0.7s0.3,0.7,0.7,0.7c0.4,0,0.7-0.3,0.7-0.7S17.2,72.2,16.8,72.2z"/>
	<path class="st0" d="M15.1,67.6c-0.4,0-0.6,0.3-0.6,0.6s0.3,0.6,0.6,0.6s0.6-0.3,0.6-0.6S15.5,67.6,15.1,67.6z"/>
	<path class="st0" d="M14,62.8c-0.3,0-0.6,0.3-0.6,0.6c0,0.3,0.3,0.6,0.6,0.6s0.6-0.3,0.6-0.6C14.6,63.1,14.3,62.8,14,62.8z"/>
	<path class="st0" d="M13.9,58.5c0-0.3-0.2-0.5-0.5-0.5s-0.5,0.2-0.5,0.5c0,0.3,0.2,0.5,0.5,0.5C13.7,59,13.9,58.8,13.9,58.5z"/>
	<path class="st0" d="M13.4,54c0.3,0,0.5-0.2,0.5-0.5s-0.2-0.5-0.5-0.5s-0.5,0.2-0.5,0.5S13.1,54,13.4,54z"/>
	<circle class="st0" cx="13.9" cy="48.6" r="0.4"/>
	<path class="st0" d="M15.1,44.1c0.2,0,0.4-0.2,0.4-0.4s-0.2-0.4-0.4-0.4s-0.4,0.2-0.4,0.4C14.7,44,14.9,44.1,15.1,44.1z"/>
	<path class="st0" d="M16.8,39.4c0.2,0,0.3-0.1,0.3-0.3c0-0.2-0.1-0.3-0.3-0.3s-0.3,0.1-0.3,0.3C16.5,39.3,16.6,39.4,16.8,39.4z"/>
	<path class="st0" d="M19,34.9c0.1,0,0.2-0.1,0.2-0.2s-0.1-0.2-0.2-0.2s-0.2,0.1-0.2,0.2S18.8,34.9,19,34.9z"/>
	<path class="st0" d="M21.7,30.3c-0.1,0-0.2,0.1-0.2,0.2s0.1,0.2,0.2,0.2s0.2-0.1,0.2-0.2C21.9,30.4,21.8,30.3,21.7,30.3z"/>
	<path class="st0" d="M24.9,26.9c0.1,0,0.1-0.1,0.1-0.1s-0.1-0.1-0.1-0.1s-0.1,0.1-0.1,0.1S24.8,26.9,24.9,26.9z"/>
	<path class="st0" d="M28.5,23.5c0.1,0,0.1-0.1,0.1-0.1s-0.1-0.1-0.1-0.1s-0.1,0.1-0.1,0.1C28.4,23.4,28.4,23.5,28.5,23.5z"/>
	<circle class="st0" cx="32.5" cy="20.4" r="0.1"/>
	<path class="st0" d="M36.7,17.9C36.8,17.9,36.8,17.9,36.7,17.9c0.1-0.1,0-0.2,0-0.2S36.6,17.8,36.7,17.9
		C36.6,17.9,36.7,17.9,36.7,17.9z"/>
	<path class="st0" d="M41.3,15.9C41.3,15.8,41.3,15.8,41.3,15.9c-0.1-0.1-0.1,0-0.1,0C41.2,15.9,41.2,15.9,41.3,15.9
		C41.3,15.9,41.3,15.9,41.3,15.9z"/>
	<path class="st0" d="M46.1,14.4C46.1,14.4,46,14.4,46.1,14.4C46,14.4,46,14.4,46.1,14.4C46,14.5,46,14.5,46.1,14.4
		C46,14.5,46.1,14.5,46.1,14.4z"/>
	<path class="st0" d="M50.9,13.6C50.9,13.6,50.9,13.5,50.9,13.6C50.9,13.5,50.9,13.6,50.9,13.6C50.9,13.6,50.9,13.6,50.9,13.6
		C50.9,13.6,50.9,13.6,50.9,13.6z"/>
</g>
<g id="Back" class="st1">
	<path class="st2" d="M121.7,60.2c-2.3,0-4.2-1.9-4.2-4.2s1.9-4.2,4.2-4.2c0,0,0.1,0,0.1,0c-0.7-10.7-3.9-20.7-9.1-29.4l-5.2,3.6
		C97.2,8.3,77.9-3.7,55.9-3.7C23-3.7-3.8,23.1-3.8,56c0,22.1,12.1,41.4,30,51.7l-3.7,4.6c8.7,5.2,18.7,8.4,29.3,9.1c0,0,0-0.1,0-0.1
		c0-2.3,1.9-4.2,4.2-4.2s4.2,1.9,4.2,4.2c0,0,0,0.1,0,0.1c10.7-0.7,20.7-3.9,29.4-9.1l-3.3-4.8c9-5.3,16.5-12.9,21.6-21.9l4.9,4
		C117.9,80.9,121.1,70.9,121.7,60.2C121.8,60.2,121.7,60.2,121.7,60.2z M103.5,56c0,12.7-4.9,24.6-13.9,33.6l-0.3-0.3
		c-8.8,8.8-20.5,13.7-33,13.8v-3.5c0.5-0.1,0.8-0.5,0.8-1s-0.3-0.9-0.8-1v-2.3c20.1-0.2,36.4-16.5,36.4-36.7c0-0.9,0-1.7-0.1-2.6
		c0-0.1-0.1-0.2-0.3-0.2c-0.1,0-0.2,0.1-0.2,0.3c0.1,0.8,0.1,1.7,0.1,2.6c0,9.2-3.5,17.7-9.2,24.1l-5.1-5.2c2-2.2,3.7-4.8,5-7.6
		c0,0,0,0,0,0c0.1-0.1,0.1-0.1,0.1-0.2c1-2.1,1.7-4.3,2.1-6.7c2.7-0.3,4.7-2.6,4.7-5.4c0-2.7-2-5-4.7-5.4V39.9c0-0.1,0-0.2-0.1-0.2
		l0,0l0,0l-6.5-6.3c0,0,0,0,0,0l-2.4-2.4c0.1-0.2,0.2-0.5,0.2-0.7c0-0.7-0.6-1.3-1.3-1.3s-1.3,0.6-1.3,1.3s0.6,1.3,1.3,1.3
		c0.3,0,0.5-0.1,0.8-0.3l2.2,2.2L75.6,36H59.8c-2.3-4.2-3.6-8.3-3.6-11.9v-4.2c1-0.1,1.8-1,1.8-2s-0.8-1.9-1.8-2V9
		c12.5,0.1,24.2,4.9,33,13.8l1.1-1.1l-0.7,0.7C98.6,31.4,103.5,43.3,103.5,56z M27.3,63.1C27.3,63.1,27.3,63.1,27.3,63.1
		c2.1,0,3.8-1.1,4.8-2.7c1.3,0.6,2.5,1.3,3.8,2.1v0.1l-6.7,6.7C28.3,67.3,27.7,65.3,27.3,63.1z M34.1,34.6l1.7,1.7v16.6
		c-1.3,0.8-2.5,1.5-3.8,2.1c-0.9-1.6-2.7-2.7-4.7-2.7c0,0-0.1,0-0.1,0V41.5L34.1,34.6z M56,26.9c0.5,2.9,1.6,5.9,3.3,9h-6.6
		C54.4,32.9,55.5,29.8,56,26.9z M59.8,37c1.9,3.2,4.4,6.4,7.4,9.4c2.5,2.5,5.1,4.6,7.7,6.3v9.9c-2.6,1.7-5.2,3.9-7.7,6.3
		c-2,2-3.7,4.1-5.3,6.2H50c-1.5-2.1-3.3-4.2-5.3-6.2c-2.5-2.5-5.2-4.7-7.9-6.4v-9.7c2.7-1.8,5.3-3.9,7.9-6.4c3-3,5.5-6.2,7.4-9.4
		H59.8z M78.9,34.4l5.7,5.5v12.3c-0.1,0-0.2,0-0.3,0c-1.9,0-3.7,1-4.6,2.6c-1.2-0.6-2.5-1.3-3.7-2V36.3l2.4-2.4L78.9,34.4
		C78.9,34.4,78.9,34.4,78.9,34.4z M50.5,86.2c-2.9-0.5-5.6-1.5-8.1-2.8l7.3-7.3h0.3c1.3,1.9,2.4,3.8,3.2,5.6
		C51.7,82.6,50.6,84.3,50.5,86.2z M32.2,55.4c1.2-0.6,2.4-1.2,3.6-1.9v8.4c-1.2-0.7-2.4-1.4-3.6-1.9c0.3-0.7,0.5-1.5,0.5-2.3
		C32.8,56.9,32.6,56.1,32.2,55.4z M36.8,63.1c2.2,1.5,4.4,3.2,6.5,5.2l-6.5,6.5V63.1z M43.7,68.6c0.2,0.2,0.5,0.4,0.7,0.7
		c1.9,1.9,3.5,3.8,5,5.8H37.2L43.7,68.6z M76,53.4c1.2,0.7,2.3,1.3,3.5,1.9c-0.4,0.7-0.6,1.6-0.6,2.4c0,0.8,0.2,1.7,0.6,2.4
		c-1.1,0.5-2.3,1.2-3.4,1.9L76,53.4L76,53.4z M75,74.8l-6.4-6.4c2.1-2,4.2-3.7,6.4-5.2V74.8z M68.2,68.7l6.4,6.4h-12
		c1.5-2,3.1-3.9,5-5.8C67.8,69.1,68,68.9,68.2,68.7z M58.7,81.7c0.9-1.9,2-3.7,3.2-5.6h0.2l7.3,7.3c-2.5,1.3-5.2,2.2-8,2.8
		C61.3,84.3,60.2,82.6,58.7,81.7z M56,88.4c-0.3-1.9-0.9-3.9-1.8-6c0.6-0.2,1.2-0.4,1.8-0.4s1.3,0.2,1.8,0.4
		C56.9,84.4,56.3,86.5,56,88.4z M58.2,82.7c1.3,0.8,2.2,2.2,2.2,3.8c0,2.4-1.9,4.3-4.2,4.4C56.3,88.3,57,85.5,58.2,82.7z M58.2,81.5
		C57.5,81.2,56.8,81,56,81c-0.8,0-1.5,0.2-2.2,0.5c-0.8-1.8-1.9-3.6-3.1-5.4h10.6C60.1,77.9,59,79.7,58.2,81.5z M53.7,82.7
		c1.2,2.9,1.9,5.7,2,8.2c-2.3-0.1-4.2-2.1-4.2-4.4C51.5,84.8,52.4,83.4,53.7,82.7z M56.2,91.9c2.8-0.1,5.1-2.4,5.2-5.2
		c6.3-1.2,11.8-4.3,16-8.8l5.2,5.2C76,90.2,66.7,94.7,56.2,94.8C56.2,94.8,56.2,91.9,56.2,91.9z M69.9,83.2l-7-7H76V63.5l6.3,6.4
		C79.7,75.5,75.3,80.2,69.9,83.2z M82.6,69.4L76,62.8v-0.2c1.2-0.8,2.4-1.4,3.7-2c1,1.6,2.7,2.6,4.7,2.6c0.1,0,0.1,0,0.2,0
		C84.1,65.3,83.4,67.4,82.6,69.4z M79.9,57.7c0-0.7,0.2-1.4,0.5-2c2.2,1,4.3,1.6,6.3,2c-2.1,0.3-4.2,1-6.4,2
		C80,59.1,79.9,58.4,79.9,57.7z M84.3,62.2c-1.6,0-3-0.8-3.8-2.1c2.8-1.3,5.6-2,8.2-2.1C88.6,60.3,86.7,62.2,84.3,62.2z M80.6,55.3
		c0.8-1.2,2.2-2,3.7-2c2.3,0,4.2,1.8,4.4,4.1C86.2,57.2,83.4,56.5,80.6,55.3z M75,52.1c-2.5-1.7-5-3.7-7.4-6.1
		c-0.2-0.2-0.5-0.5-0.7-0.7c0,0,0,0,0.1,0l8-8V52.1z M66.6,45C66.6,45,66.6,45,66.6,45c-2.5-2.6-4.6-5.3-6.2-8h14.2L66.6,45z
		 M45.3,45l-8.1-8.1h14.3C49.9,39.7,47.8,42.4,45.3,45z M44.9,45.4c-0.2,0.2-0.4,0.4-0.6,0.6c-2.4,2.4-5,4.5-7.5,6.2V37.3L44.9,45.4
		z M31.8,57.7c0,0.7-0.2,1.3-0.4,1.9c-2.1-0.9-4.1-1.5-6.1-1.9c2-0.3,4-1,6.1-1.9C31.6,56.4,31.8,57,31.8,57.7z M27.3,53.2
		c1.6,0,3,0.9,3.8,2.2c-2.9,1.2-5.6,1.9-8.2,2C23,55.1,24.9,53.2,27.3,53.2z M31.1,60c-0.8,1.3-2.2,2.2-3.8,2.2
		c-2.4,0-4.3-1.8-4.4-4.2C25.5,58,28.2,58.7,31.1,60z M35.8,63.3v12.8H49l-7.1,7.1c-5.5-3-9.9-7.7-12.5-13.4L35.8,63.3z M34.3,77.9
		c4.2,4.5,9.9,7.6,16.2,8.8c0.1,2.8,2.4,5,5.2,5.2v2.9C45.2,94.8,35.8,90.2,29.2,83L34.3,77.9z M75.9,30.2c0,0.5-0.4,0.8-0.8,0.8
		s-0.8-0.4-0.8-0.8c0-0.5,0.4-0.8,0.8-0.8C75.5,29.4,75.9,29.8,75.9,30.2z M55.7,15.8c-1,0.1-1.8,1-1.8,2c0,1,0.8,1.9,1.8,2V24
		c0,3.6-1.3,7.8-3.6,11.9H36.2l-1.7-1.7l2.9-2.9c0.2,0.1,0.5,0.3,0.8,0.3c0.7,0,1.3-0.6,1.3-1.3s-0.6-1.3-1.3-1.3s-1.3,0.6-1.3,1.3
		c0,0.3,0.1,0.5,0.2,0.7L33.9,34l-7.2,7.2c-0.1,0.1-0.1,0.1-0.1,0.2v10.8c-2.7,0.3-4.8,2.6-4.8,5.4c0,2.8,2.1,5.2,4.9,5.4
		c0.4,2.3,1.1,4.5,2.1,6.6c0,0.1,0,0.2,0.1,0.2c0,0,0,0,0,0c1.3,2.8,3,5.4,5.1,7.7l-5.1,5.1c-5.7-6.4-9.2-14.8-9.2-24
		c0-0.9,0-1.7,0.1-2.6c0-0.1-0.1-0.3-0.2-0.3c-0.1,0-0.3,0.1-0.3,0.2c-0.1,0.9-0.1,1.8-0.1,2.6c0,20.1,16.3,36.6,36.5,36.7v2.3
		c-0.4,0.1-0.7,0.5-0.7,0.9c0,0.4,0.3,0.8,0.7,0.9v3.6c-12.5-0.1-24.2-4.9-33-13.8l-0.4,0.3c-9-9-13.9-20.9-13.9-33.6
		s4.9-24.6,13.9-33.6l0.4,0.4c8.8-8.8,20.6-13.7,33-13.8C55.7,9,55.7,15.8,55.7,15.8z M37.2,30.2c0-0.5,0.4-0.8,0.8-0.8
		c0.5,0,0.8,0.4,0.8,0.8c0,0.5-0.4,0.8-0.8,0.8S37.2,30.7,37.2,30.2z M56.2,114.7v-8.7c13.3-0.1,25.7-5.3,35.1-14.7L91,91.1
		c9.4-9.4,14.5-21.8,14.5-35S100.4,30.4,91,21l0.3-0.4C81.9,11.2,69.3,6,56,6C42.6,6,30,11.2,20.6,20.6l0.4,0.4
		C11.6,30.4,6.4,42.8,6.4,56c0,13.2,5.2,25.7,14.5,35l-0.4,0.3c9.4,9.4,21.9,14.6,35.1,14.7v8.7C23.4,114.6-2.8,88.3-2.8,56
		c0-32.4,26.3-58.7,58.7-58.7s58.7,26.3,58.7,58.7C114.6,88.3,88.5,114.6,56.2,114.7z"/>
</g>
<g id="Front" class="st1">
	<path class="st2" d="M56,72c7.8,0,14.1-6.3,14.1-14.1c0-7.8-6.3-14.1-14.1-14.1S41.8,50,41.8,57.8S48.2,72,56,72z M56,44.7
		c7.2,0,13.1,5.9,13.1,13.1C69.1,65.1,63.2,71,56,71s-13.1-5.9-13.1-13.1C42.8,50.6,48.7,44.7,56,44.7z"/>
	<path class="st2" d="M56,69c-6.2,0-11.2-5-11.2-11.2h-1.5c0,7,5.7,12.8,12.8,12.8s12.7-5.7,12.7-12.8h-1.5C67.2,64,62.2,69,56,69z"
		/>
	<path class="st2" d="M56,68.5c5.9,0,10.7-4.8,10.7-10.7h-0.8c0,5.5-4.5,10-10,10s-10-4.5-10-10h-0.8C45.3,63.7,50.1,68.5,56,68.5z"
		/>
	<path class="st2" d="M56,67.4c5.3,0,9.6-4.3,9.6-9.6h-0.2c0,5.1-4.2,9.3-9.3,9.3s-9.3-4.2-9.3-9.3h-0.2
		C46.4,63.1,50.7,67.4,56,67.4z"/>
	<path class="st2" d="M56,51.1L49.3,62h13.3L56,51.1z M56.1,53.2l3.8,6.3l-3.8-3.8l0,0V53.2z M55.8,53.2v2.4L52,59.5L55.8,53.2z
		 M51.4,60.4l4.4-4.4v5h-4.8L51.4,60.4z M56.1,61v-5l4.4,4.4l0.3,0.6H56.1z"/>
</g>
</svg>
