<?xml version="1.0" encoding="utf-8"?>
<!-- Generator: Adobe Illustrator 23.0.6, SVG Export Plug-In . SVG Version: 6.00 Build 0)  -->
<svg version="1.1" xmlns="http://www.w3.org/2000/svg" xmlns:xlink="http://www.w3.org/1999/xlink" x="0px" y="0px"
	 viewBox="0 0 1000 600" style="enable-background:new 0 0 1000 600;" xml:space="preserve">
<style type="text/css">
	.st0{fill:none;stroke:#123533;stroke-width:2;stroke-miterlimit:10;}
	.st1{fill:none;stroke:#123533;stroke-miterlimit:10;}
</style>
<g id="Layer_1">
</g>
<g id="Layer_2">
	<rect x="0" y="0.8" class="st0" width="99" height="99"/>
	<rect x="49" y="0.8" class="st1" width="50" height="49"/>
	<rect x="0" y="49.8" class="st1" width="49" height="50"/>
	<path class="st1" d="M2,0.3h-2.4v2.4c0.2,0,0.3,0.1,0.5,0.1c1.1,0,2-0.9,2-2C2,0.6,2,0.5,2,0.3z"/>
	<path class="st1" d="M2.2,100.3c0.2-0.3,0.3-0.6,0.3-1c0-1.1-0.9-2-2-2c-0.4,0-0.7,0.1-1,0.3v2.7H2.2z"/>
	<path class="st1" d="M99.5,0.3h-2.7c-0.2,0.3-0.3,0.6-0.3,1c0,1.1,0.9,2,2,2c0.4,0,0.7-0.1,1-0.3V0.3z"/>
	<path class="st1" d="M99.5,97.6c-0.3-0.2-0.6-0.3-1-0.3c-1.1,0-2,0.9-2,2c0,0.4,0.1,0.7,0.3,1h2.7V97.6z"/>
	<rect x="100" y="0.8" class="st0" width="99" height="99"/>
	<rect x="149" y="0.8" class="st1" width="50" height="49"/>
	<rect x="100" y="49.8" class="st1" width="49" height="50"/>
	<path class="st1" d="M102,0.3h-2.4v2.4c0.2,0,0.3,0.1,0.5,0.1c1.1,0,2-0.9,2-2C102,0.6,102,0.5,102,0.3z"/>
	<path class="st1" d="M102.2,100.3c0.2-0.3,0.3-0.6,0.3-1c0-1.1-0.9-2-2-2c-0.4,0-0.7,0.1-1,0.3v2.7H102.2z"/>
	<path class="st1" d="M199.5,0.3h-2.7c-0.2,0.3-0.3,0.6-0.3,1c0,1.1,0.9,2,2,2c0.4,0,0.7-0.1,1-0.3V0.3z"/>
	<path class="st1" d="M199.5,97.6c-0.3-0.2-0.6-0.3-1-0.3c-1.1,0-2,0.9-2,2c0,0.4,0.1,0.7,0.3,1h2.7V97.6z"/>
	<rect x="200" y="0.8" class="st0" width="99" height="99"/>
	<rect x="249" y="0.8" class="st1" width="50" height="49"/>
	<rect x="200" y="49.8" class="st1" width="49" height="50"/>
	<path class="st1" d="M202,0.3h-2.4v2.4c0.2,0,0.3,0.1,0.5,0.1c1.1,0,2-0.9,2-2C202,0.6,202,0.5,202,0.3z"/>
	<path class="st1" d="M202.2,100.3c0.2-0.3,0.3-0.6,0.3-1c0-1.1-0.9-2-2-2c-0.4,0-0.7,0.1-1,0.3v2.7H202.2z"/>
	<path class="st1" d="M299.5,0.3h-2.7c-0.2,0.3-0.3,0.6-0.3,1c0,1.1,0.9,2,2,2c0.4,0,0.7-0.1,1-0.3V0.3z"/>
	<path class="st1" d="M299.5,97.6c-0.3-0.2-0.6-0.3-1-0.3c-1.1,0-2,0.9-2,2c0,0.4,0.1,0.7,0.3,1h2.7V97.6z"/>
	<rect x="300" y="0.8" class="st0" width="99" height="99"/>
	<rect x="349" y="0.8" class="st1" width="50" height="49"/>
	<rect x="300" y="49.8" class="st1" width="49" height="50"/>
	<path class="st1" d="M302,0.3h-2.4v2.4c0.2,0,0.3,0.1,0.5,0.1c1.1,0,2-0.9,2-2C302,0.6,302,0.5,302,0.3z"/>
	<path class="st1" d="M302.2,100.3c0.2-0.3,0.3-0.6,0.3-1c0-1.1-0.9-2-2-2c-0.4,0-0.7,0.1-1,0.3v2.7H302.2z"/>
	<path class="st1" d="M399.5,0.3h-2.7c-0.2,0.3-0.3,0.6-0.3,1c0,1.1,0.9,2,2,2c0.4,0,0.7-0.1,1-0.3V0.3z"/>
	<path class="st1" d="M399.5,97.6c-0.3-0.2-0.6-0.3-1-0.3c-1.1,0-2,0.9-2,2c0,0.4,0.1,0.7,0.3,1h2.7V97.6z"/>
	<rect x="400" y="0.8" class="st0" width="99" height="99"/>
	<rect x="449" y="0.8" class="st1" width="50" height="49"/>
	<rect x="400" y="49.8" class="st1" width="49" height="50"/>
	<path class="st1" d="M402,0.3h-2.4v2.4c0.2,0,0.3,0.1,0.5,0.1c1.1,0,2-0.9,2-2C402,0.6,402,0.5,402,0.3z"/>
	<path class="st1" d="M402.2,100.3c0.2-0.3,0.3-0.6,0.3-1c0-1.1-0.9-2-2-2c-0.4,0-0.7,0.1-1,0.3v2.7H402.2z"/>
	<path class="st1" d="M499.5,0.3h-2.7c-0.2,0.3-0.3,0.6-0.3,1c0,1.1,0.9,2,2,2c0.4,0,0.7-0.1,1-0.3V0.3z"/>
	<path class="st1" d="M499.5,97.6c-0.3-0.2-0.6-0.3-1-0.3c-1.1,0-2,0.9-2,2c0,0.4,0.1,0.7,0.3,1h2.7V97.6z"/>
	<rect x="500" y="0.8" class="st0" width="99" height="99"/>
	<rect x="549" y="0.8" class="st1" width="50" height="49"/>
	<rect x="500" y="49.8" class="st1" width="49" height="50"/>
	<path class="st1" d="M502,0.3h-2.4v2.4c0.2,0,0.3,0.1,0.5,0.1c1.1,0,2-0.9,2-2C502,0.6,502,0.5,502,0.3z"/>
	<path class="st1" d="M502.2,100.3c0.2-0.3,0.3-0.6,0.3-1c0-1.1-0.9-2-2-2c-0.4,0-0.7,0.1-1,0.3v2.7H502.2z"/>
	<path class="st1" d="M599.5,0.3h-2.7c-0.2,0.3-0.3,0.6-0.3,1c0,1.1,0.9,2,2,2c0.4,0,0.7-0.1,1-0.3V0.3z"/>
	<path class="st1" d="M599.5,97.6c-0.3-0.2-0.6-0.3-1-0.3c-1.1,0-2,0.9-2,2c0,0.4,0.1,0.7,0.3,1h2.7V97.6z"/>
	<rect x="600" y="0.8" class="st0" width="99" height="99"/>
	<rect x="649" y="0.8" class="st1" width="50" height="49"/>
	<rect x="600" y="49.8" class="st1" width="49" height="50"/>
	<path class="st1" d="M602,0.3h-2.4v2.4c0.2,0,0.3,0.1,0.5,0.1c1.1,0,2-0.9,2-2C602,0.6,602,0.5,602,0.3z"/>
	<path class="st1" d="M602.2,100.3c0.2-0.3,0.3-0.6,0.3-1c0-1.1-0.9-2-2-2c-0.4,0-0.7,0.1-1,0.3v2.7H602.2z"/>
	<path class="st1" d="M699.5,0.3h-2.7c-0.2,0.3-0.3,0.6-0.3,1c0,1.1,0.9,2,2,2c0.4,0,0.7-0.1,1-0.3V0.3z"/>
	<path class="st1" d="M699.5,97.6c-0.3-0.2-0.6-0.3-1-0.3c-1.1,0-2,0.9-2,2c0,0.4,0.1,0.7,0.3,1h2.7V97.6z"/>
	<rect x="700" y="0.8" class="st0" width="99" height="99"/>
	<rect x="749" y="0.8" class="st1" width="50" height="49"/>
	<rect x="700" y="49.8" class="st1" width="49" height="50"/>
	<path class="st1" d="M702,0.3h-2.4v2.4c0.2,0,0.3,0.1,0.5,0.1c1.1,0,2-0.9,2-2C702,0.6,702,0.5,702,0.3z"/>
	<path class="st1" d="M702.2,100.3c0.2-0.3,0.3-0.6,0.3-1c0-1.1-0.9-2-2-2c-0.4,0-0.7,0.1-1,0.3v2.7H702.2z"/>
	<path class="st1" d="M799.5,0.3h-2.7c-0.2,0.3-0.3,0.6-0.3,1c0,1.1,0.9,2,2,2c0.4,0,0.7-0.1,1-0.3V0.3z"/>
	<path class="st1" d="M799.5,97.6c-0.3-0.2-0.6-0.3-1-0.3c-1.1,0-2,0.9-2,2c0,0.4,0.1,0.7,0.3,1h2.7V97.6z"/>
	<rect x="800" y="0.8" class="st0" width="99" height="99"/>
	<rect x="849" y="0.8" class="st1" width="50" height="49"/>
	<rect x="800" y="49.8" class="st1" width="49" height="50"/>
	<path class="st1" d="M802,0.3h-2.4v2.4c0.2,0,0.3,0.1,0.5,0.1c1.1,0,2-0.9,2-2C802,0.6,802,0.5,802,0.3z"/>
	<path class="st1" d="M802.2,100.3c0.2-0.3,0.3-0.6,0.3-1c0-1.1-0.9-2-2-2c-0.4,0-0.7,0.1-1,0.3v2.7H802.2z"/>
	<path class="st1" d="M899.5,0.3h-2.7c-0.2,0.3-0.3,0.6-0.3,1c0,1.1,0.9,2,2,2c0.4,0,0.7-0.1,1-0.3V0.3z"/>
	<path class="st1" d="M899.5,97.6c-0.3-0.2-0.6-0.3-1-0.3c-1.1,0-2,0.9-2,2c0,0.4,0.1,0.7,0.3,1h2.7V97.6z"/>
	<rect x="900" y="0.8" class="st0" width="99" height="99"/>
	<rect x="949" y="0.8" class="st1" width="50" height="49"/>
	<rect x="900" y="49.8" class="st1" width="49" height="50"/>
	<path class="st1" d="M902,0.3h-2.4v2.4c0.2,0,0.3,0.1,0.5,0.1c1.1,0,2-0.9,2-2C902,0.6,902,0.5,902,0.3z"/>
	<path class="st1" d="M902.2,100.3c0.2-0.3,0.3-0.6,0.3-1c0-1.1-0.9-2-2-2c-0.4,0-0.7,0.1-1,0.3v2.7H902.2z"/>
	<path class="st1" d="M999.5,0.3h-2.7c-0.2,0.3-0.3,0.6-0.3,1c0,1.1,0.9,2,2,2c0.4,0,0.7-0.1,1-0.3V0.3z"/>
	<path class="st1" d="M999.5,97.6c-0.3-0.2-0.6-0.3-1-0.3c-1.1,0-2,0.9-2,2c0,0.4,0.1,0.7,0.3,1h2.7V97.6z"/>
	<rect x="0" y="99.8" class="st0" width="99" height="99"/>
	<rect x="49" y="99.8" class="st1" width="50" height="49"/>
	<rect x="0" y="148.8" class="st1" width="49" height="50"/>
	<path class="st1" d="M2,99.3h-2.4v2.4c0.2,0,0.3,0.1,0.5,0.1c1.1,0,2-0.9,2-2C2,99.6,2,99.5,2,99.3z"/>
	<path class="st1" d="M2.2,199.3c0.2-0.3,0.3-0.6,0.3-1c0-1.1-0.9-2-2-2c-0.4,0-0.7,0.1-1,0.3v2.7H2.2z"/>
	<path class="st1" d="M99.5,99.3h-2.7c-0.2,0.3-0.3,0.6-0.3,1c0,1.1,0.9,2,2,2c0.4,0,0.7-0.1,1-0.3V99.3z"/>
	<path class="st1" d="M99.5,196.6c-0.3-0.2-0.6-0.3-1-0.3c-1.1,0-2,0.9-2,2c0,0.4,0.1,0.7,0.3,1h2.7V196.6z"/>
	<rect x="100" y="99.8" class="st0" width="99" height="99"/>
	<rect x="149" y="99.8" class="st1" width="50" height="49"/>
	<rect x="100" y="148.8" class="st1" width="49" height="50"/>
	<path class="st1" d="M102,99.3h-2.4v2.4c0.2,0,0.3,0.1,0.5,0.1c1.1,0,2-0.9,2-2C102,99.6,102,99.5,102,99.3z"/>
	<path class="st1" d="M102.2,199.3c0.2-0.3,0.3-0.6,0.3-1c0-1.1-0.9-2-2-2c-0.4,0-0.7,0.1-1,0.3v2.7H102.2z"/>
	<path class="st1" d="M199.5,99.3h-2.7c-0.2,0.3-0.3,0.6-0.3,1c0,1.1,0.9,2,2,2c0.4,0,0.7-0.1,1-0.3V99.3z"/>
	<path class="st1" d="M199.5,196.6c-0.3-0.2-0.6-0.3-1-0.3c-1.1,0-2,0.9-2,2c0,0.4,0.1,0.7,0.3,1h2.7V196.6z"/>
	<rect x="200" y="99.8" class="st0" width="99" height="99"/>
	<rect x="249" y="99.8" class="st1" width="50" height="49"/>
	<rect x="200" y="148.8" class="st1" width="49" height="50"/>
	<path class="st1" d="M202,99.3h-2.4v2.4c0.2,0,0.3,0.1,0.5,0.1c1.1,0,2-0.9,2-2C202,99.6,202,99.5,202,99.3z"/>
	<path class="st1" d="M202.2,199.3c0.2-0.3,0.3-0.6,0.3-1c0-1.1-0.9-2-2-2c-0.4,0-0.7,0.1-1,0.3v2.7H202.2z"/>
	<path class="st1" d="M299.5,99.3h-2.7c-0.2,0.3-0.3,0.6-0.3,1c0,1.1,0.9,2,2,2c0.4,0,0.7-0.1,1-0.3V99.3z"/>
	<path class="st1" d="M299.5,196.6c-0.3-0.2-0.6-0.3-1-0.3c-1.1,0-2,0.9-2,2c0,0.4,0.1,0.7,0.3,1h2.7V196.6z"/>
	<rect x="300" y="99.8" class="st0" width="99" height="99"/>
	<rect x="349" y="99.8" class="st1" width="50" height="49"/>
	<rect x="300" y="148.8" class="st1" width="49" height="50"/>
	<path class="st1" d="M302,99.3h-2.4v2.4c0.2,0,0.3,0.1,0.5,0.1c1.1,0,2-0.9,2-2C302,99.6,302,99.5,302,99.3z"/>
	<path class="st1" d="M302.2,199.3c0.2-0.3,0.3-0.6,0.3-1c0-1.1-0.9-2-2-2c-0.4,0-0.7,0.1-1,0.3v2.7H302.2z"/>
	<path class="st1" d="M399.5,99.3h-2.7c-0.2,0.3-0.3,0.6-0.3,1c0,1.1,0.9,2,2,2c0.4,0,0.7-0.1,1-0.3V99.3z"/>
	<path class="st1" d="M399.5,196.6c-0.3-0.2-0.6-0.3-1-0.3c-1.1,0-2,0.9-2,2c0,0.4,0.1,0.7,0.3,1h2.7V196.6z"/>
	<rect x="400" y="99.8" class="st0" width="99" height="99"/>
	<rect x="449" y="99.8" class="st1" width="50" height="49"/>
	<rect x="400" y="148.8" class="st1" width="49" height="50"/>
	<path class="st1" d="M402,99.3h-2.4v2.4c0.2,0,0.3,0.1,0.5,0.1c1.1,0,2-0.9,2-2C402,99.6,402,99.5,402,99.3z"/>
	<path class="st1" d="M402.2,199.3c0.2-0.3,0.3-0.6,0.3-1c0-1.1-0.9-2-2-2c-0.4,0-0.7,0.1-1,0.3v2.7H402.2z"/>
	<path class="st1" d="M499.5,99.3h-2.7c-0.2,0.3-0.3,0.6-0.3,1c0,1.1,0.9,2,2,2c0.4,0,0.7-0.1,1-0.3V99.3z"/>
	<path class="st1" d="M499.5,196.6c-0.3-0.2-0.6-0.3-1-0.3c-1.1,0-2,0.9-2,2c0,0.4,0.1,0.7,0.3,1h2.7V196.6z"/>
	<rect x="500" y="99.8" class="st0" width="99" height="99"/>
	<rect x="549" y="99.8" class="st1" width="50" height="49"/>
	<rect x="500" y="148.8" class="st1" width="49" height="50"/>
	<path class="st1" d="M502,99.3h-2.4v2.4c0.2,0,0.3,0.1,0.5,0.1c1.1,0,2-0.9,2-2C502,99.6,502,99.5,502,99.3z"/>
	<path class="st1" d="M502.2,199.3c0.2-0.3,0.3-0.6,0.3-1c0-1.1-0.9-2-2-2c-0.4,0-0.7,0.1-1,0.3v2.7H502.2z"/>
	<path class="st1" d="M599.5,99.3h-2.7c-0.2,0.3-0.3,0.6-0.3,1c0,1.1,0.9,2,2,2c0.4,0,0.7-0.1,1-0.3V99.3z"/>
	<path class="st1" d="M599.5,196.6c-0.3-0.2-0.6-0.3-1-0.3c-1.1,0-2,0.9-2,2c0,0.4,0.1,0.7,0.3,1h2.7V196.6z"/>
	<rect x="600" y="99.8" class="st0" width="99" height="99"/>
	<rect x="649" y="99.8" class="st1" width="50" height="49"/>
	<rect x="600" y="148.8" class="st1" width="49" height="50"/>
	<path class="st1" d="M602,99.3h-2.4v2.4c0.2,0,0.3,0.1,0.5,0.1c1.1,0,2-0.9,2-2C602,99.6,602,99.5,602,99.3z"/>
	<path class="st1" d="M602.2,199.3c0.2-0.3,0.3-0.6,0.3-1c0-1.1-0.9-2-2-2c-0.4,0-0.7,0.1-1,0.3v2.7H602.2z"/>
	<path class="st1" d="M699.5,99.3h-2.7c-0.2,0.3-0.3,0.6-0.3,1c0,1.1,0.9,2,2,2c0.4,0,0.7-0.1,1-0.3V99.3z"/>
	<path class="st1" d="M699.5,196.6c-0.3-0.2-0.6-0.3-1-0.3c-1.1,0-2,0.9-2,2c0,0.4,0.1,0.7,0.3,1h2.7V196.6z"/>
	<rect x="700" y="99.8" class="st0" width="99" height="99"/>
	<rect x="749" y="99.8" class="st1" width="50" height="49"/>
	<rect x="700" y="148.8" class="st1" width="49" height="50"/>
	<path class="st1" d="M702,99.3h-2.4v2.4c0.2,0,0.3,0.1,0.5,0.1c1.1,0,2-0.9,2-2C702,99.6,702,99.5,702,99.3z"/>
	<path class="st1" d="M702.2,199.3c0.2-0.3,0.3-0.6,0.3-1c0-1.1-0.9-2-2-2c-0.4,0-0.7,0.1-1,0.3v2.7H702.2z"/>
	<path class="st1" d="M799.5,99.3h-2.7c-0.2,0.3-0.3,0.6-0.3,1c0,1.1,0.9,2,2,2c0.4,0,0.7-0.1,1-0.3V99.3z"/>
	<path class="st1" d="M799.5,196.6c-0.3-0.2-0.6-0.3-1-0.3c-1.1,0-2,0.9-2,2c0,0.4,0.1,0.7,0.3,1h2.7V196.6z"/>
	<rect x="800" y="99.8" class="st0" width="99" height="99"/>
	<rect x="849" y="99.8" class="st1" width="50" height="49"/>
	<rect x="800" y="148.8" class="st1" width="49" height="50"/>
	<path class="st1" d="M802,99.3h-2.4v2.4c0.2,0,0.3,0.1,0.5,0.1c1.1,0,2-0.9,2-2C802,99.6,802,99.5,802,99.3z"/>
	<path class="st1" d="M802.2,199.3c0.2-0.3,0.3-0.6,0.3-1c0-1.1-0.9-2-2-2c-0.4,0-0.7,0.1-1,0.3v2.7H802.2z"/>
	<path class="st1" d="M899.5,99.3h-2.7c-0.2,0.3-0.3,0.6-0.3,1c0,1.1,0.9,2,2,2c0.4,0,0.7-0.1,1-0.3V99.3z"/>
	<path class="st1" d="M899.5,196.6c-0.3-0.2-0.6-0.3-1-0.3c-1.1,0-2,0.9-2,2c0,0.4,0.1,0.7,0.3,1h2.7V196.6z"/>
	<rect x="900" y="99.8" class="st0" width="99" height="99"/>
	<rect x="949" y="99.8" class="st1" width="50" height="49"/>
	<rect x="900" y="148.8" class="st1" width="49" height="50"/>
	<path class="st1" d="M902,99.3h-2.4v2.4c0.2,0,0.3,0.1,0.5,0.1c1.1,0,2-0.9,2-2C902,99.6,902,99.5,902,99.3z"/>
	<path class="st1" d="M902.2,199.3c0.2-0.3,0.3-0.6,0.3-1c0-1.1-0.9-2-2-2c-0.4,0-0.7,0.1-1,0.3v2.7H902.2z"/>
	<path class="st1" d="M999.5,99.3h-2.7c-0.2,0.3-0.3,0.6-0.3,1c0,1.1,0.9,2,2,2c0.4,0,0.7-0.1,1-0.3V99.3z"/>
	<path class="st1" d="M999.5,196.6c-0.3-0.2-0.6-0.3-1-0.3c-1.1,0-2,0.9-2,2c0,0.4,0.1,0.7,0.3,1h2.7V196.6z"/>
	<rect x="0" y="200.8" class="st0" width="99" height="99"/>
	<rect x="49" y="200.8" class="st1" width="50" height="49"/>
	<rect x="0" y="249.8" class="st1" width="49" height="50"/>
	<path class="st1" d="M2,200.3h-2.4v2.4c0.2,0,0.3,0.1,0.5,0.1c1.1,0,2-0.9,2-2C2,200.6,2,200.5,2,200.3z"/>
	<path class="st1" d="M2.2,300.3c0.2-0.3,0.3-0.6,0.3-1c0-1.1-0.9-2-2-2c-0.4,0-0.7,0.1-1,0.3v2.7H2.2z"/>
	<path class="st1" d="M99.5,200.3h-2.7c-0.2,0.3-0.3,0.6-0.3,1c0,1.1,0.9,2,2,2c0.4,0,0.7-0.1,1-0.3V200.3z"/>
	<path class="st1" d="M99.5,297.6c-0.3-0.2-0.6-0.3-1-0.3c-1.1,0-2,0.9-2,2c0,0.4,0.1,0.7,0.3,1h2.7V297.6z"/>
	<rect x="100" y="200.8" class="st0" width="99" height="99"/>
	<rect x="149" y="200.8" class="st1" width="50" height="49"/>
	<rect x="100" y="249.8" class="st1" width="49" height="50"/>
	<path class="st1" d="M102,200.3h-2.4v2.4c0.2,0,0.3,0.1,0.5,0.1c1.1,0,2-0.9,2-2C102,200.6,102,200.5,102,200.3z"/>
	<path class="st1" d="M102.2,300.3c0.2-0.3,0.3-0.6,0.3-1c0-1.1-0.9-2-2-2c-0.4,0-0.7,0.1-1,0.3v2.7H102.2z"/>
	<path class="st1" d="M199.5,200.3h-2.7c-0.2,0.3-0.3,0.6-0.3,1c0,1.1,0.9,2,2,2c0.4,0,0.7-0.1,1-0.3V200.3z"/>
	<path class="st1" d="M199.5,297.6c-0.3-0.2-0.6-0.3-1-0.3c-1.1,0-2,0.9-2,2c0,0.4,0.1,0.7,0.3,1h2.7V297.6z"/>
	<rect x="200" y="200.8" class="st0" width="99" height="99"/>
	<rect x="249" y="200.8" class="st1" width="50" height="49"/>
	<rect x="200" y="249.8" class="st1" width="49" height="50"/>
	<path class="st1" d="M202,200.3h-2.4v2.4c0.2,0,0.3,0.1,0.5,0.1c1.1,0,2-0.9,2-2C202,200.6,202,200.5,202,200.3z"/>
	<path class="st1" d="M202.2,300.3c0.2-0.3,0.3-0.6,0.3-1c0-1.1-0.9-2-2-2c-0.4,0-0.7,0.1-1,0.3v2.7H202.2z"/>
	<path class="st1" d="M299.5,200.3h-2.7c-0.2,0.3-0.3,0.6-0.3,1c0,1.1,0.9,2,2,2c0.4,0,0.7-0.1,1-0.3V200.3z"/>
	<path class="st1" d="M299.5,297.6c-0.3-0.2-0.6-0.3-1-0.3c-1.1,0-2,0.9-2,2c0,0.4,0.1,0.7,0.3,1h2.7V297.6z"/>
	<rect x="300" y="200.8" class="st0" width="99" height="99"/>
	<rect x="349" y="200.8" class="st1" width="50" height="49"/>
	<rect x="300" y="249.8" class="st1" width="49" height="50"/>
	<path class="st1" d="M302,200.3h-2.4v2.4c0.2,0,0.3,0.1,0.5,0.1c1.1,0,2-0.9,2-2C302,200.6,302,200.5,302,200.3z"/>
	<path class="st1" d="M302.2,300.3c0.2-0.3,0.3-0.6,0.3-1c0-1.1-0.9-2-2-2c-0.4,0-0.7,0.1-1,0.3v2.7H302.2z"/>
	<path class="st1" d="M399.5,200.3h-2.7c-0.2,0.3-0.3,0.6-0.3,1c0,1.1,0.9,2,2,2c0.4,0,0.7-0.1,1-0.3V200.3z"/>
	<path class="st1" d="M399.5,297.6c-0.3-0.2-0.6-0.3-1-0.3c-1.1,0-2,0.9-2,2c0,0.4,0.1,0.7,0.3,1h2.7V297.6z"/>
	<rect x="400" y="200.8" class="st0" width="99" height="99"/>
	<rect x="449" y="200.8" class="st1" width="50" height="49"/>
	<rect x="400" y="249.8" class="st1" width="49" height="50"/>
	<path class="st1" d="M402,200.3h-2.4v2.4c0.2,0,0.3,0.1,0.5,0.1c1.1,0,2-0.9,2-2C402,200.6,402,200.5,402,200.3z"/>
	<path class="st1" d="M402.2,300.3c0.2-0.3,0.3-0.6,0.3-1c0-1.1-0.9-2-2-2c-0.4,0-0.7,0.1-1,0.3v2.7H402.2z"/>
	<path class="st1" d="M499.5,200.3h-2.7c-0.2,0.3-0.3,0.6-0.3,1c0,1.1,0.9,2,2,2c0.4,0,0.7-0.1,1-0.3V200.3z"/>
	<path class="st1" d="M499.5,297.6c-0.3-0.2-0.6-0.3-1-0.3c-1.1,0-2,0.9-2,2c0,0.4,0.1,0.7,0.3,1h2.7V297.6z"/>
	<rect x="500" y="200.8" class="st0" width="99" height="99"/>
	<rect x="549" y="200.8" class="st1" width="50" height="49"/>
	<rect x="500" y="249.8" class="st1" width="49" height="50"/>
	<path class="st1" d="M502,200.3h-2.4v2.4c0.2,0,0.3,0.1,0.5,0.1c1.1,0,2-0.9,2-2C502,200.6,502,200.5,502,200.3z"/>
	<path class="st1" d="M502.2,300.3c0.2-0.3,0.3-0.6,0.3-1c0-1.1-0.9-2-2-2c-0.4,0-0.7,0.1-1,0.3v2.7H502.2z"/>
	<path class="st1" d="M599.5,200.3h-2.7c-0.2,0.3-0.3,0.6-0.3,1c0,1.1,0.9,2,2,2c0.4,0,0.7-0.1,1-0.3V200.3z"/>
	<path class="st1" d="M599.5,297.6c-0.3-0.2-0.6-0.3-1-0.3c-1.1,0-2,0.9-2,2c0,0.4,0.1,0.7,0.3,1h2.7V297.6z"/>
	<rect x="600" y="200.8" class="st0" width="99" height="99"/>
	<rect x="649" y="200.8" class="st1" width="50" height="49"/>
	<rect x="600" y="249.8" class="st1" width="49" height="50"/>
	<path class="st1" d="M602,200.3h-2.4v2.4c0.2,0,0.3,0.1,0.5,0.1c1.1,0,2-0.9,2-2C602,200.6,602,200.5,602,200.3z"/>
	<path class="st1" d="M602.2,300.3c0.2-0.3,0.3-0.6,0.3-1c0-1.1-0.9-2-2-2c-0.4,0-0.7,0.1-1,0.3v2.7H602.2z"/>
	<path class="st1" d="M699.5,200.3h-2.7c-0.2,0.3-0.3,0.6-0.3,1c0,1.1,0.9,2,2,2c0.4,0,0.7-0.1,1-0.3V200.3z"/>
	<path class="st1" d="M699.5,297.6c-0.3-0.2-0.6-0.3-1-0.3c-1.1,0-2,0.9-2,2c0,0.4,0.1,0.7,0.3,1h2.7V297.6z"/>
	<rect x="700" y="200.8" class="st0" width="99" height="99"/>
	<rect x="749" y="200.8" class="st1" width="50" height="49"/>
	<rect x="700" y="249.8" class="st1" width="49" height="50"/>
	<path class="st1" d="M702,200.3h-2.4v2.4c0.2,0,0.3,0.1,0.5,0.1c1.1,0,2-0.9,2-2C702,200.6,702,200.5,702,200.3z"/>
	<path class="st1" d="M702.2,300.3c0.2-0.3,0.3-0.6,0.3-1c0-1.1-0.9-2-2-2c-0.4,0-0.7,0.1-1,0.3v2.7H702.2z"/>
	<path class="st1" d="M799.5,200.3h-2.7c-0.2,0.3-0.3,0.6-0.3,1c0,1.1,0.9,2,2,2c0.4,0,0.7-0.1,1-0.3V200.3z"/>
	<path class="st1" d="M799.5,297.6c-0.3-0.2-0.6-0.3-1-0.3c-1.1,0-2,0.9-2,2c0,0.4,0.1,0.7,0.3,1h2.7V297.6z"/>
	<rect x="800" y="200.8" class="st0" width="99" height="99"/>
	<rect x="849" y="200.8" class="st1" width="50" height="49"/>
	<rect x="800" y="249.8" class="st1" width="49" height="50"/>
	<path class="st1" d="M802,200.3h-2.4v2.4c0.2,0,0.3,0.1,0.5,0.1c1.1,0,2-0.9,2-2C802,200.6,802,200.5,802,200.3z"/>
	<path class="st1" d="M802.2,300.3c0.2-0.3,0.3-0.6,0.3-1c0-1.1-0.9-2-2-2c-0.4,0-0.7,0.1-1,0.3v2.7H802.2z"/>
	<path class="st1" d="M899.5,200.3h-2.7c-0.2,0.3-0.3,0.6-0.3,1c0,1.1,0.9,2,2,2c0.4,0,0.7-0.1,1-0.3V200.3z"/>
	<path class="st1" d="M899.5,297.6c-0.3-0.2-0.6-0.3-1-0.3c-1.1,0-2,0.9-2,2c0,0.4,0.1,0.7,0.3,1h2.7V297.6z"/>
	<rect x="900" y="200.8" class="st0" width="99" height="99"/>
	<rect x="949" y="200.8" class="st1" width="50" height="49"/>
	<rect x="900" y="249.8" class="st1" width="49" height="50"/>
	<path class="st1" d="M902,200.3h-2.4v2.4c0.2,0,0.3,0.1,0.5,0.1c1.1,0,2-0.9,2-2C902,200.6,902,200.5,902,200.3z"/>
	<path class="st1" d="M902.2,300.3c0.2-0.3,0.3-0.6,0.3-1c0-1.1-0.9-2-2-2c-0.4,0-0.7,0.1-1,0.3v2.7H902.2z"/>
	<path class="st1" d="M999.5,200.3h-2.7c-0.2,0.3-0.3,0.6-0.3,1c0,1.1,0.9,2,2,2c0.4,0,0.7-0.1,1-0.3V200.3z"/>
	<path class="st1" d="M999.5,297.6c-0.3-0.2-0.6-0.3-1-0.3c-1.1,0-2,0.9-2,2c0,0.4,0.1,0.7,0.3,1h2.7V297.6z"/>
	<rect x="0" y="299.8" class="st0" width="99" height="99"/>
	<rect x="49" y="299.8" class="st1" width="50" height="49"/>
	<rect x="0" y="348.8" class="st1" width="49" height="50"/>
	<path class="st1" d="M2,299.3h-2.4v2.4c0.2,0,0.3,0.1,0.5,0.1c1.1,0,2-0.9,2-2C2,299.6,2,299.5,2,299.3z"/>
	<path class="st1" d="M2.2,399.3c0.2-0.3,0.3-0.6,0.3-1c0-1.1-0.9-2-2-2c-0.4,0-0.7,0.1-1,0.3v2.7H2.2z"/>
	<path class="st1" d="M99.5,299.3h-2.7c-0.2,0.3-0.3,0.6-0.3,1c0,1.1,0.9,2,2,2c0.4,0,0.7-0.1,1-0.3V299.3z"/>
	<path class="st1" d="M99.5,396.6c-0.3-0.2-0.6-0.3-1-0.3c-1.1,0-2,0.9-2,2c0,0.4,0.1,0.7,0.3,1h2.7V396.6z"/>
	<rect x="100" y="299.8" class="st0" width="99" height="99"/>
	<rect x="149" y="299.8" class="st1" width="50" height="49"/>
	<rect x="100" y="348.8" class="st1" width="49" height="50"/>
	<path class="st1" d="M102,299.3h-2.4v2.4c0.2,0,0.3,0.1,0.5,0.1c1.1,0,2-0.9,2-2C102,299.6,102,299.5,102,299.3z"/>
	<path class="st1" d="M102.2,399.3c0.2-0.3,0.3-0.6,0.3-1c0-1.1-0.9-2-2-2c-0.4,0-0.7,0.1-1,0.3v2.7H102.2z"/>
	<path class="st1" d="M199.5,299.3h-2.7c-0.2,0.3-0.3,0.6-0.3,1c0,1.1,0.9,2,2,2c0.4,0,0.7-0.1,1-0.3V299.3z"/>
	<path class="st1" d="M199.5,396.6c-0.3-0.2-0.6-0.3-1-0.3c-1.1,0-2,0.9-2,2c0,0.4,0.1,0.7,0.3,1h2.7V396.6z"/>
	<rect x="200" y="299.8" class="st0" width="99" height="99"/>
	<rect x="249" y="299.8" class="st1" width="50" height="49"/>
	<rect x="200" y="348.8" class="st1" width="49" height="50"/>
	<path class="st1" d="M202,299.3h-2.4v2.4c0.2,0,0.3,0.1,0.5,0.1c1.1,0,2-0.9,2-2C202,299.6,202,299.5,202,299.3z"/>
	<path class="st1" d="M202.2,399.3c0.2-0.3,0.3-0.6,0.3-1c0-1.1-0.9-2-2-2c-0.4,0-0.7,0.1-1,0.3v2.7H202.2z"/>
	<path class="st1" d="M299.5,299.3h-2.7c-0.2,0.3-0.3,0.6-0.3,1c0,1.1,0.9,2,2,2c0.4,0,0.7-0.1,1-0.3V299.3z"/>
	<path class="st1" d="M299.5,396.6c-0.3-0.2-0.6-0.3-1-0.3c-1.1,0-2,0.9-2,2c0,0.4,0.1,0.7,0.3,1h2.7V396.6z"/>
	<rect x="300" y="299.8" class="st0" width="99" height="99"/>
	<rect x="349" y="299.8" class="st1" width="50" height="49"/>
	<rect x="300" y="348.8" class="st1" width="49" height="50"/>
	<path class="st1" d="M302,299.3h-2.4v2.4c0.2,0,0.3,0.1,0.5,0.1c1.1,0,2-0.9,2-2C302,299.6,302,299.5,302,299.3z"/>
	<path class="st1" d="M302.2,399.3c0.2-0.3,0.3-0.6,0.3-1c0-1.1-0.9-2-2-2c-0.4,0-0.7,0.1-1,0.3v2.7H302.2z"/>
	<path class="st1" d="M399.5,299.3h-2.7c-0.2,0.3-0.3,0.6-0.3,1c0,1.1,0.9,2,2,2c0.4,0,0.7-0.1,1-0.3V299.3z"/>
	<path class="st1" d="M399.5,396.6c-0.3-0.2-0.6-0.3-1-0.3c-1.1,0-2,0.9-2,2c0,0.4,0.1,0.7,0.3,1h2.7V396.6z"/>
	<rect x="400" y="299.8" class="st0" width="99" height="99"/>
	<rect x="449" y="299.8" class="st1" width="50" height="49"/>
	<rect x="400" y="348.8" class="st1" width="49" height="50"/>
	<path class="st1" d="M402,299.3h-2.4v2.4c0.2,0,0.3,0.1,0.5,0.1c1.1,0,2-0.9,2-2C402,299.6,402,299.5,402,299.3z"/>
	<path class="st1" d="M402.2,399.3c0.2-0.3,0.3-0.6,0.3-1c0-1.1-0.9-2-2-2c-0.4,0-0.7,0.1-1,0.3v2.7H402.2z"/>
	<path class="st1" d="M499.5,299.3h-2.7c-0.2,0.3-0.3,0.6-0.3,1c0,1.1,0.9,2,2,2c0.4,0,0.7-0.1,1-0.3V299.3z"/>
	<path class="st1" d="M499.5,396.6c-0.3-0.2-0.6-0.3-1-0.3c-1.1,0-2,0.9-2,2c0,0.4,0.1,0.7,0.3,1h2.7V396.6z"/>
	<rect x="500" y="299.8" class="st0" width="99" height="99"/>
	<rect x="549" y="299.8" class="st1" width="50" height="49"/>
	<rect x="500" y="348.8" class="st1" width="49" height="50"/>
	<path class="st1" d="M502,299.3h-2.4v2.4c0.2,0,0.3,0.1,0.5,0.1c1.1,0,2-0.9,2-2C502,299.6,502,299.5,502,299.3z"/>
	<path class="st1" d="M502.2,399.3c0.2-0.3,0.3-0.6,0.3-1c0-1.1-0.9-2-2-2c-0.4,0-0.7,0.1-1,0.3v2.7H502.2z"/>
	<path class="st1" d="M599.5,299.3h-2.7c-0.2,0.3-0.3,0.6-0.3,1c0,1.1,0.9,2,2,2c0.4,0,0.7-0.1,1-0.3V299.3z"/>
	<path class="st1" d="M599.5,396.6c-0.3-0.2-0.6-0.3-1-0.3c-1.1,0-2,0.9-2,2c0,0.4,0.1,0.7,0.3,1h2.7V396.6z"/>
	<rect x="600" y="299.8" class="st0" width="99" height="99"/>
	<rect x="649" y="299.8" class="st1" width="50" height="49"/>
	<rect x="600" y="348.8" class="st1" width="49" height="50"/>
	<path class="st1" d="M602,299.3h-2.4v2.4c0.2,0,0.3,0.1,0.5,0.1c1.1,0,2-0.9,2-2C602,299.6,602,299.5,602,299.3z"/>
	<path class="st1" d="M602.2,399.3c0.2-0.3,0.3-0.6,0.3-1c0-1.1-0.9-2-2-2c-0.4,0-0.7,0.1-1,0.3v2.7H602.2z"/>
	<path class="st1" d="M699.5,299.3h-2.7c-0.2,0.3-0.3,0.6-0.3,1c0,1.1,0.9,2,2,2c0.4,0,0.7-0.1,1-0.3V299.3z"/>
	<path class="st1" d="M699.5,396.6c-0.3-0.2-0.6-0.3-1-0.3c-1.1,0-2,0.9-2,2c0,0.4,0.1,0.7,0.3,1h2.7V396.6z"/>
	<rect x="700" y="299.8" class="st0" width="99" height="99"/>
	<rect x="749" y="299.8" class="st1" width="50" height="49"/>
	<rect x="700" y="348.8" class="st1" width="49" height="50"/>
	<path class="st1" d="M702,299.3h-2.4v2.4c0.2,0,0.3,0.1,0.5,0.1c1.1,0,2-0.9,2-2C702,299.6,702,299.5,702,299.3z"/>
	<path class="st1" d="M702.2,399.3c0.2-0.3,0.3-0.6,0.3-1c0-1.1-0.9-2-2-2c-0.4,0-0.7,0.1-1,0.3v2.7H702.2z"/>
	<path class="st1" d="M799.5,299.3h-2.7c-0.2,0.3-0.3,0.6-0.3,1c0,1.1,0.9,2,2,2c0.4,0,0.7-0.1,1-0.3V299.3z"/>
	<path class="st1" d="M799.5,396.6c-0.3-0.2-0.6-0.3-1-0.3c-1.1,0-2,0.9-2,2c0,0.4,0.1,0.7,0.3,1h2.7V396.6z"/>
	<rect x="800" y="299.8" class="st0" width="99" height="99"/>
	<rect x="849" y="299.8" class="st1" width="50" height="49"/>
	<rect x="800" y="348.8" class="st1" width="49" height="50"/>
	<path class="st1" d="M802,299.3h-2.4v2.4c0.2,0,0.3,0.1,0.5,0.1c1.1,0,2-0.9,2-2C802,299.6,802,299.5,802,299.3z"/>
	<path class="st1" d="M802.2,399.3c0.2-0.3,0.3-0.6,0.3-1c0-1.1-0.9-2-2-2c-0.4,0-0.7,0.1-1,0.3v2.7H802.2z"/>
	<path class="st1" d="M899.5,299.3h-2.7c-0.2,0.3-0.3,0.6-0.3,1c0,1.1,0.9,2,2,2c0.4,0,0.7-0.1,1-0.3V299.3z"/>
	<path class="st1" d="M899.5,396.6c-0.3-0.2-0.6-0.3-1-0.3c-1.1,0-2,0.9-2,2c0,0.4,0.1,0.7,0.3,1h2.7V396.6z"/>
	<rect x="900" y="299.8" class="st0" width="99" height="99"/>
	<rect x="949" y="299.8" class="st1" width="50" height="49"/>
	<rect x="900" y="348.8" class="st1" width="49" height="50"/>
	<path class="st1" d="M902,299.3h-2.4v2.4c0.2,0,0.3,0.1,0.5,0.1c1.1,0,2-0.9,2-2C902,299.6,902,299.5,902,299.3z"/>
	<path class="st1" d="M902.2,399.3c0.2-0.3,0.3-0.6,0.3-1c0-1.1-0.9-2-2-2c-0.4,0-0.7,0.1-1,0.3v2.7H902.2z"/>
	<path class="st1" d="M999.5,299.3h-2.7c-0.2,0.3-0.3,0.6-0.3,1c0,1.1,0.9,2,2,2c0.4,0,0.7-0.1,1-0.3V299.3z"/>
	<path class="st1" d="M999.5,396.6c-0.3-0.2-0.6-0.3-1-0.3c-1.1,0-2,0.9-2,2c0,0.4,0.1,0.7,0.3,1h2.7V396.6z"/>
	<rect x="0" y="399.8" class="st0" width="99" height="99"/>
	<rect x="49" y="399.8" class="st1" width="50" height="49"/>
	<rect x="0" y="448.8" class="st1" width="49" height="50"/>
	<path class="st1" d="M2.2,499.3c0.2-0.3,0.3-0.6,0.3-1c0-1.1-0.9-2-2-2c-0.4,0-0.7,0.1-1,0.3v2.7H2.2z"/>
	<path class="st1" d="M99.5,496.6c-0.3-0.2-0.6-0.3-1-0.3c-1.1,0-2,0.9-2,2c0,0.4,0.1,0.7,0.3,1h2.7V496.6z"/>
	<rect x="100" y="399.8" class="st0" width="99" height="99"/>
	<rect x="149" y="399.8" class="st1" width="50" height="49"/>
	<rect x="100" y="448.8" class="st1" width="49" height="50"/>
	<path class="st1" d="M102.2,499.3c0.2-0.3,0.3-0.6,0.3-1c0-1.1-0.9-2-2-2c-0.4,0-0.7,0.1-1,0.3v2.7H102.2z"/>
	<path class="st1" d="M199.5,496.6c-0.3-0.2-0.6-0.3-1-0.3c-1.1,0-2,0.9-2,2c0,0.4,0.1,0.7,0.3,1h2.7V496.6z"/>
	<rect x="200" y="399.8" class="st0" width="99" height="99"/>
	<rect x="249" y="399.8" class="st1" width="50" height="49"/>
	<rect x="200" y="448.8" class="st1" width="49" height="50"/>
	<path class="st1" d="M202.2,499.3c0.2-0.3,0.3-0.6,0.3-1c0-1.1-0.9-2-2-2c-0.4,0-0.7,0.1-1,0.3v2.7H202.2z"/>
	<path class="st1" d="M299.5,496.6c-0.3-0.2-0.6-0.3-1-0.3c-1.1,0-2,0.9-2,2c0,0.4,0.1,0.7,0.3,1h2.7V496.6z"/>
	<rect x="300" y="399.8" class="st0" width="99" height="99"/>
	<rect x="349" y="399.8" class="st1" width="50" height="49"/>
	<rect x="300" y="448.8" class="st1" width="49" height="50"/>
	<path class="st1" d="M302.2,499.3c0.2-0.3,0.3-0.6,0.3-1c0-1.1-0.9-2-2-2c-0.4,0-0.7,0.1-1,0.3v2.7H302.2z"/>
	<path class="st1" d="M399.5,496.6c-0.3-0.2-0.6-0.3-1-0.3c-1.1,0-2,0.9-2,2c0,0.4,0.1,0.7,0.3,1h2.7V496.6z"/>
	<rect x="400" y="399.8" class="st0" width="99" height="99"/>
	<rect x="449" y="399.8" class="st1" width="50" height="49"/>
	<rect x="400" y="448.8" class="st1" width="49" height="50"/>
	<path class="st1" d="M402.2,499.3c0.2-0.3,0.3-0.6,0.3-1c0-1.1-0.9-2-2-2c-0.4,0-0.7,0.1-1,0.3v2.7H402.2z"/>
	<path class="st1" d="M499.5,496.6c-0.3-0.2-0.6-0.3-1-0.3c-1.1,0-2,0.9-2,2c0,0.4,0.1,0.7,0.3,1h2.7V496.6z"/>
	<rect x="500" y="399.8" class="st0" width="99" height="99"/>
	<rect x="549" y="399.8" class="st1" width="50" height="49"/>
	<rect x="500" y="448.8" class="st1" width="49" height="50"/>
	<path class="st1" d="M502.2,499.3c0.2-0.3,0.3-0.6,0.3-1c0-1.1-0.9-2-2-2c-0.4,0-0.7,0.1-1,0.3v2.7H502.2z"/>
	<path class="st1" d="M599.5,496.6c-0.3-0.2-0.6-0.3-1-0.3c-1.1,0-2,0.9-2,2c0,0.4,0.1,0.7,0.3,1h2.7V496.6z"/>
	<rect x="600" y="399.8" class="st0" width="99" height="99"/>
	<rect x="649" y="399.8" class="st1" width="50" height="49"/>
	<rect x="600" y="448.8" class="st1" width="49" height="50"/>
	<path class="st1" d="M602.2,499.3c0.2-0.3,0.3-0.6,0.3-1c0-1.1-0.9-2-2-2c-0.4,0-0.7,0.1-1,0.3v2.7H602.2z"/>
	<path class="st1" d="M699.5,496.6c-0.3-0.2-0.6-0.3-1-0.3c-1.1,0-2,0.9-2,2c0,0.4,0.1,0.7,0.3,1h2.7V496.6z"/>
	<rect x="700" y="399.8" class="st0" width="99" height="99"/>
	<rect x="749" y="399.8" class="st1" width="50" height="49"/>
	<rect x="700" y="448.8" class="st1" width="49" height="50"/>
	<path class="st1" d="M702.2,499.3c0.2-0.3,0.3-0.6,0.3-1c0-1.1-0.9-2-2-2c-0.4,0-0.7,0.1-1,0.3v2.7H702.2z"/>
	<path class="st1" d="M799.5,496.6c-0.3-0.2-0.6-0.3-1-0.3c-1.1,0-2,0.9-2,2c0,0.4,0.1,0.7,0.3,1h2.7V496.6z"/>
	<rect x="800" y="399.8" class="st0" width="99" height="99"/>
	<rect x="849" y="399.8" class="st1" width="50" height="49"/>
	<rect x="800" y="448.8" class="st1" width="49" height="50"/>
	<path class="st1" d="M802.2,499.3c0.2-0.3,0.3-0.6,0.3-1c0-1.1-0.9-2-2-2c-0.4,0-0.7,0.1-1,0.3v2.7H802.2z"/>
	<path class="st1" d="M899.5,496.6c-0.3-0.2-0.6-0.3-1-0.3c-1.1,0-2,0.9-2,2c0,0.4,0.1,0.7,0.3,1h2.7V496.6z"/>
	<rect x="900" y="399.8" class="st0" width="99" height="99"/>
	<rect x="949" y="399.8" class="st1" width="50" height="49"/>
	<rect x="900" y="448.8" class="st1" width="49" height="50"/>
	<path class="st1" d="M902.2,499.3c0.2-0.3,0.3-0.6,0.3-1c0-1.1-0.9-2-2-2c-0.4,0-0.7,0.1-1,0.3v2.7H902.2z"/>
	<path class="st1" d="M999.5,496.6c-0.3-0.2-0.6-0.3-1-0.3c-1.1,0-2,0.9-2,2c0,0.4,0.1,0.7,0.3,1h2.7V496.6z"/>
	<rect x="0" y="498.8" class="st0" width="99" height="99"/>
	<rect x="49" y="498.8" class="st1" width="50" height="49"/>
	<rect x="0" y="547.8" class="st1" width="49" height="50"/>
	<path class="st1" d="M2,498.3h-2.4v2.4c0.2,0,0.3,0.1,0.5,0.1c1.1,0,2-0.9,2-2C2,498.6,2,498.5,2,498.3z"/>
	<path class="st1" d="M2.2,598.3c0.2-0.3,0.3-0.6,0.3-1c0-1.1-0.9-2-2-2c-0.4,0-0.7,0.1-1,0.3v2.7H2.2z"/>
	<path class="st1" d="M99.5,498.3h-2.7c-0.2,0.3-0.3,0.6-0.3,1c0,1.1,0.9,2,2,2c0.4,0,0.7-0.1,1-0.3V498.3z"/>
	<path class="st1" d="M99.5,595.6c-0.3-0.2-0.6-0.3-1-0.3c-1.1,0-2,0.9-2,2c0,0.4,0.1,0.7,0.3,1h2.7V595.6z"/>
	<rect x="100" y="498.8" class="st0" width="99" height="99"/>
	<rect x="149" y="498.8" class="st1" width="50" height="49"/>
	<rect x="100" y="547.8" class="st1" width="49" height="50"/>
	<path class="st1" d="M102,498.3h-2.4v2.4c0.2,0,0.3,0.1,0.5,0.1c1.1,0,2-0.9,2-2C102,498.6,102,498.5,102,498.3z"/>
	<path class="st1" d="M102.2,598.3c0.2-0.3,0.3-0.6,0.3-1c0-1.1-0.9-2-2-2c-0.4,0-0.7,0.1-1,0.3v2.7H102.2z"/>
	<path class="st1" d="M199.5,498.3h-2.7c-0.2,0.3-0.3,0.6-0.3,1c0,1.1,0.9,2,2,2c0.4,0,0.7-0.1,1-0.3V498.3z"/>
	<path class="st1" d="M199.5,595.6c-0.3-0.2-0.6-0.3-1-0.3c-1.1,0-2,0.9-2,2c0,0.4,0.1,0.7,0.3,1h2.7V595.6z"/>
	<rect x="200" y="498.8" class="st0" width="99" height="99"/>
	<rect x="249" y="498.8" class="st1" width="50" height="49"/>
	<rect x="200" y="547.8" class="st1" width="49" height="50"/>
	<path class="st1" d="M202,498.3h-2.4v2.4c0.2,0,0.3,0.1,0.5,0.1c1.1,0,2-0.9,2-2C202,498.6,202,498.5,202,498.3z"/>
	<path class="st1" d="M202.2,598.3c0.2-0.3,0.3-0.6,0.3-1c0-1.1-0.9-2-2-2c-0.4,0-0.7,0.1-1,0.3v2.7H202.2z"/>
	<path class="st1" d="M299.5,498.3h-2.7c-0.2,0.3-0.3,0.6-0.3,1c0,1.1,0.9,2,2,2c0.4,0,0.7-0.1,1-0.3V498.3z"/>
	<path class="st1" d="M299.5,595.6c-0.3-0.2-0.6-0.3-1-0.3c-1.1,0-2,0.9-2,2c0,0.4,0.1,0.7,0.3,1h2.7V595.6z"/>
	<rect x="300" y="498.8" class="st0" width="99" height="99"/>
	<rect x="349" y="498.8" class="st1" width="50" height="49"/>
	<rect x="300" y="547.8" class="st1" width="49" height="50"/>
	<path class="st1" d="M302,498.3h-2.4v2.4c0.2,0,0.3,0.1,0.5,0.1c1.1,0,2-0.9,2-2C302,498.6,302,498.5,302,498.3z"/>
	<path class="st1" d="M302.2,598.3c0.2-0.3,0.3-0.6,0.3-1c0-1.1-0.9-2-2-2c-0.4,0-0.7,0.1-1,0.3v2.7H302.2z"/>
	<path class="st1" d="M399.5,498.3h-2.7c-0.2,0.3-0.3,0.6-0.3,1c0,1.1,0.9,2,2,2c0.4,0,0.7-0.1,1-0.3V498.3z"/>
	<path class="st1" d="M399.5,595.6c-0.3-0.2-0.6-0.3-1-0.3c-1.1,0-2,0.9-2,2c0,0.4,0.1,0.7,0.3,1h2.7V595.6z"/>
	<rect x="400" y="498.8" class="st0" width="99" height="99"/>
	<rect x="449" y="498.8" class="st1" width="50" height="49"/>
	<rect x="400" y="547.8" class="st1" width="49" height="50"/>
	<path class="st1" d="M402,498.3h-2.4v2.4c0.2,0,0.3,0.1,0.5,0.1c1.1,0,2-0.9,2-2C402,498.6,402,498.5,402,498.3z"/>
	<path class="st1" d="M402.2,598.3c0.2-0.3,0.3-0.6,0.3-1c0-1.1-0.9-2-2-2c-0.4,0-0.7,0.1-1,0.3v2.7H402.2z"/>
	<path class="st1" d="M499.5,498.3h-2.7c-0.2,0.3-0.3,0.6-0.3,1c0,1.1,0.9,2,2,2c0.4,0,0.7-0.1,1-0.3V498.3z"/>
	<path class="st1" d="M499.5,595.6c-0.3-0.2-0.6-0.3-1-0.3c-1.1,0-2,0.9-2,2c0,0.4,0.1,0.7,0.3,1h2.7V595.6z"/>
	<rect x="500" y="498.8" class="st0" width="99" height="99"/>
	<rect x="549" y="498.8" class="st1" width="50" height="49"/>
	<rect x="500" y="547.8" class="st1" width="49" height="50"/>
	<path class="st1" d="M502,498.3h-2.4v2.4c0.2,0,0.3,0.1,0.5,0.1c1.1,0,2-0.9,2-2C502,498.6,502,498.5,502,498.3z"/>
	<path class="st1" d="M502.2,598.3c0.2-0.3,0.3-0.6,0.3-1c0-1.1-0.9-2-2-2c-0.4,0-0.7,0.1-1,0.3v2.7H502.2z"/>
	<path class="st1" d="M599.5,498.3h-2.7c-0.2,0.3-0.3,0.6-0.3,1c0,1.1,0.9,2,2,2c0.4,0,0.7-0.1,1-0.3V498.3z"/>
	<path class="st1" d="M599.5,595.6c-0.3-0.2-0.6-0.3-1-0.3c-1.1,0-2,0.9-2,2c0,0.4,0.1,0.7,0.3,1h2.7V595.6z"/>
	<rect x="600" y="498.8" class="st0" width="99" height="99"/>
	<rect x="649" y="498.8" class="st1" width="50" height="49"/>
	<rect x="600" y="547.8" class="st1" width="49" height="50"/>
	<path class="st1" d="M602,498.3h-2.4v2.4c0.2,0,0.3,0.1,0.5,0.1c1.1,0,2-0.9,2-2C602,498.6,602,498.5,602,498.3z"/>
	<path class="st1" d="M602.2,598.3c0.2-0.3,0.3-0.6,0.3-1c0-1.1-0.9-2-2-2c-0.4,0-0.7,0.1-1,0.3v2.7H602.2z"/>
	<path class="st1" d="M699.5,498.3h-2.7c-0.2,0.3-0.3,0.6-0.3,1c0,1.1,0.9,2,2,2c0.4,0,0.7-0.1,1-0.3V498.3z"/>
	<path class="st1" d="M699.5,595.6c-0.3-0.2-0.6-0.3-1-0.3c-1.1,0-2,0.9-2,2c0,0.4,0.1,0.7,0.3,1h2.7V595.6z"/>
	<rect x="700" y="498.8" class="st0" width="99" height="99"/>
	<rect x="749" y="498.8" class="st1" width="50" height="49"/>
	<rect x="700" y="547.8" class="st1" width="49" height="50"/>
	<path class="st1" d="M702,498.3h-2.4v2.4c0.2,0,0.3,0.1,0.5,0.1c1.1,0,2-0.9,2-2C702,498.6,702,498.5,702,498.3z"/>
	<path class="st1" d="M702.2,598.3c0.2-0.3,0.3-0.6,0.3-1c0-1.1-0.9-2-2-2c-0.4,0-0.7,0.1-1,0.3v2.7H702.2z"/>
	<path class="st1" d="M799.5,498.3h-2.7c-0.2,0.3-0.3,0.6-0.3,1c0,1.1,0.9,2,2,2c0.4,0,0.7-0.1,1-0.3V498.3z"/>
	<path class="st1" d="M799.5,595.6c-0.3-0.2-0.6-0.3-1-0.3c-1.1,0-2,0.9-2,2c0,0.4,0.1,0.7,0.3,1h2.7V595.6z"/>
	<rect x="800" y="498.8" class="st0" width="99" height="99"/>
	<rect x="849" y="498.8" class="st1" width="50" height="49"/>
	<rect x="800" y="547.8" class="st1" width="49" height="50"/>
	<path class="st1" d="M802,498.3h-2.4v2.4c0.2,0,0.3,0.1,0.5,0.1c1.1,0,2-0.9,2-2C802,498.6,802,498.5,802,498.3z"/>
	<path class="st1" d="M802.2,598.3c0.2-0.3,0.3-0.6,0.3-1c0-1.1-0.9-2-2-2c-0.4,0-0.7,0.1-1,0.3v2.7H802.2z"/>
	<path class="st1" d="M899.5,498.3h-2.7c-0.2,0.3-0.3,0.6-0.3,1c0,1.1,0.9,2,2,2c0.4,0,0.7-0.1,1-0.3V498.3z"/>
	<path class="st1" d="M899.5,595.6c-0.3-0.2-0.6-0.3-1-0.3c-1.1,0-2,0.9-2,2c0,0.4,0.1,0.7,0.3,1h2.7V595.6z"/>
	<rect x="900" y="498.8" class="st0" width="99" height="99"/>
	<rect x="949" y="498.8" class="st1" width="50" height="49"/>
	<rect x="900" y="547.8" class="st1" width="49" height="50"/>
	<path class="st1" d="M902,498.3h-2.4v2.4c0.2,0,0.3,0.1,0.5,0.1c1.1,0,2-0.9,2-2C902,498.6,902,498.5,902,498.3z"/>
	<path class="st1" d="M902.2,598.3c0.2-0.3,0.3-0.6,0.3-1c0-1.1-0.9-2-2-2c-0.4,0-0.7,0.1-1,0.3v2.7H902.2z"/>
	<path class="st1" d="M999.5,498.3h-2.7c-0.2,0.3-0.3,0.6-0.3,1c0,1.1,0.9,2,2,2c0.4,0,0.7-0.1,1-0.3V498.3z"/>
	<path class="st1" d="M999.5,595.6c-0.3-0.2-0.6-0.3-1-0.3c-1.1,0-2,0.9-2,2c0,0.4,0.1,0.7,0.3,1h2.7V595.6z"/>
</g>
</svg>
