<!-- Generator: Adobe Illustrator 23.0.6, SVG Export Plug-In . SVG Version: 6.00 Build 0)  -->
<svg version="1.1" id="Layer_1" xmlns="http://www.w3.org/2000/svg" xmlns:xlink="http://www.w3.org/1999/xlink" x="0px" y="0px"
	 viewBox="0 0 186 76" style="enable-background:new 0 0 186 76;" xml:space="preserve">
<style type="text/css">
	.st0{opacity:0.1;fill:#40EBEE;enable-background:new    ;}
	.st1{fill:#40EBEE;}
</style>
<g>
	<g>
		<g>
			<rect x="9.9" y="12.8" class="st0" width="42.3" height="42.3"/>
			<g>
				<g>
					<polygon class="st1" points="6.3,14.6 5.3,14.6 5.3,8.1 11.8,8.1 11.8,9.1 6.3,9.1 					"/>
				</g>
				<g>
					<polygon class="st1" points="56.8,14.6 55.8,14.6 55.8,9.1 50.3,9.1 50.3,8.1 56.8,8.1 					"/>
				</g>
				<g>
					<polygon class="st1" points="56.8,59.7 50.3,59.7 50.3,58.7 55.8,58.7 55.8,53.2 56.8,53.2 					"/>
				</g>
				<g>
					<polygon class="st1" points="11.8,59.7 5.3,59.7 5.3,53.2 6.3,53.2 6.3,58.7 11.8,58.7 					"/>
				</g>
			</g>
			<g>
				<g>
					<g>
						<polygon class="st1" points="75.3,65.7 30.8,65.7 30.8,59.5 31.3,59.5 31.3,65.2 75.1,65.2 81.2,59 81.2,53.2 81.7,53.2
							81.7,59.2 						"/>
					</g>
					<g>
						<rect x="80.2" y="53" class="st1" width="2.6" height="0.5"/>
					</g>
				</g>
				<path class="st1" d="M31,60.3c-0.5,0-0.9-0.4-0.9-0.9s0.4-0.9,0.9-0.9c0.5,0,0.9,0.4,0.9,0.9S31.5,60.3,31,60.3z"/>
			</g>
			<g>
				<polygon class="st1" points="176.7,42.8 176.2,42.8 176.2,14.1 136,14.1 131.4,9.5 131.7,9.2 136.2,13.6 176.7,13.6 				"/>
			</g>
			<g>
				<polygon class="st1" points="176.7,59.5 170.5,59.5 170.5,59 176.2,59 176.2,53.2 176.7,53.2 				"/>
			</g>
		</g>
	</g>
</g>
</svg>
