<?xml version="1.0" encoding="utf-8"?>
<!-- Generator: Adobe Illustrator 23.0.6, SVG Export Plug-In . SVG Version: 6.00 Build 0)  -->
<svg version="1.1" id="Layer_1" xmlns="http://www.w3.org/2000/svg" xmlns:xlink="http://www.w3.org/1999/xlink" x="0px" y="0px"
	 viewBox="0 0 30 30" style="enable-background:new 0 0 30 30;" xml:space="preserve">
<style type="text/css">
	.st0{display:none;}
	.st1{display:inline;fill:#063B5B;}
	.st2{fill:#40EBEE;}
</style>
<g id="Dots" class="st0">
	<path class="st1" d="M15,3.4c0.3,0,0.6-0.3,0.6-0.6S15.3,2.2,15,2.2c-0.3,0-0.6,0.3-0.6,0.6S14.6,3.4,15,3.4z"/>
	<path class="st1" d="M15,0c0.2,0,0.3-0.1,0.3-0.3S15.1-0.6,15-0.6s-0.3,0.1-0.3,0.3S14.8,0,15,0z"/>
	<path class="st1" d="M18.8,0.5c0.2,0,0.3-0.1,0.4-0.2s0-0.3-0.2-0.4S18.7,0,18.6,0.1C18.6,0.3,18.7,0.4,18.8,0.5z"/>
	<path class="st1" d="M22.8,1.9c0.1-0.1,0-0.3-0.1-0.4c-0.1-0.1-0.3,0-0.4,0.1s0,0.3,0.1,0.4C22.5,2,22.7,2,22.8,1.9z"/>
	<path class="st1" d="M25.9,4.3C26,4.2,26,4,25.9,3.9c-0.1-0.1-0.3-0.1-0.4,0c-0.1,0.1-0.1,0.3,0,0.4C25.6,4.4,25.8,4.4,25.9,4.3z"
		/>
	<path class="st1" d="M28.3,7.5c0.1-0.1,0.2-0.3,0.1-0.4C28.3,7,28.1,6.9,28,7s-0.2,0.3-0.1,0.4C27.9,7.6,28.1,7.6,28.3,7.5z"/>
	<path class="st1" d="M29.7,11.2c0.2,0,0.2-0.2,0.2-0.4s-0.2-0.2-0.4-0.2s-0.2,0.2-0.2,0.4C29.4,11.2,29.5,11.2,29.7,11.2z"/>
	<path class="st1" d="M30.1,15.1c0.2,0,0.3-0.1,0.3-0.3s-0.1-0.3-0.3-0.3s-0.3,0.1-0.3,0.3S30,15.1,30.1,15.1z"/>
	<path class="st1" d="M29.5,19.1c0.2,0,0.3,0,0.4-0.2s0-0.3-0.2-0.4s-0.3,0-0.4,0.2C29.3,18.9,29.4,19,29.5,19.1z"/>
	<path class="st1" d="M27.9,22.3c-0.1,0.1,0,0.3,0.1,0.4c0.1,0.1,0.3,0,0.4-0.1c0.1-0.1,0-0.3-0.1-0.4
		C28.1,22.1,27.9,22.1,27.9,22.3z"/>
	<path class="st1" d="M25.5,25.4c-0.1,0.1-0.1,0.3,0,0.4c0.1,0.1,0.3,0.1,0.4,0c0.1-0.1,0.1-0.3,0-0.4
		C25.8,25.2,25.6,25.2,25.5,25.4z"/>
	<path class="st1" d="M22.4,27.7c-0.1,0.1-0.2,0.3-0.1,0.4s0.3,0.2,0.4,0.1s0.2-0.3,0.1-0.4C22.7,27.7,22.5,27.6,22.4,27.7z"/>
	<path class="st1" d="M18.8,29.2c-0.2,0-0.2,0.2-0.2,0.4s0.2,0.2,0.4,0.2s0.2-0.2,0.2-0.4C19.1,29.3,19,29.2,18.8,29.2z"/>
	<path class="st1" d="M15,29.7c-0.2,0-0.3,0.1-0.3,0.3s0.1,0.3,0.3,0.3s0.3-0.1,0.3-0.3S15.1,29.7,15,29.7z"/>
	<path class="st1" d="M11.1,29.2c-0.2,0-0.3,0-0.4,0.2s0.1,0.3,0.2,0.4s0.3,0,0.4-0.2S11.3,29.2,11.1,29.2z"/>
	<path class="st1" d="M7.1,27.8c-0.1,0.1,0,0.3,0.1,0.4c0.1,0.1,0.3,0,0.4-0.1c0.1-0.1,0-0.3-0.1-0.4C7.4,27.6,7.2,27.7,7.1,27.8z"
		/>
	<path class="st1" d="M4.1,25.4c-0.1,0.1-0.1,0.3,0,0.4c0.1,0.1,0.3,0.1,0.4,0c0.1-0.1,0.1-0.3,0-0.4S4.2,25.2,4.1,25.4z"/>
	<path class="st1" d="M1.7,22.2c-0.1,0.1-0.2,0.3-0.1,0.4s0.3,0.2,0.4,0.1s0.2-0.3,0.1-0.4C2,22.1,1.8,22.1,1.7,22.2z"/>
	<path class="st1" d="M0.3,18.5c-0.2,0-0.2,0.2-0.2,0.4s0.2,0.2,0.4,0.2s0.2-0.2,0.2-0.4C0.6,18.5,0.4,18.5,0.3,18.5z"/>
	<path class="st1" d="M-0.2,14.6c-0.2,0-0.3,0.1-0.3,0.3s0.1,0.3,0.3,0.3s0.3-0.1,0.3-0.3S0,14.6-0.2,14.6z"/>
	<path class="st1" d="M0.4,10.6c-0.2,0-0.3,0.1-0.4,0.2s0,0.3,0.2,0.4s0.3-0.1,0.4-0.2S0.6,10.7,0.4,10.6z"/>
	<path class="st1" d="M2.1,7.4C2.2,7.3,2.1,7.1,2,7S1.7,7,1.6,7.1c-0.1,0.1,0,0.3,0.1,0.4S2,7.6,2.1,7.4z"/>
	<path class="st1" d="M4.5,4.3c0.1-0.1,0.1-0.3,0-0.4c-0.1-0.1-0.3-0.1-0.4,0C3.9,4,3.9,4.2,4.1,4.3C4.2,4.4,4.3,4.4,4.5,4.3z"/>
	<path class="st1" d="M7.5,2c0.1-0.1,0.2-0.3,0.1-0.4S7.4,1.4,7.2,1.5C7.1,1.5,7.1,1.7,7.1,1.9C7.2,2,7.4,2,7.5,2z"/>
	<path class="st1" d="M11.1,0.5c0.2,0,0.2-0.2,0.2-0.4S11.1-0.1,11-0.1s-0.2,0.2-0.2,0.4S11,0.5,11.1,0.5z"/>
	<path class="st1" d="M18,3.8c0.3,0.1,0.6-0.1,0.7-0.4c0.1-0.3-0.1-0.6-0.4-0.7C18,2.5,17.6,2.7,17.5,3C17.5,3.4,17.6,3.7,18,3.8z"
		/>
	<path class="st1" d="M20.7,4.9C21,5.1,21.4,5,21.5,4.7s0.1-0.6-0.2-0.8c-0.3-0.2-0.6-0.1-0.8,0.2C20.3,4.4,20.4,4.8,20.7,4.9z"/>
	<circle class="st1" cx="23.5" cy="6.3" r="0.6"/>
	<path class="st1" d="M25.7,9.3c0.3-0.2,0.4-0.5,0.2-0.8s-0.5-0.4-0.8-0.2c-0.3,0.2-0.4,0.5-0.2,0.8C25.1,9.4,25.4,9.5,25.7,9.3z"/>
	<path class="st1" d="M26.8,12.3c0.3-0.1,0.5-0.4,0.4-0.7s-0.4-0.5-0.7-0.4c-0.3,0.1-0.5,0.4-0.4,0.7C26.1,12.2,26.5,12.4,26.8,12.3
		z"/>
	<path class="st1" d="M21.6,19.6c0.1,0.3,0.4,0.5,0.7,0.4s0.5-0.4,0.4-0.7s-0.4-0.5-0.7-0.4C21.7,19,21.5,19.3,21.6,19.6z"/>
	<path class="st1" d="M14.8,6.9c-0.3,0.1-0.5,0.4-0.4,0.7c0.1,0.3,0.4,0.5,0.7,0.4s0.5-0.4,0.4-0.7C15.5,7,15.1,6.8,14.8,6.9z"/>
	<path class="st1" d="M8.1,20c0.3-0.1,0.5-0.4,0.4-0.7c-0.1-0.3-0.4-0.5-0.7-0.4c-0.3,0.1-0.5,0.4-0.4,0.7S7.8,20.1,8.1,20z"/>
	<path class="st1" d="M3.2,12.3c0.3,0.1,0.6-0.1,0.7-0.4c0.1-0.3-0.1-0.6-0.4-0.7c-0.3-0.1-0.6,0.1-0.7,0.4
		C2.7,11.9,2.9,12.2,3.2,12.3z"/>
	<path class="st1" d="M4.2,9.3C4.5,9.5,4.9,9.4,5,9.1c0.2-0.3,0.1-0.6-0.2-0.8C4.5,8.2,4.2,8.2,4,8.5C3.9,8.8,4,9.2,4.2,9.3z"/>
	<path class="st1" d="M6.9,6.7c0.2-0.2,0.2-0.6,0-0.8S6.3,5.7,6,5.9S5.8,6.5,6,6.7S6.6,7,6.9,6.7z"/>
	<path class="st1" d="M9.2,4.9c0.3-0.2,0.4-0.5,0.2-0.8C9.3,3.8,8.9,3.7,8.6,3.9C8.4,4.1,8.3,4.4,8.4,4.7C8.6,5,9,5.1,9.2,4.9z"/>
	<path class="st1" d="M12,3.8c0.3-0.1,0.5-0.4,0.4-0.7c-0.1-0.3-0.4-0.5-0.7-0.4S11.2,3,11.3,3.3C11.4,3.7,11.7,3.8,12,3.8z"/>
	<path class="st1" d="M25.4-25.9c-1.1-0.3-2.2,0.4-2.5,1.4c-0.3,1.1,0.4,2.2,1.4,2.5c1.1,0.3,2.2-0.4,2.5-1.4
		C27.1-24.5,26.5-25.6,25.4-25.9z"/>
	<path class="st1" d="M35.1-21.8c-1-0.6-2.2-0.2-2.8,0.7c-0.6,1-0.2,2.2,0.7,2.8s2.2,0.2,2.8-0.7C36.4-20,36.1-21.3,35.1-21.8z"/>
	<circle class="st1" cx="42" cy="-14" r="2"/>
	<path class="st1" d="M5.5-22c1.1-0.3,1.7-1.4,1.4-2.5s-1.4-1.7-2.5-1.4c-1.1,0.3-1.7,1.4-1.4,2.5C3.3-22.3,4.4-21.7,5.5-22z"/>
	<path class="st1" d="M-3.3-18.4c1-0.6,1.3-1.8,0.7-2.8c-0.6-1-1.8-1.3-2.8-0.7s-1.3,1.8-0.7,2.8S-4.2-17.8-3.3-18.4z"/>
	<circle class="st1" cx="-12.3" cy="-14" r="2"/>
	<path class="st1" d="M15.5,67.9c-0.1,0-0.2,0.1-0.2,0.2c0,0.1,0.1,0.2,0.2,0.2c0.1,0,0.2-0.1,0.2-0.3
		C15.8,68.1,15.7,67.9,15.5,67.9z"/>
	<path class="st1" d="M48.5-30.5c-0.1,0.1-0.1,0.3,0,0.4c0,0,0.1,0,0.2,0c0.1,0,0.2,0,0.2-0.1c0.1-0.1,0.1-0.3,0-0.4
		C48.8-30.6,48.6-30.6,48.5-30.5z"/>
	<path class="st1" d="M53.2,52.4c-0.1,0.1-0.1,0.2,0,0.3c0,0,0.1,0.1,0.2,0.1c0.1,0,0.1,0,0.2-0.1c0.1-0.1,0.1-0.3,0-0.4
		C53.4,52.3,53.3,52.3,53.2,52.4z"/>
	<path class="st1" d="M57.2,48c-0.1,0.1-0.1,0.3,0,0.3c0,0,0.1,0.1,0.2,0.1c0.1,0,0.1,0,0.2-0.1c0.1-0.1,0.1-0.3,0-0.3
		C57.5,47.9,57.3,47.9,57.2,48z"/>
	<path class="st1" d="M59.6-19c-0.1,0.1-0.1,0.2-0.1,0.4c0,0.1,0.1,0.1,0.2,0.1c0,0,0.1,0,0.1,0C60-18.7,60-18.9,60-19
		S59.7-19.1,59.6-19z"/>
	<path class="st1" d="M50.1-29.2c-0.1,0.1-0.1,0.3,0,0.4c0,0,0.1,0.1,0.2,0.1c0.1,0,0.1,0,0.2-0.1c0.1-0.1,0.1-0.3,0-0.4
		C50.3-29.4,50.2-29.3,50.1-29.2z"/>
	<path class="st1" d="M60.8-17.4c-0.1,0.1-0.2,0.2-0.1,0.4c0,0.1,0.1,0.1,0.2,0.1c0,0,0.1,0,0.1,0c0.1-0.1,0.1-0.2,0.1-0.4
		C61-17.5,60.9-17.5,60.8-17.4z"/>
	<path class="st1" d="M55.9-23.7c-0.1,0.1-0.1,0.2,0,0.4c0,0,0.1,0.1,0.2,0.1s0.1,0,0.2-0.1c0.1-0.1,0.1-0.2,0-0.4
		C56.1-23.8,56-23.8,55.9-23.7z"/>
	<path class="st1" d="M57.2-22.2c-0.1,0.1-0.1,0.2,0,0.4c0,0.1,0.1,0.1,0.2,0.1c0,0,0.1,0,0.2-0.1c0.1-0.1,0.1-0.2,0-0.4
		C57.4-22.3,57.3-22.3,57.2-22.2z"/>
	<path class="st1" d="M61.8-15.7c-0.1,0.1-0.2,0.2-0.1,0.3c0,0.1,0.1,0.1,0.2,0.1c0,0,0.1,0,0.1,0c0.1-0.1,0.2-0.2,0.1-0.3
		C62.1-15.8,62-15.8,61.8-15.7z"/>
	<path class="st1" d="M58.4-20.6c-0.1,0.1-0.1,0.2,0,0.4c0,0.1,0.1,0.1,0.2,0.1c0,0,0.1,0,0.2,0c0.1-0.1,0.1-0.2,0-0.4
		C58.7-20.7,58.5-20.7,58.4-20.6z"/>
	<path class="st1" d="M55.9,49.5c-0.1,0.1-0.1,0.3,0,0.4c0,0,0.1,0.1,0.2,0.1c0.1,0,0.1,0,0.2-0.1c0.1-0.1,0.1-0.3,0-0.3
		C56.2,49.4,56,49.5,55.9,49.5z"/>
	<path class="st1" d="M70.3,12.9c0-0.1-0.1-0.2-0.2-0.2s-0.2,0.1-0.2,0.2c0,0,0,0.1,0,0.1c0,0,0,0.1,0,0.1c0,0.1,0.1,0.2,0.2,0.2
		s0.2-0.1,0.2-0.2c0,0,0-0.1,0-0.1C70.3,13,70.3,13,70.3,12.9z"/>
	<path class="st1" d="M53.1-26.6c-0.1,0.1-0.1,0.3,0,0.4c0,0,0.1,0.1,0.2,0.1c0.1,0,0.1,0,0.2-0.1c0.1-0.1,0.1-0.3,0-0.4
		C53.3-26.7,53.2-26.7,53.1-26.6z"/>
	<path class="st1" d="M51.6-27.9c-0.1,0.1-0.1,0.3,0,0.4c0,0,0.1,0.1,0.2,0.1c0.1,0,0.1,0,0.2-0.1c0.1-0.1,0.1-0.3,0-0.4
		C51.9-28,51.7-28,51.6-27.9z"/>
	<path class="st1" d="M17.5,67.9c-0.1,0-0.2,0.1-0.2,0.3c0,0.1,0.1,0.2,0.2,0.2h0c0.1,0,0.2-0.1,0.2-0.3
		C17.8,68,17.6,67.9,17.5,67.9z"/>
	<path class="st1" d="M54.6,51c-0.1,0.1-0.1,0.2,0,0.3c0,0,0.1,0.1,0.2,0.1c0.1,0,0.1,0,0.2-0.1c0.1-0.1,0.1-0.3,0-0.3
		C54.8,50.9,54.7,50.9,54.6,51z"/>
	<path class="st1" d="M62.9-14c-0.1,0.1-0.2,0.2-0.1,0.3c0,0.1,0.1,0.1,0.2,0.1c0,0,0.1,0,0.1,0c0.1-0.1,0.2-0.2,0.1-0.3
		S63-14.1,62.9-14z"/>
	<path class="st1" d="M63.8-12.3c-0.1,0.1-0.2,0.2-0.1,0.3c0,0.1,0.1,0.1,0.2,0.1c0,0,0.1,0,0.1,0c0.1-0.1,0.2-0.2,0.1-0.3
		C64.1-12.3,63.9-12.3,63.8-12.3z"/>
	<path class="st1" d="M54.5-25.2c-0.1,0.1-0.1,0.2,0,0.4c0,0,0.1,0.1,0.2,0.1c0.1,0,0.1,0,0.2-0.1c0.1-0.1,0.1-0.3,0-0.4
		C54.8-25.3,54.6-25.3,54.5-25.2z"/>
	<path class="st1" d="M29.3,66.1c-0.1,0-0.2,0.2-0.2,0.3c0,0.1,0.1,0.2,0.2,0.2c0,0,0,0,0.1,0c0.1,0,0.2-0.2,0.2-0.3
		C29.6,66.1,29.4,66,29.3,66.1z"/>
	<path class="st1" d="M45.5,58.7c-0.1,0.1-0.2,0.2-0.1,0.3c0,0.1,0.1,0.1,0.2,0.1c0,0,0.1,0,0.1,0c0.1-0.1,0.1-0.2,0.1-0.3
		C45.8,58.6,45.6,58.6,45.5,58.7z"/>
	<path class="st1" d="M43.8,59.8c-0.1,0.1-0.2,0.2-0.1,0.3c0,0.1,0.1,0.1,0.2,0.1c0,0,0.1,0,0.1,0c0.1-0.1,0.2-0.2,0.1-0.3
		C44.1,59.7,43.9,59.7,43.8,59.8z"/>
	<path class="st1" d="M38.6,62.6c-0.1,0-0.2,0.2-0.1,0.3c0,0.1,0.1,0.1,0.2,0.1c0,0,0.1,0,0.1,0c0.1-0.1,0.2-0.2,0.1-0.3
		C38.9,62.6,38.7,62.6,38.6,62.6z"/>
	<path class="st1" d="M47.1,57.5C47,57.6,47,57.8,47,57.9c0,0.1,0.1,0.1,0.2,0.1c0.1,0,0.1,0,0.2,0c0.1-0.1,0.1-0.2,0.1-0.3
		C47.4,57.5,47.2,57.5,47.1,57.5z"/>
	<path class="st1" d="M40.4,61.7c-0.1,0.1-0.2,0.2-0.1,0.3c0,0.1,0.1,0.1,0.2,0.1c0,0,0.1,0,0.1,0c0.1-0.1,0.2-0.2,0.1-0.3
		C40.6,61.7,40.5,61.7,40.4,61.7z"/>
	<path class="st1" d="M42.1,60.8C42,60.8,41.9,61,42,61.1c0,0.1,0.1,0.1,0.2,0.1c0,0,0.1,0,0.1,0c0.1-0.1,0.2-0.2,0.1-0.3
		C42.4,60.8,42.2,60.7,42.1,60.8z"/>
	<path class="st1" d="M51.7,53.8c-0.1,0.1-0.1,0.2,0,0.3c0,0.1,0.1,0.1,0.2,0.1c0.1,0,0.1,0,0.2-0.1c0.1-0.1,0.1-0.2,0-0.3
		C52,53.7,51.8,53.7,51.7,53.8z"/>
	<path class="st1" d="M48.7,56.3c-0.1,0.1-0.1,0.2,0,0.3c0,0.1,0.1,0.1,0.2,0.1c0,0,0.1,0,0.2,0c0.1-0.1,0.1-0.2,0-0.3
		C49,56.3,48.8,56.3,48.7,56.3z"/>
	<path class="st1" d="M23.3-41.5C23.3-41.5,23.3-41.5,23.3-41.5c-0.1,0-0.3,0.1-0.3,0.2c0,0.1,0.1,0.3,0.2,0.3c0,0,0,0,0,0
		c0.1,0,0.2-0.1,0.2-0.2C23.5-41.4,23.5-41.5,23.3-41.5z"/>
	<path class="st1" d="M50.2,55.1c-0.1,0.1-0.1,0.2,0,0.3c0,0.1,0.1,0.1,0.2,0.1c0.1,0,0.1,0,0.2-0.1c0.1-0.1,0.1-0.2,0-0.3
		C50.5,55,50.3,55,50.2,55.1z"/>
	<path class="st1" d="M31.2,65.5c-0.1,0-0.2,0.2-0.2,0.3c0,0.1,0.1,0.2,0.2,0.2c0,0,0,0,0.1,0c0.1,0,0.2-0.2,0.2-0.3
		C31.5,65.5,31.3,65.5,31.2,65.5z"/>
	<path class="st1" d="M36.8,63.4c-0.1,0-0.2,0.2-0.1,0.3c0,0.1,0.1,0.2,0.2,0.2c0,0,0.1,0,0.1,0c0.1-0.1,0.2-0.2,0.1-0.3
		C37.1,63.4,36.9,63.4,36.8,63.4z"/>
	<path class="st1" d="M27.4,66.5c-0.1,0-0.2,0.2-0.2,0.3c0,0.1,0.1,0.2,0.2,0.2c0,0,0,0,0.1,0c0.1,0,0.2-0.2,0.2-0.3
		C27.6,66.6,27.5,66.5,27.4,66.5z"/>
	<path class="st1" d="M21.5,67.6c-0.1,0-0.2,0.1-0.2,0.3c0,0.1,0.1,0.2,0.2,0.2c0,0,0,0,0,0c0.1,0,0.2-0.1,0.2-0.3
		C21.7,67.7,21.6,67.6,21.5,67.6z"/>
	<path class="st1" d="M46.9-31.7c-0.1,0.1-0.1,0.3,0,0.4c0,0,0.1,0,0.2,0c0.1,0,0.2,0,0.2-0.1c0.1-0.1,0.1-0.3,0-0.4
		C47.2-31.8,47-31.8,46.9-31.7z"/>
	<path class="st1" d="M23.5,67.3c-0.1,0-0.2,0.2-0.2,0.3s0.1,0.2,0.2,0.2c0,0,0,0,0,0c0.1,0,0.2-0.2,0.2-0.3
		C23.7,67.4,23.6,67.3,23.5,67.3z"/>
	<path class="st1" d="M25.4,67c-0.1,0-0.2,0.2-0.2,0.3c0,0.1,0.1,0.2,0.2,0.2c0,0,0,0,0,0c0.1,0,0.2-0.2,0.2-0.3
		C25.7,67,25.5,66.9,25.4,67z"/>
	<path class="st1" d="M21.3-41.8c-0.1,0-0.3,0.1-0.3,0.2c0,0.1,0.1,0.3,0.2,0.3c0,0,0,0,0,0c0.1,0,0.2-0.1,0.2-0.2
		C21.6-41.6,21.5-41.8,21.3-41.8z"/>
	<path class="st1" d="M19.5,67.8c-0.1,0-0.2,0.1-0.2,0.3c0,0.1,0.1,0.2,0.2,0.2c0,0,0,0,0,0c0.1,0,0.2-0.1,0.2-0.3
		C19.8,67.9,19.6,67.8,19.5,67.8z"/>
	<path class="st1" d="M35,64.2c-0.1,0.1-0.2,0.2-0.1,0.3c0,0.1,0.1,0.2,0.2,0.2c0,0,0.1,0,0.1,0c0.1-0.1,0.2-0.2,0.1-0.3
		C35.2,64.2,35.1,64.2,35,64.2z"/>
	<path class="st1" d="M33.1,64.9c-0.1,0-0.2,0.2-0.2,0.3c0,0.1,0.1,0.2,0.2,0.2c0,0,0,0,0.1,0c0.1-0.1,0.2-0.2,0.2-0.3
		C33.4,64.9,33.2,64.8,33.1,64.9z"/>
	<path class="st1" d="M33-39.1c-0.1,0-0.3,0-0.3,0.2c0,0.1,0,0.3,0.2,0.3c0,0,0,0,0.1,0c0.1,0,0.2-0.1,0.2-0.2
		C33.2-38.9,33.2-39.1,33-39.1z"/>
	<path class="st1" d="M68.7,1.3C68.7,1.3,68.7,1.3,68.7,1.3c0.2,0,0.3-0.2,0.2-0.3c0-0.1-0.2-0.2-0.3-0.2c-0.1,0-0.2,0.2-0.2,0.3
		C68.5,1.2,68.6,1.3,68.7,1.3z"/>
	<path class="st1" d="M69.4,7c0,0.1,0.1,0.2,0.2,0.2c0,0,0,0,0,0c0.1,0,0.2-0.1,0.2-0.3c0,0,0,0,0,0c0-0.1-0.1-0.2-0.3-0.2
		C69.5,6.7,69.4,6.8,69.4,7z"/>
	<path class="st1" d="M68.8,3c0,0.1,0.1,0.2,0.2,0.2c0,0,0,0,0,0c0.1,0,0.2-0.2,0.2-0.3c0-0.1-0.2-0.2-0.3-0.2
		C68.9,2.8,68.8,2.9,68.8,3z"/>
	<path class="st1" d="M67.7-2.6C67.7-2.6,67.7-2.6,67.7-2.6c0.2,0,0.3-0.2,0.2-0.3c0-0.1-0.2-0.2-0.3-0.2c-0.1,0-0.2,0.2-0.2,0.3
		C67.5-2.6,67.6-2.6,67.7-2.6z"/>
	<path class="st1" d="M69.6,9c0,0.1,0.1,0.2,0.2,0.2c0,0,0,0,0,0c0.1,0,0.2-0.1,0.2-0.3c0-0.1-0.1-0.2-0.3-0.2
		C69.7,8.7,69.6,8.8,69.6,9z"/>
	<path class="st1" d="M69.2,5c0,0.1,0.1,0.2,0.2,0.2c0,0,0,0,0,0c0.1,0,0.2-0.2,0.2-0.3c0-0.1-0.1-0.2-0.3-0.2S69.2,4.9,69.2,5z"/>
	<path class="st1" d="M69.7,10.9c0,0.1,0.1,0.2,0.2,0.2c0,0,0,0,0,0c0.1,0,0.2-0.1,0.2-0.2c0-0.1-0.1-0.2-0.3-0.2
		C69.8,10.7,69.7,10.8,69.7,10.9z"/>
	<path class="st1" d="M62.8,39.8L62.8,39.8c-0.1,0.1,0,0.3,0.1,0.3c0,0,0.1,0,0.1,0c0.1,0,0.2,0,0.2-0.1c0.1-0.1,0-0.3-0.1-0.3
		C63.1,39.7,62.9,39.7,62.8,39.8z"/>
	<path class="st1" d="M61.8,41.6c-0.1,0.1,0,0.3,0.1,0.3c0,0,0.1,0,0.1,0c0.1,0,0.2,0,0.2-0.1c0.1-0.1,0-0.3-0.1-0.3
		C62.1,41.4,61.9,41.4,61.8,41.6z"/>
	<path class="st1" d="M63.8,38.1c-0.1,0.1,0,0.3,0.1,0.3c0,0,0.1,0,0.1,0c0.1,0,0.2,0,0.2-0.1c0.1-0.1,0-0.3-0.1-0.3
		C64,37.9,63.8,38,63.8,38.1z"/>
	<path class="st1" d="M66.4-6.3C66.4-6.3,66.4-6.4,66.4-6.3c0.2-0.1,0.3-0.2,0.2-0.3c-0.1-0.1-0.2-0.2-0.3-0.1
		c-0.1,0.1-0.2,0.2-0.1,0.3C66.2-6.4,66.3-6.3,66.4-6.3z"/>
	<path class="st1" d="M60.8,43.2c-0.1,0.1,0,0.3,0.1,0.3c0,0,0.1,0,0.1,0c0.1,0,0.2,0,0.2-0.1c0.1-0.1,0-0.3-0.1-0.3
		C61,43.1,60.8,43.1,60.8,43.2z"/>
	<path class="st1" d="M65.5,34.5c-0.1,0.1,0,0.3,0.1,0.3c0,0,0.1,0,0.1,0c0.1,0,0.2-0.1,0.2-0.2c0.1-0.1,0-0.3-0.1-0.3
		C65.7,34.3,65.5,34.3,65.5,34.5z"/>
	<path class="st1" d="M64.8-10c0,0,0.1,0,0.1,0c0.1-0.1,0.2-0.2,0.1-0.3c0,0,0,0,0,0c-0.1-0.1-0.2-0.2-0.3-0.1
		c-0.1,0.1-0.2,0.2-0.1,0.3C64.6-10.1,64.7-10,64.8-10z"/>
	<path class="st1" d="M66.2,32.6c-0.1,0.1,0,0.3,0.2,0.3c0,0,0.1,0,0.1,0c0.1,0,0.2-0.1,0.2-0.2c0.1-0.1,0-0.3-0.1-0.3
		C66.4,32.4,66.3,32.5,66.2,32.6z"/>
	<path class="st1" d="M25.3-41.2c-0.1,0-0.3,0.1-0.3,0.2c0,0.1,0.1,0.3,0.2,0.3c0,0,0,0,0,0c0.1,0,0.2-0.1,0.2-0.2
		C25.5-41,25.4-41.2,25.3-41.2z"/>
	<path class="st1" d="M67.1-4.5C67.1-4.5,67.1-4.5,67.1-4.5c0.2-0.1,0.3-0.2,0.2-0.3c0-0.1-0.2-0.2-0.3-0.2s-0.2,0.2-0.2,0.3
		C66.8-4.5,66.9-4.5,67.1-4.5z"/>
	<path class="st1" d="M65.6-8.2C65.7-8.2,65.7-8.2,65.6-8.2c0.2-0.1,0.3-0.2,0.2-0.4c-0.1-0.1-0.2-0.2-0.3-0.1
		c-0.1,0.1-0.2,0.2-0.1,0.3C65.4-8.2,65.5-8.2,65.6-8.2z"/>
	<path class="st1" d="M67.2,30.6c-0.1,0-0.3,0-0.3,0.1c-0.1,0.1,0,0.3,0.2,0.3c0,0,0.1,0,0.1,0c0.1,0,0.2-0.1,0.2-0.2
		C67.4,30.8,67.3,30.6,67.2,30.6z"/>
	<path class="st1" d="M64.7,36.3c-0.1,0.1,0,0.3,0.1,0.3c0,0,0.1,0,0.1,0c0.1,0,0.2-0.1,0.2-0.2c0.1-0.1,0-0.3-0.1-0.3
		C64.9,36.1,64.7,36.2,64.7,36.3z"/>
	<path class="st1" d="M34.9-38.4c-0.1,0-0.3,0-0.3,0.2c0,0.1,0,0.3,0.2,0.3c0,0,0.1,0,0.1,0c0.1,0,0.2-0.1,0.2-0.2
		C35.1-38.2,35.1-38.4,34.9-38.4z"/>
	<path class="st1" d="M41.9-34.9c-0.1,0.1,0,0.3,0.1,0.3c0,0,0.1,0,0.1,0c0.1,0,0.2,0,0.2-0.1c0.1-0.1,0-0.3-0.1-0.3
		S41.9-35,41.9-34.9z"/>
	<path class="st1" d="M69.5,20.9c-0.1,0-0.3,0.1-0.3,0.2c0,0.1,0.1,0.3,0.2,0.3c0,0,0,0,0,0c0.1,0,0.2-0.1,0.2-0.2
		C69.7,21,69.6,20.9,69.5,20.9z"/>
	<path class="st1" d="M69.2,22.9c-0.1,0-0.3,0.1-0.3,0.2c0,0.1,0.1,0.3,0.2,0.3c0,0,0,0,0.1,0c0.1,0,0.2-0.1,0.2-0.2
		C69.4,23,69.3,22.9,69.2,22.9z"/>
	<path class="st1" d="M43.6-33.9c-0.1,0.1,0,0.3,0.1,0.3c0,0,0.1,0,0.1,0c0.1,0,0.2,0,0.2-0.1c0.1-0.1,0-0.3-0.1-0.3
		C43.8-34,43.7-34,43.6-33.9z"/>
	<path class="st1" d="M40.1-35.8c-0.1,0.1,0,0.3,0.1,0.3c0,0,0.1,0,0.1,0c0.1,0,0.2,0,0.2-0.1c0.1-0.1,0-0.3-0.1-0.3
		C40.3-36,40.2-36,40.1-35.8z"/>
	<path class="st1" d="M70,14.9c-0.1,0-0.2,0.1-0.3,0.2c0,0.1,0.1,0.3,0.2,0.3s0.2-0.1,0.2-0.2C70.2,15,70.1,14.9,70,14.9z"/>
	<path class="st1" d="M58.5,46.5c-0.1,0.1-0.1,0.3,0,0.3c0,0,0.1,0,0.2,0c0.1,0,0.2,0,0.2-0.1c0.1-0.1,0.1-0.3,0-0.3
		C58.7,46.4,58.6,46.4,58.5,46.5z"/>
	<path class="st1" d="M59.7,44.9c-0.1,0.1,0,0.3,0.1,0.3c0,0,0.1,0,0.2,0c0.1,0,0.2,0,0.2-0.1c0.1-0.1,0-0.3-0.1-0.3
		C59.9,44.8,59.7,44.8,59.7,44.9z"/>
	<path class="st1" d="M27.3-40.8c-0.1,0-0.3,0-0.3,0.2c0,0.1,0,0.3,0.2,0.3c0,0,0,0,0,0c0.1,0,0.2-0.1,0.2-0.2
		C27.5-40.6,27.4-40.7,27.3-40.8z"/>
	<path class="st1" d="M69.7,18.9c-0.1,0-0.3,0.1-0.3,0.2s0.1,0.3,0.2,0.3c0,0,0,0,0,0c0.1,0,0.2-0.1,0.2-0.2
		C70,19,69.9,18.9,69.7,18.9z"/>
	<path class="st1" d="M69.9,16.9c-0.1,0-0.2,0.1-0.3,0.2s0.1,0.3,0.2,0.3h0c0.1,0,0.2-0.1,0.3-0.2C70.1,17,70,16.9,69.9,16.9z"/>
	<path class="st1" d="M31.1-39.7c-0.1,0-0.3,0-0.3,0.2c0,0.1,0,0.3,0.2,0.3c0,0,0,0,0.1,0c0.1,0,0.2-0.1,0.2-0.2
		C31.3-39.6,31.3-39.7,31.1-39.7z"/>
	<path class="st1" d="M67.8,28.7c-0.1,0-0.3,0-0.3,0.2c0,0.1,0,0.3,0.2,0.3c0,0,0.1,0,0.1,0c0.1,0,0.2-0.1,0.2-0.2
		C68,28.9,67.9,28.7,67.8,28.7z"/>
	<path class="st1" d="M45.3-32.8c-0.1,0.1,0,0.3,0.1,0.3c0,0,0.1,0,0.1,0c0.1,0,0.2,0,0.2-0.1c0.1-0.1,0-0.3-0.1-0.3
		C45.5-33,45.3-32.9,45.3-32.8z"/>
	<path class="st1" d="M29.2-40.3c-0.1,0-0.3,0-0.3,0.2c0,0.1,0,0.3,0.2,0.3c0,0,0,0,0.1,0c0.1,0,0.2-0.1,0.2-0.2
		C29.4-40.1,29.3-40.3,29.2-40.3z"/>
	<path class="st1" d="M68.3,26.8c-0.1,0-0.3,0-0.3,0.2c0,0.1,0.1,0.3,0.2,0.3c0,0,0,0,0.1,0c0.1,0,0.2-0.1,0.2-0.2
		C68.5,26.9,68.5,26.8,68.3,26.8z"/>
	<path class="st1" d="M68.2-0.6C68.2-0.6,68.2-0.6,68.2-0.6c0.2,0,0.3-0.2,0.2-0.3c0,0,0,0,0,0c0-0.1-0.2-0.2-0.3-0.2
		C68-1.1,67.9-1,68-0.8C68-0.7,68.1-0.6,68.2-0.6z"/>
	<path class="st1" d="M38.3-36.7c-0.1,0.1,0,0.3,0.1,0.3c0,0,0.1,0,0.1,0c0.1,0,0.2,0,0.2-0.1c0-0.1,0-0.3-0.1-0.3
		C38.5-36.9,38.4-36.8,38.3-36.7z"/>
	<path class="st1" d="M68.8,24.8c-0.1,0-0.3,0-0.3,0.2c0,0.1,0.1,0.3,0.2,0.3c0,0,0,0,0.1,0c0.1,0,0.2-0.1,0.2-0.2
		C69,25,68.9,24.8,68.8,24.8z"/>
	<path class="st1" d="M36.5-37.5c0,0.1,0,0.3,0.1,0.3c0,0,0.1,0,0.1,0c0.1,0,0.2-0.1,0.2-0.2c0.1-0.1,0-0.3-0.1-0.3
		C36.7-37.7,36.5-37.7,36.5-37.5z"/>
	<path class="st1" d="M11.3-42C11.3-42,11.3-42,11.3-42c-0.1,0-0.2,0.1-0.2,0.3c0,0.1,0.1,0.2,0.2,0.2c0,0,0,0,0,0
		c0.1,0,0.2-0.1,0.2-0.3C11.6-41.9,11.4-42,11.3-42z"/>
	<path class="st1" d="M-33.6,39.4c0,0,0.1,0,0.1,0c0.1-0.1,0.2-0.2,0.1-0.3c-0.1-0.1-0.2-0.2-0.3-0.1c-0.1,0.1-0.2,0.2-0.1,0.3
		C-33.7,39.3-33.7,39.4-33.6,39.4z"/>
	<path class="st1" d="M-31.5,42.8c0,0,0.1,0,0.1,0c0.1-0.1,0.1-0.2,0.1-0.3v0c-0.1-0.1-0.2-0.2-0.4-0.1c-0.1,0.1-0.1,0.2-0.1,0.3
		C-31.7,42.8-31.6,42.8-31.5,42.8z"/>
	<path class="st1" d="M-34.7,37.5c0,0.1,0.1,0.1,0.2,0.1c0,0,0.1,0,0.1,0c0.1-0.1,0.2-0.2,0.1-0.3c-0.1-0.1-0.2-0.2-0.3-0.1
		C-34.7,37.2-34.8,37.4-34.7,37.5z"/>
	<path class="st1" d="M-32.6,41.1c0,0,0.1,0,0.1,0c0.1-0.1,0.2-0.2,0.1-0.3s-0.2-0.2-0.3-0.1s-0.2,0.2-0.1,0.3
		C-32.8,41.1-32.7,41.1-32.6,41.1z"/>
	<path class="st1" d="M-34.8-11c-0.1,0.1,0,0.3,0.1,0.3c0,0,0.1,0,0.1,0c0.1,0,0.2-0.1,0.2-0.1c0.1-0.1,0-0.3-0.1-0.3
		C-34.6-11.2-34.7-11.1-34.8-11z"/>
	<path class="st1" d="M-33.9-12.8c-0.1,0.1,0,0.3,0.1,0.3c0,0,0.1,0,0.1,0c0.1,0,0.2-0.1,0.2-0.1c0.1-0.1,0-0.3-0.1-0.3
		C-33.6-13-33.8-12.9-33.9-12.8z"/>
	<path class="st1" d="M-6.2-37.9c-0.1,0.1-0.2,0.2-0.1,0.3c0,0.1,0.1,0.2,0.2,0.2c0,0,0.1,0,0.1,0c0.1,0,0.2-0.2,0.1-0.3
		C-5.9-37.9-6.1-38-6.2-37.9z"/>
	<path class="st1" d="M-32.9-14.6c-0.1,0.1,0,0.3,0.1,0.3c0,0,0.1,0,0.1,0c0.1,0,0.2,0,0.2-0.1c0.1-0.1,0-0.3-0.1-0.4
		C-32.7-14.7-32.8-14.7-32.9-14.6z"/>
	<path class="st1" d="M-30.5,44.5c0,0,0.1,0,0.1,0c0.1-0.1,0.1-0.2,0.1-0.3c-0.1-0.1-0.2-0.1-0.4-0.1c-0.1,0.1-0.1,0.2-0.1,0.3
		C-30.6,44.5-30.5,44.5-30.5,44.5z"/>
	<path class="st1" d="M-24.1,52.2c0.1,0,0.1,0,0.2-0.1c0.1-0.1,0.1-0.2,0-0.3s-0.3-0.1-0.4,0c-0.1,0.1-0.1,0.2,0,0.3
		C-24.2,52.2-24.1,52.2-24.1,52.2z"/>
	<path class="st1" d="M-22.7,53.6c0.1,0,0.1,0,0.2-0.1c0.1-0.1,0.1-0.3,0-0.4c-0.1-0.1-0.3-0.1-0.4,0c-0.1,0.1-0.1,0.3,0,0.3
		C-22.8,53.5-22.7,53.6-22.7,53.6z"/>
	<path class="st1" d="M-25.5,50.7c0.1,0,0.1,0,0.2-0.1c0.1-0.1,0.1-0.3,0-0.4c-0.1-0.1-0.2-0.1-0.4,0c-0.1,0.1-0.1,0.2,0,0.3
		C-25.6,50.7-25.5,50.7-25.5,50.7z"/>
	<path class="st1" d="M-21.2,54.9c0.1,0,0.1,0,0.2-0.1c0.1-0.1,0.1-0.3,0-0.3c-0.1-0.1-0.3-0.1-0.4,0c-0.1,0.1-0.1,0.3,0,0.4
		C-21.3,54.9-21.2,54.9-21.2,54.9z"/>
	<path class="st1" d="M-29.3,46.1c0,0,0.1,0,0.1,0c0.1-0.1,0.1-0.2,0-0.3c-0.1-0.1-0.2-0.1-0.4,0s-0.1,0.2,0,0.3
		C-29.4,46.1-29.4,46.1-29.3,46.1z"/>
	<path class="st1" d="M-26.8,49.2c0.1,0,0.1,0,0.2-0.1c0.1-0.1,0.1-0.2,0-0.3c-0.1-0.1-0.2-0.1-0.4,0c-0.1,0.1-0.1,0.2,0,0.3
		C-26.9,49.2-26.9,49.2-26.8,49.2z"/>
	<path class="st1" d="M-30.7-18c-0.1,0.1,0,0.3,0.1,0.3c0,0,0.1,0,0.1,0c0.1,0,0.2,0,0.2-0.1c0.1-0.1,0-0.3-0.1-0.4
		C-30.5-18.1-30.7-18.1-30.7-18z"/>
	<path class="st1" d="M-28.1,47.7c0,0,0.1,0,0.1,0c0.1-0.1,0.1-0.2,0-0.3c-0.1-0.1-0.2-0.1-0.4,0c-0.1,0.1-0.1,0.2,0,0.3
		C-28.2,47.7-28.1,47.7-28.1,47.7z"/>
	<path class="st1" d="M1.6,66.8C1.6,66.8,1.6,66.8,1.6,66.8C1.6,66.8,1.7,66.8,1.6,66.8c0.2,0,0.3-0.1,0.3-0.2c0-0.1,0-0.3-0.2-0.3
		c-0.1,0-0.3,0.1-0.3,0.2C1.4,66.7,1.5,66.8,1.6,66.8z"/>
	<path class="st1" d="M-11.3-35.2c-0.1-0.1-0.2-0.2-0.3-0.1c-0.1,0.1-0.2,0.2-0.1,0.3c0,0.1,0.1,0.1,0.2,0.1c0,0,0.1,0,0.1,0h0
		C-11.2-35-11.2-35.1-11.3-35.2z"/>
	<path class="st1" d="M-15.1-33.3C-15.1-33.3-15.1-33.3-15.1-33.3c-0.1,0.1-0.2,0.2-0.1,0.3c0.1,0.1,0.1,0.1,0.2,0.1
		c0.1,0,0.1,0,0.1,0c0.1-0.1,0.1-0.2,0.1-0.3C-14.8-33.3-14.9-33.4-15.1-33.3z"/>
	<path class="st1" d="M-13.4-34.3c-0.1,0.1-0.2,0.2-0.1,0.3c0.1,0.1,0.1,0.1,0.2,0.1c0.1,0,0.1,0,0.1,0c0.1-0.1,0.2-0.2,0.1-0.3
		S-13.2-34.4-13.4-34.3z"/>
	<path class="st1" d="M-16.7-32.2c-0.1,0.1-0.1,0.2-0.1,0.4c0,0.1,0.1,0.1,0.2,0.1c0,0,0.1,0,0.1,0c0.1-0.1,0.1-0.2,0.1-0.3
		C-16.5-32.2-16.6-32.2-16.7-32.2z"/>
	<path class="st1" d="M-35.4,35.3c-0.1,0-0.2,0.2-0.1,0.3c0,0.1,0.1,0.2,0.2,0.2c0,0,0.1,0,0.1,0c0.1,0,0.2-0.2,0.1-0.3
		C-35.1,35.3-35.3,35.3-35.4,35.3z"/>
	<path class="st1" d="M-29.6-19.6C-29.6-19.6-29.6-19.6-29.6-19.6c-0.1,0.1-0.1,0.3,0,0.3c0,0,0.1,0,0.1,0c0.1,0,0.1,0,0.2-0.1
		c0.1-0.1,0.1-0.3,0-0.4C-29.3-19.7-29.5-19.7-29.6-19.6z"/>
	<path class="st1" d="M-18.3-31c-0.1,0.1-0.1,0.2,0,0.4c0,0.1,0.1,0.1,0.2,0.1c0.1,0,0.1,0,0.1,0c0.1-0.1,0.1-0.2,0-0.4
		C-18.1-31-18.2-31.1-18.3-31z"/>
	<path class="st1" d="M-9.8-36.3c-0.1,0.1-0.2,0.2-0.1,0.3c0,0.1,0.1,0.1,0.2,0.1c0,0,0.1,0,0.1,0c0.1-0.1,0.2-0.2,0.1-0.3
		C-9.6-36.3-9.7-36.3-9.8-36.3z"/>
	<path class="st1" d="M-8-37.1c-0.1,0.1-0.2,0.2-0.1,0.3c0,0.1,0.1,0.2,0.2,0.2c0,0,0.1,0,0.1,0c0.1-0.1,0.2-0.2,0.1-0.3
		C-7.8-37.1-7.9-37.2-8-37.1z"/>
	<path class="st1" d="M-27.1-22.7c-0.1,0.1-0.1,0.3,0,0.4c0,0,0.1,0.1,0.2,0.1c0.1,0,0.1,0,0.2-0.1c0.1-0.1,0.1-0.3,0-0.4
		C-26.8-22.9-27-22.8-27.1-22.7z"/>
	<path class="st1" d="M-19.9-29.7C-19.9-29.7-19.9-29.7-19.9-29.7c-0.1,0.1-0.1,0.2,0,0.4c0,0.1,0.1,0.1,0.2,0.1c0.1,0,0.1,0,0.2,0
		c0.1-0.1,0.1-0.2,0-0.4C-19.6-29.8-19.8-29.8-19.9-29.7z"/>
	<path class="st1" d="M-28.4-21.2c-0.1,0.1-0.1,0.3,0,0.4c0,0,0.1,0.1,0.1,0.1c0.1,0,0.1,0,0.2-0.1c0.1-0.1,0.1-0.3,0-0.4
		C-28.1-21.3-28.3-21.3-28.4-21.2z"/>
	<path class="st1" d="M-25.8-24.2c-0.1,0.1-0.1,0.3,0,0.4c0,0,0.1,0.1,0.2,0.1c0.1,0,0.1,0,0.2-0.1c0.1-0.1,0.1-0.3,0-0.4
		C-25.5-24.4-25.7-24.3-25.8-24.2z"/>
	<path class="st1" d="M-21.5-28.5c-0.1,0.1-0.1,0.2,0,0.4c0,0,0.1,0.1,0.2,0.1c0.1,0,0.1,0,0.2-0.1c0.1-0.1,0.1-0.2,0-0.4
		C-21.2-28.5-21.4-28.5-21.5-28.5z"/>
	<path class="st1" d="M-0.3,66.3C-0.3,66.3-0.3,66.3-0.3,66.3c0.2,0,0.3-0.1,0.3-0.2c0-0.1,0-0.3-0.2-0.3c-0.1,0-0.3,0-0.3,0.2
		C-0.5,66.1-0.5,66.3-0.3,66.3z"/>
	<path class="st1" d="M-24.4-25.7c-0.1,0.1-0.1,0.3,0,0.4c0,0,0.1,0.1,0.2,0.1s0.1,0,0.2-0.1c0.1-0.1,0.1-0.3,0-0.4
		C-24.1-25.8-24.3-25.8-24.4-25.7z"/>
	<path class="st1" d="M-31.8-16.3c-0.1,0.1,0,0.3,0.1,0.3c0,0,0.1,0,0.1,0c0.1,0,0.2,0,0.2-0.1c0.1-0.1,0-0.3-0.1-0.3
		C-31.6-16.4-31.8-16.4-31.8-16.3z"/>
	<path class="st1" d="M-39.9,8.5C-39.9,8.5-39.9,8.5-39.9,8.5c0.1,0,0.3-0.1,0.3-0.2c0-0.1-0.1-0.2-0.2-0.3c-0.1,0-0.3,0.1-0.3,0.2
		C-40.1,8.4-40,8.5-39.9,8.5z"/>
	<path class="st1" d="M-19.6,56.2c0.1,0,0.1,0,0.2-0.1c0.1-0.1,0.1-0.3,0-0.3c-0.1-0.1-0.3-0.1-0.4,0c-0.1,0.1-0.1,0.3,0,0.3
		C-19.8,56.2-19.7,56.2-19.6,56.2z"/>
	<path class="st1" d="M-18.1,57.4c0.1,0,0.1,0,0.2-0.1c0.1-0.1,0.1-0.3,0-0.3c-0.1-0.1-0.3-0.1-0.4,0c-0.1,0.1-0.1,0.3,0,0.3
		C-18.2,57.4-18.1,57.4-18.1,57.4z"/>
	<path class="st1" d="M-38.6,0.6C-38.6,0.6-38.6,0.6-38.6,0.6c0.2,0,0.3-0.1,0.3-0.2c0-0.1,0-0.3-0.2-0.3c-0.1,0-0.3,0-0.3,0.2
		C-38.8,0.5-38.8,0.6-38.6,0.6z"/>
	<path class="st1" d="M-39,2.6C-39,2.6-39,2.6-39,2.6c0.2,0,0.3-0.1,0.3-0.2c0-0.1-0.1-0.3-0.2-0.3c-0.1,0-0.3,0.1-0.3,0.2
		C-39.3,2.4-39.2,2.6-39,2.6z"/>
	<path class="st1" d="M-39.7,6.5C-39.7,6.5-39.6,6.5-39.7,6.5c0.1,0,0.3-0.1,0.3-0.2c0-0.1-0.1-0.3-0.2-0.3c-0.1,0-0.3,0.1-0.3,0.2
		C-39.9,6.4-39.8,6.5-39.7,6.5z"/>
	<path class="st1" d="M-16.5,58.6c0.1,0,0.2,0,0.2-0.1c0.1-0.1,0-0.3-0.1-0.3c-0.1-0.1-0.3,0-0.4,0.1s0,0.3,0.1,0.3
		C-16.5,58.6-16.5,58.6-16.5,58.6z"/>
	<path class="st1" d="M-39.4,4.6C-39.4,4.6-39.4,4.6-39.4,4.6c0.2,0,0.3-0.1,0.3-0.2c0-0.1-0.1-0.3-0.2-0.3s-0.3,0.1-0.3,0.2
		S-39.5,4.5-39.4,4.6z"/>
	<path class="st1" d="M-38.2-1.3C-38.1-1.3-38.1-1.3-38.2-1.3c0.2,0,0.3-0.1,0.3-0.2c0-0.1,0-0.3-0.2-0.3c-0.1,0-0.3,0-0.3,0.2
		C-38.4-1.5-38.3-1.3-38.2-1.3z"/>
	<path class="st1" d="M-14.8,59.7c0.1,0,0.2,0,0.2-0.1c0.1-0.1,0-0.3-0.1-0.3c-0.1-0.1-0.3,0-0.3,0.1c-0.1,0.1-0.1,0.3,0.1,0.3
		C-14.9,59.7-14.8,59.7-14.8,59.7z"/>
	<path class="st1" d="M-4.1,65.1C-4.1,65.1-4.1,65.1-4.1,65.1C-4.1,65.1-4.1,65.1-4.1,65.1c0.2,0,0.3,0,0.3-0.1c0-0.1,0-0.3-0.2-0.3
		c-0.1-0.1-0.3,0-0.3,0.1C-4.3,64.9-4.3,65-4.1,65.1z"/>
	<path class="st1" d="M-5.9,64.3c0.1,0,0.2-0.1,0.2-0.2c0.1-0.1,0-0.3-0.1-0.3c-0.1,0-0.3,0-0.3,0.1C-6.2,64.1-6.2,64.3-5.9,64.3
		C-6,64.3-6,64.3-5.9,64.3z"/>
	<path class="st1" d="M-2.2,65.7C-2.2,65.7-2.2,65.7-2.2,65.7c0.2,0,0.3-0.1,0.3-0.2c0-0.1,0-0.3-0.2-0.3s-0.3,0-0.3,0.2
		C-2.4,65.5-2.4,65.7-2.2,65.7z"/>
	<path class="st1" d="M-7.8,63.5c0.1,0,0.2-0.1,0.2-0.2c0.1-0.1,0-0.3-0.1-0.3c-0.1-0.1-0.3,0-0.3,0.1c-0.1,0.1,0,0.3,0.1,0.3
		C-7.8,63.5-7.8,63.5-7.8,63.5z"/>
	<path class="st1" d="M-13.1,60.8c0.1,0,0.2,0,0.2-0.1c0.1-0.1,0-0.3-0.1-0.3c-0.1-0.1-0.3,0-0.3,0.1c-0.1,0.1,0,0.3,0.1,0.3
		C-13.2,60.8-13.1,60.8-13.1,60.8z"/>
	<path class="st1" d="M-11.3,61.8c0.1,0,0.2,0,0.2-0.1c0.1-0.1,0-0.3-0.1-0.3c-0.1-0.1-0.3,0-0.3,0.1c-0.1,0.1,0,0.3,0.1,0.3
		C-11.4,61.8-11.4,61.8-11.3,61.8z"/>
	<path class="st1" d="M-9.6,62.7c0.1,0,0.2,0,0.2-0.1c0.1-0.1,0-0.3-0.1-0.3s-0.3,0-0.3,0.1c-0.1,0.1,0,0.3,0.1,0.3
		C-9.6,62.7-9.6,62.7-9.6,62.7z"/>
	<path class="st1" d="M-38.6,25.9c-0.1,0-0.2,0.2-0.2,0.3c0,0.1,0.1,0.2,0.2,0.2c0,0,0,0,0.1,0c0.1,0,0.2-0.2,0.2-0.3
		C-38.3,25.9-38.5,25.9-38.6,25.9z"/>
	<path class="st1" d="M-37.5,29.7c-0.1,0-0.2,0.2-0.2,0.3c0,0.1,0.1,0.2,0.2,0.2c0,0,0,0,0.1,0c0.1,0,0.2-0.2,0.2-0.3
		C-37.2,29.8-37.4,29.7-37.5,29.7z"/>
	<path class="st1" d="M-40,10.5C-40,10.5-40,10.5-40,10.5c0.1,0,0.3-0.1,0.3-0.2c0-0.1-0.1-0.3-0.2-0.3c-0.1,0-0.3,0.1-0.3,0.2
		C-40.2,10.4-40.2,10.5-40,10.5z"/>
	<path class="st1" d="M-38.1,27.8c-0.1,0-0.2,0.2-0.2,0.3c0,0.1,0.1,0.2,0.2,0.2c0,0,0,0,0.1,0c0.1,0,0.2-0.2,0.2-0.3
		C-37.8,27.9-38,27.8-38.1,27.8z"/>
	<path class="st1" d="M-36.9-5.1c0.1,0,0.2-0.1,0.2-0.2c0-0.1,0-0.3-0.2-0.3c-0.1,0-0.3,0-0.3,0.2C-37.2-5.3-37.1-5.2-36.9-5.1
		C-36.9-5.1-36.9-5.1-36.9-5.1z"/>
	<path class="st1" d="M-37.5-3.2c0.1,0,0.2-0.1,0.2-0.2c0-0.1,0-0.3-0.2-0.3s-0.3,0-0.3,0.2S-37.7-3.3-37.5-3.2
		C-37.6-3.2-37.5-3.2-37.5-3.2z"/>
	<path class="st1" d="M-36.9,31.6c-0.1,0-0.2,0.2-0.2,0.3c0,0.1,0.1,0.2,0.2,0.2c0,0,0.1,0,0.1,0c0.1,0,0.2-0.2,0.2-0.3
		S-36.8,31.6-36.9,31.6z"/>
	<path class="st1" d="M-36.2,33.5c-0.1,0-0.2,0.2-0.1,0.3c0,0.1,0.1,0.2,0.2,0.2c0,0,0.1,0,0.1,0c0.1,0,0.2-0.2,0.1-0.3
		C-35.9,33.5-36.1,33.5-36.2,33.5z"/>
	<path class="st1" d="M-36.2-7c0.1,0,0.2-0.1,0.2-0.2c0-0.1,0-0.3-0.1-0.3c-0.1-0.1-0.3,0-0.3,0.1C-36.5-7.2-36.4-7.1-36.2-7
		C-36.2-7-36.2-7-36.2-7z"/>
	<path class="st1" d="M-35.4-8.8c0.1,0,0.2-0.1,0.2-0.1c0-0.1,0-0.3-0.1-0.3c-0.1-0.1-0.3,0-0.3,0.1c-0.1,0.1,0,0.3,0.1,0.3
		C-35.5-8.8-35.4-8.8-35.4-8.8z"/>
	<path class="st1" d="M-40,16.5c0.1,0,0.2-0.1,0.2-0.3c0-0.1-0.1-0.2-0.3-0.2c-0.1,0-0.2,0.1-0.2,0.3C-40.2,16.4-40.1,16.5-40,16.5
		L-40,16.5z"/>
	<path class="st1" d="M-40,14.5c0.1,0,0.2-0.1,0.2-0.2c0-0.1-0.1-0.2-0.2-0.2s-0.2,0.1-0.2,0.3C-40.3,14.4-40.2,14.5-40,14.5
		L-40,14.5z"/>
	<path class="st1" d="M-38.7,24.1c0-0.1-0.2-0.2-0.3-0.2c-0.1,0-0.2,0.2-0.2,0.3c0,0.1,0.1,0.2,0.2,0.2c0,0,0,0,0,0
		C-38.8,24.4-38.7,24.3-38.7,24.1z"/>
	<path class="st1" d="M-40.1,12.5c0.1,0,0.2-0.1,0.2-0.2c0-0.1-0.1-0.3-0.2-0.3s-0.2,0.1-0.2,0.2C-40.3,12.4-40.2,12.5-40.1,12.5z"
		/>
	<path class="st1" d="M-39.1,22.2c0-0.1-0.2-0.2-0.3-0.2c-0.1,0-0.2,0.1-0.2,0.3c0,0.1,0.1,0.2,0.2,0.2c0,0,0,0,0,0
		C-39.2,22.4-39.1,22.3-39.1,22.2z"/>
	<path class="st1" d="M-39.4,20.2L-39.4,20.2c0-0.1-0.1-0.2-0.3-0.2s-0.2,0.1-0.2,0.3c0,0.1,0.1,0.2,0.2,0.2c0,0,0,0,0,0
		C-39.5,20.5-39.3,20.3-39.4,20.2z"/>
	<path class="st1" d="M-39.8,18.5c0.1,0,0.2-0.1,0.2-0.3c0-0.1-0.1-0.2-0.3-0.2s-0.2,0.1-0.2,0.3C-40.1,18.4-40,18.5-39.8,18.5
		C-39.8,18.5-39.8,18.5-39.8,18.5z"/>
	<path class="st1" d="M-22.9-27.1c-0.1,0.1-0.1,0.2,0,0.4c0,0,0.1,0.1,0.2,0.1c0.1,0,0.1,0,0.2-0.1c0.1-0.1,0.1-0.3,0-0.4
		S-22.8-27.2-22.9-27.1z"/>
	<path class="st1" d="M1.4-40.5c-0.1,0-0.2,0.2-0.2,0.3C1.2-40,1.4-40,1.5-40c0,0,0,0,0.1,0c0.1,0,0.2-0.2,0.2-0.3
		C1.7-40.4,1.5-40.5,1.4-40.5z"/>
	<path class="st1" d="M13.5,68.4C13.5,68.4,13.5,68.4,13.5,68.4c0.2,0,0.3-0.1,0.3-0.2c0-0.1-0.1-0.3-0.2-0.3
		c-0.1,0-0.2,0.1-0.3,0.2C13.3,68.3,13.4,68.4,13.5,68.4z"/>
	<path class="st1" d="M7.5,67.9C7.5,67.9,7.6,67.9,7.5,67.9c0.2,0,0.3-0.1,0.3-0.2c0-0.1-0.1-0.3-0.2-0.3c-0.1,0-0.3,0.1-0.3,0.2
		S7.4,67.9,7.5,67.9z"/>
	<path class="st1" d="M11.5,68.3C11.5,68.3,11.5,68.3,11.5,68.3c0.2,0,0.3-0.1,0.3-0.2c0-0.1-0.1-0.3-0.2-0.3
		c-0.1,0-0.3,0.1-0.3,0.2C11.3,68.2,11.4,68.3,11.5,68.3z"/>
	<path class="st1" d="M5.5,67.7C5.6,67.7,5.6,67.7,5.5,67.7c0.2,0,0.3-0.1,0.3-0.2c0-0.1-0.1-0.3-0.2-0.3c-0.1,0-0.3,0.1-0.3,0.2
		S5.4,67.6,5.5,67.7z"/>
	<path class="st1" d="M7.3-41.6c-0.1,0-0.2,0.1-0.2,0.3c0,0.1,0.1,0.2,0.2,0.2c0,0,0,0,0,0c0.1,0,0.2-0.1,0.2-0.3
		C7.6-41.5,7.4-41.6,7.3-41.6z"/>
	<path class="st1" d="M3.4-40.9c-0.1,0-0.2,0.2-0.2,0.3c0,0.1,0.1,0.2,0.2,0.2c0,0,0,0,0,0c0.1,0,0.2-0.2,0.2-0.3
		C3.6-40.9,3.5-41,3.4-40.9z"/>
	<path class="st1" d="M9.5,68.2C9.5,68.2,9.5,68.2,9.5,68.2c0.1,0,0.3-0.1,0.3-0.2c0-0.1-0.1-0.3-0.2-0.3c-0.1,0-0.3,0.1-0.3,0.2
		C9.3,68.1,9.4,68.2,9.5,68.2z"/>
	<path class="st1" d="M5.3-41.3c-0.1,0-0.2,0.2-0.2,0.3c0,0.1,0.1,0.2,0.2,0.2c0,0,0,0,0.1,0c0.1,0,0.2-0.2,0.2-0.3
		C5.6-41.2,5.5-41.3,5.3-41.3z"/>
	<path class="st1" d="M19.3-42c-0.1,0-0.2,0.1-0.3,0.2c0,0.1,0.1,0.3,0.2,0.3c0,0,0,0,0,0c0.1,0,0.2-0.1,0.2-0.2
		C19.6-41.8,19.5-42,19.3-42z"/>
	<path class="st1" d="M17.3-42.1c-0.1,0-0.2,0.1-0.3,0.2c0,0.1,0.1,0.2,0.2,0.3h0c0.1,0,0.2-0.1,0.2-0.2
		C17.6-42,17.5-42.1,17.3-42.1z"/>
	<path class="st1" d="M-2.5-39.3c-0.1,0-0.2,0.2-0.2,0.3c0,0.1,0.1,0.2,0.2,0.2c0,0,0,0,0.1,0c0.1,0,0.2-0.2,0.2-0.3
		C-2.2-39.3-2.3-39.4-2.5-39.3z"/>
	<path class="st1" d="M-4.3-38.7c-0.1,0-0.2,0.2-0.2,0.3c0,0.1,0.1,0.2,0.2,0.2c0,0,0.1,0,0.1,0c0.1,0,0.2-0.2,0.2-0.3
		C-4.1-38.7-4.2-38.7-4.3-38.7z"/>
	<path class="st1" d="M3.6,67.3C3.6,67.3,3.6,67.3,3.6,67.3c0.2,0,0.3-0.1,0.3-0.2c0-0.1-0.1-0.3-0.2-0.3c-0.1,0-0.3,0.1-0.3,0.2
		C3.3,67.1,3.4,67.2,3.6,67.3z"/>
	<path class="st1" d="M9.3-41.8c-0.1,0-0.2,0.1-0.2,0.3c0,0.1,0.1,0.2,0.2,0.2c0,0,0,0,0,0c0.1,0,0.2-0.1,0.2-0.3
		C9.6-41.8,9.4-41.9,9.3-41.8z"/>
	<path class="st1" d="M-0.5-39.9C-0.5-39.9-0.5-39.9-0.5-39.9c-0.1,0-0.2,0.2-0.2,0.3c0,0.1,0.1,0.2,0.2,0.2c0,0,0,0,0.1,0
		c0.1,0,0.2-0.2,0.2-0.3C-0.3-39.9-0.4-40-0.5-39.9z"/>
	<path class="st1" d="M15.3-42.1C15.3-42.1,15.3-42.1,15.3-42.1c-0.1,0-0.3,0.1-0.3,0.2s0.1,0.2,0.2,0.2c0,0,0,0,0,0
		c0.1,0,0.2-0.1,0.2-0.2C15.6-42,15.4-42.1,15.3-42.1z"/>
	<path class="st1" d="M13.3-42.1c-0.1,0-0.2,0.1-0.2,0.2c0,0.1,0.1,0.2,0.2,0.2c0,0,0,0,0,0c0.1,0,0.2-0.1,0.2-0.2
		C13.6-42,13.4-42.1,13.3-42.1z"/>
	<path class="st1" d="M19.9-29.4C19.9-29.4,19.9-29.4,19.9-29.4C19.9-29.4,20-29.4,19.9-29.4C20-29.5,19.9-29.5,19.9-29.4
		C19.9-29.5,19.9-29.5,19.9-29.4z"/>
	<circle class="st1" cx="24.8" cy="-28.6" r="0"/>
	<path class="st1" d="M29.5-27.2C29.5-27.1,29.5-27.1,29.5-27.2c0.1,0.1,0.1,0,0.1,0C29.6-27.2,29.6-27.2,29.5-27.2
		C29.5-27.2,29.5-27.2,29.5-27.2z"/>
	<path class="st1" d="M34.1-25.1C34.2-25.1,34.2-25.2,34.1-25.1c0.1-0.1,0-0.2,0-0.2S34-25.2,34.1-25.1C34-25.1,34.1-25.1,34.1-25.1
		z"/>
	<path class="st1" d="M38.4-22.8c-0.1,0-0.1,0-0.1,0.1c0,0.1,0,0.1,0.1,0.1s0.1,0,0.1-0.1C38.5-22.8,38.5-22.8,38.4-22.8z"/>
	<path class="st1" d="M42.4-19.6c0.1,0,0.1-0.1,0.1-0.1s-0.1-0.1-0.1-0.1s-0.1,0.1-0.1,0.1S42.3-19.6,42.4-19.6z"/>
	<circle class="st1" cx="46" cy="-16.4" r="0.2"/>
	<path class="st1" d="M49.2-12.4c0.1,0,0.2-0.1,0.2-0.2s-0.1-0.2-0.2-0.2S49-12.7,49-12.6C49-12.4,49.1-12.4,49.2-12.4z"/>
	<path class="st1" d="M51.9-8.2c0.1,0,0.2-0.1,0.2-0.2s-0.1-0.2-0.2-0.2s-0.2,0.1-0.2,0.2S51.8-8.2,51.9-8.2z"/>
	<path class="st1" d="M54.2-3.7c0.2,0,0.3-0.1,0.3-0.3c0-0.2-0.1-0.3-0.3-0.3c-0.2,0-0.3,0.1-0.3,0.3C53.8-3.8,54-3.7,54.2-3.7z"/>
	<path class="st1" d="M55.8,1c0.2,0,0.4-0.2,0.4-0.4S56,0.3,55.8,0.3s-0.4,0.2-0.4,0.4S55.7,1,55.8,1z"/>
	<path class="st1" d="M57,5.9c0.2,0,0.4-0.2,0.4-0.4S57.2,5.1,57,5.1s-0.4,0.2-0.4,0.4C56.6,5.7,56.8,5.9,57,5.9z"/>
	<path class="st1" d="M57.1,10.4c0,0.3,0.2,0.5,0.5,0.5c0.3,0,0.5-0.2,0.5-0.5s-0.2-0.5-0.5-0.5S57.1,10.2,57.1,10.4z"/>
	<circle class="st1" cx="57.6" cy="15.4" r="0.5"/>
	<path class="st1" d="M57,20.9c0.3,0,0.6-0.3,0.6-0.6s-0.3-0.6-0.6-0.6c-0.3,0-0.6,0.3-0.6,0.6S56.7,20.9,57,20.9z"/>
	<path class="st1" d="M55.9,25.8c0.3,0,0.6-0.3,0.6-0.6c0-0.4-0.3-0.6-0.6-0.6c-0.3,0-0.6,0.3-0.6,0.6S55.5,25.8,55.9,25.8z"/>
	<path class="st1" d="M54.2,30.5c0.4,0,0.7-0.3,0.7-0.7c0-0.4-0.3-0.7-0.7-0.7c-0.4,0-0.7,0.3-0.7,0.7S53.8,30.5,54.2,30.5z"/>
	<path class="st1" d="M51.2,34.2c0,0.4,0.3,0.7,0.8,0.7c0.4,0,0.7-0.3,0.7-0.7s-0.3-0.7-0.7-0.7C51.5,33.5,51.2,33.8,51.2,34.2z"/>
	<ellipse class="st1" cx="49.2" cy="38.4" rx="0.8" ry="0.8"/>
	<path class="st1" d="M46,41.3c-0.5,0-0.8,0.4-0.8,0.8c0,0.5,0.4,0.8,0.8,0.8c0.5,0,0.8-0.4,0.8-0.8C46.9,41.7,46.5,41.3,46,41.3z"
		/>
	<path class="st1" d="M42.4,44.7c-0.5,0-0.9,0.4-0.9,0.9s0.4,0.9,0.9,0.9s0.9-0.4,0.9-0.9S42.9,44.7,42.4,44.7z"/>
	<path class="st1" d="M38.5,47.7c-0.5,0-0.9,0.4-0.9,0.9c0,0.5,0.4,0.9,0.9,0.9c0.5,0,0.9-0.4,0.9-0.9C39.3,48,39,47.7,38.5,47.7z"
		/>
	<path class="st1" d="M34.2,50.1c-0.5,0-0.9,0.4-0.9,0.9s0.4,0.9,0.9,0.9s0.9-0.4,0.9-0.9C35.1,50.5,34.7,50.1,34.2,50.1z"/>
	<path class="st1" d="M29.6,52.1c-0.5,0-0.9,0.4-0.9,0.9c0,0.5,0.4,0.9,0.9,0.9s0.9-0.4,0.9-0.9C30.6,52.5,30.1,52.1,29.6,52.1z"/>
	<path class="st1" d="M24.9,53.5c-0.5,0-1,0.4-1,1s0.4,1,1,1c0.5,0,1-0.4,1-1C25.8,53.9,25.4,53.5,24.9,53.5z"/>
	<path class="st1" d="M20,54.3c-0.5,0-1,0.4-1,1s0.4,1,1,1c0.5,0,1-0.4,1-1C21,54.8,20.5,54.3,20,54.3z"/>
	<path class="st1" d="M10.1,56.3c0.5,0,1-0.4,1-1s-0.4-1-1-1s-1,0.4-1,1S9.5,56.3,10.1,56.3z"/>
	<path class="st1" d="M5.2,55.4c0.5,0,1-0.4,1-1s-0.4-1-1-1s-1,0.4-1,1C4.2,55,4.7,55.4,5.2,55.4z"/>
	<circle class="st1" cx="0.4" cy="53" r="0.9"/>
	<path class="st1" d="M-4.1,52c0.5,0,0.9-0.4,0.9-0.9s-0.4-0.9-0.9-0.9S-5,50.6-5,51.1S-4.6,52-4.1,52z"/>
	<path class="st1" d="M-8.4,49.5c0.5,0,0.9-0.4,0.9-0.9c0-0.5-0.4-0.9-0.9-0.9s-0.9,0.4-0.9,0.9S-8.9,49.5-8.4,49.5z"/>
	<path class="st1" d="M-12.4,46.5c0.5,0,0.9-0.4,0.9-0.9s-0.4-0.9-0.9-0.9s-0.9,0.4-0.9,0.9S-12.9,46.5-12.4,46.5z"/>
	<ellipse class="st1" cx="-16" cy="42.3" rx="0.8" ry="0.8"/>
	<ellipse class="st1" cx="-19.2" cy="38.5" rx="0.8" ry="0.8"/>
	<path class="st1" d="M-22.7,34.3c0,0.4,0.3,0.8,0.8,0.8s0.8-0.3,0.8-0.8s-0.3-0.8-0.8-0.8S-22.7,33.9-22.7,34.3z"/>
	<path class="st1" d="M-24.2,29.2c-0.4,0-0.7,0.3-0.7,0.7s0.3,0.7,0.7,0.7c0.4,0,0.7-0.3,0.7-0.7S-23.8,29.2-24.2,29.2z"/>
	<path class="st1" d="M-25.9,24.6c-0.4,0-0.6,0.3-0.6,0.6c0,0.4,0.3,0.6,0.6,0.6c0.4,0,0.6-0.3,0.6-0.6
		C-25.2,24.9-25.5,24.6-25.9,24.6z"/>
	<path class="st1" d="M-27,19.8c-0.3,0-0.6,0.3-0.6,0.6c0,0.3,0.3,0.6,0.6,0.6s0.6-0.3,0.6-0.6C-26.4,20.1-26.7,19.8-27,19.8z"/>
	<path class="st1" d="M-27.1,15.5c0-0.3-0.2-0.5-0.5-0.5s-0.5,0.2-0.5,0.5s0.2,0.5,0.5,0.5S-27.1,15.8-27.1,15.5z"/>
	<path class="st1" d="M-27.6,11c0.3,0,0.5-0.2,0.5-0.5s-0.2-0.5-0.5-0.5s-0.5,0.2-0.5,0.5S-27.9,11-27.6,11z"/>
	<circle class="st1" cx="-27" cy="5.6" r="0.4"/>
	<path class="st1" d="M-25.9,1.1c0.2,0,0.4-0.2,0.4-0.4s-0.2-0.4-0.4-0.4s-0.4,0.2-0.4,0.4S-26.1,1.1-25.9,1.1z"/>
	<path class="st1" d="M-24.2-3.6c0.2,0,0.3-0.1,0.3-0.3c0-0.2-0.1-0.3-0.3-0.3s-0.3,0.1-0.3,0.3C-24.5-3.7-24.4-3.6-24.2-3.6z"/>
	<path class="st1" d="M-22-8.1c0.1,0,0.2-0.1,0.2-0.2s-0.1-0.2-0.2-0.2s-0.2,0.1-0.2,0.2C-22.3-8.2-22.2-8.1-22-8.1z"/>
	<path class="st1" d="M-19.3-12.7c-0.1,0-0.2,0.1-0.2,0.2s0.1,0.2,0.2,0.2s0.2-0.1,0.2-0.2C-19.1-12.6-19.2-12.7-19.3-12.7z"/>
	<path class="st1" d="M-16.1-16.1c0.1,0,0.1-0.1,0.1-0.1s-0.1-0.1-0.1-0.1s-0.1,0.1-0.1,0.1S-16.2-16.1-16.1-16.1z"/>
	<path class="st1" d="M-12.5-19.5c0.1,0,0.1-0.1,0.1-0.1s-0.1-0.1-0.1-0.1s-0.1,0.1-0.1,0.1C-12.6-19.6-12.6-19.5-12.5-19.5z"/>
	<circle class="st1" cx="-8.6" cy="-22.6" r="0.1"/>
	<path class="st1" d="M-4.3-25.1C-4.2-25.1-4.2-25.1-4.3-25.1c0.1-0.1,0.1-0.2,0-0.2S-4.4-25.2-4.3-25.1
		C-4.4-25.1-4.3-25.1-4.3-25.1z"/>
	<path class="st1" d="M0.3-27.1C0.3-27.2,0.3-27.2,0.3-27.1c-0.1-0.1-0.1,0-0.1,0C0.2-27.1,0.2-27.1,0.3-27.1
		C0.3-27.1,0.3-27.1,0.3-27.1z"/>
	<path class="st1" d="M5.1-28.6C5.1-28.6,5.1-28.6,5.1-28.6C5-28.6,5-28.6,5.1-28.6C5-28.5,5-28.5,5.1-28.6
		C5.1-28.5,5.1-28.5,5.1-28.6z"/>
	<path class="st1" d="M9.9-29.4C9.9-29.4,9.9-29.5,9.9-29.4C9.9-29.5,9.9-29.4,9.9-29.4C9.9-29.4,9.9-29.4,9.9-29.4
		C9.9-29.4,9.9-29.4,9.9-29.4z"/>
</g>
<g id="Back" class="st0">
	<path class="st1" d="M80.7,17.2c-2.3,0-4.2-1.9-4.2-4.2s1.9-4.2,4.2-4.2c0,0,0.1,0,0.1,0c-0.7-10.7-3.9-20.7-9.1-29.4l-5.2,3.6
		C56.2-34.7,36.9-46.7,14.9-46.7C-18-46.7-44.8-19.9-44.8,13c0,22.1,12.1,41.4,30,51.7l-3.7,4.6c8.7,5.2,18.7,8.4,29.3,9.1
		c0,0,0-0.1,0-0.1c0-2.3,1.9-4.2,4.2-4.2s4.2,1.9,4.2,4.2c0,0,0,0.1,0,0.1c10.7-0.7,20.7-3.9,29.4-9.1l-3.3-4.8
		c9-5.3,16.5-12.9,21.6-21.9l4.9,4C76.9,37.9,80.1,27.9,80.7,17.2C80.8,17.2,80.7,17.2,80.7,17.2z M62.5,13c0,12.7-5,24.6-13.9,33.6
		l-0.3-0.3c-8.8,8.8-20.5,13.7-33,13.8v-3.5c0.5-0.1,0.8-0.5,0.8-1s-0.4-0.9-0.8-1v-2.3c20.1-0.2,36.4-16.5,36.4-36.7
		c0-0.9,0-1.7-0.1-2.6c0-0.1-0.1-0.2-0.3-0.2c-0.1,0-0.2,0.1-0.2,0.3c0.1,0.9,0.1,1.7,0.1,2.6c0,9.2-3.5,17.7-9.2,24.1l-5.1-5.2
		c2-2.2,3.7-4.8,5-7.6c0,0,0,0,0,0c0,0,0.1-0.1,0.1-0.2c1-2.1,1.7-4.3,2.1-6.7c2.7-0.4,4.7-2.6,4.7-5.4c0-2.7-2-5-4.7-5.4V-3.1
		c0-0.1,0-0.2,0-0.2l0,0l0,0l-6.5-6.3c0,0,0,0,0,0l-2.4-2.4c0.1-0.2,0.2-0.4,0.2-0.7c0-0.7-0.6-1.3-1.3-1.3s-1.3,0.6-1.3,1.3
		s0.6,1.3,1.3,1.3c0.3,0,0.5-0.1,0.8-0.3L37-9.5l-2.4,2.4H18.9c-2.3-4.2-3.6-8.3-3.6-11.9v-4.2c1-0.1,1.8-1,1.8-2s-0.8-1.9-1.8-2
		V-34c12.5,0.1,24.2,4.9,33,13.8l1.1-1.1l-0.7,0.7C57.6-11.6,62.5,0.3,62.5,13z M-13.7,20.1C-13.7,20.1-13.7,20.1-13.7,20.1
		c2.1,0,3.8-1.1,4.8-2.7c1.3,0.6,2.5,1.3,3.8,2.1v0.1l-6.7,6.7C-12.7,24.3-13.3,22.3-13.7,20.1z M-6.9-8.4l1.7,1.7V9.9
		c-1.3,0.8-2.5,1.5-3.8,2.1c-0.9-1.6-2.7-2.7-4.7-2.7c-0.1,0-0.1,0-0.1,0V-1.5L-6.9-8.4z M15-16.1c0.5,2.9,1.6,5.9,3.3,9h-6.6
		C13.4-10.1,14.5-13.2,15-16.1z M18.9-6.1c1.9,3.2,4.4,6.4,7.4,9.4C28.7,5.9,31.4,8,34,9.7v9.9c-2.6,1.7-5.2,3.9-7.7,6.3
		c-2,2-3.7,4-5.3,6.2H8.9C7.4,30,5.7,27.9,3.7,26c-2.5-2.5-5.2-4.7-7.9-6.4V9.8c2.7-1.8,5.3-3.9,7.9-6.4c3-3,5.5-6.2,7.4-9.4H18.9z
		 M37.9-8.6l5.7,5.6V9.3c-0.1,0-0.2,0-0.3,0c-2,0-3.7,1-4.6,2.6c-1.2-0.6-2.5-1.3-3.7-2.1V-6.7l2.4-2.4L37.9-8.6
		C37.9-8.6,37.9-8.6,37.9-8.6z M9.5,43.2c-2.9-0.5-5.6-1.5-8.1-2.8l7.3-7.3h0.3c1.3,1.9,2.4,3.8,3.2,5.6
		C10.7,39.6,9.6,41.3,9.5,43.2z M-8.8,12.4c1.2-0.6,2.4-1.2,3.6-1.9v8.4c-1.2-0.7-2.4-1.4-3.6-1.9c0.3-0.7,0.5-1.5,0.5-2.3
		C-8.2,13.9-8.4,13.1-8.8,12.4z M-4.2,20.1c2.2,1.5,4.4,3.2,6.5,5.2l-6.5,6.5V20.1z M2.7,25.6c0.2,0.2,0.5,0.4,0.7,0.7
		c1.9,1.9,3.5,3.8,5,5.8H-3.8L2.7,25.6z M35,10.4c1.2,0.7,2.3,1.4,3.5,1.9c-0.4,0.7-0.6,1.6-0.6,2.4c0,0.9,0.2,1.6,0.5,2.4
		c-1.1,0.5-2.3,1.2-3.4,1.9L35,10.4L35,10.4z M34,31.8l-6.4-6.4c2.1-2,4.2-3.7,6.4-5.1V31.8z M27.2,25.7l6.4,6.4h-12
		c1.5-2,3.1-3.9,5-5.8C26.8,26.1,27,25.9,27.2,25.7z M17.7,38.7c0.9-1.9,2-3.7,3.2-5.6h0.2l7.3,7.3c-2.5,1.3-5.2,2.2-8,2.8
		C20.3,41.3,19.2,39.6,17.7,38.7z M15,45.4c-0.3-1.9-0.9-3.9-1.8-6c0.6-0.2,1.2-0.4,1.8-0.4s1.3,0.2,1.8,0.4
		C15.9,41.5,15.3,43.5,15,45.4z M17.2,39.7c1.3,0.8,2.2,2.2,2.2,3.8c0,2.4-1.9,4.3-4.2,4.4C15.3,45.3,16,42.5,17.2,39.7z M17.2,38.5
		C16.5,38.2,15.8,38,15,38c-0.8,0-1.6,0.2-2.2,0.5c-0.8-1.8-1.9-3.6-3.1-5.4h10.6C19.1,34.9,18,36.7,17.2,38.5z M12.7,39.7
		c1.2,2.9,1.9,5.7,2,8.2c-2.3-0.1-4.2-2.1-4.2-4.4C10.5,41.8,11.4,40.4,12.7,39.7z M15.2,48.9c2.8-0.1,5.1-2.4,5.2-5.2
		c6.3-1.2,11.8-4.3,16-8.8l5.2,5.2c-6.6,7.2-16,11.6-26.4,11.7C15.2,51.8,15.2,48.9,15.2,48.9z M28.9,40.2l-7-7H35V20.5l6.3,6.4
		C38.7,32.5,34.3,37.2,28.9,40.2z M41.6,26.4L35,19.8v-0.2c1.2-0.8,2.5-1.4,3.7-2c1,1.6,2.7,2.6,4.7,2.6c0.1,0,0.1,0,0.2,0
		C43.1,22.3,42.4,24.4,41.6,26.4z M38.9,14.7c0-0.7,0.2-1.4,0.5-2c2.2,1,4.3,1.6,6.3,2c-2,0.3-4.2,1-6.4,2
		C39,16.1,38.9,15.4,38.9,14.7z M43.3,19.2c-1.6,0-3-0.8-3.8-2.1c2.8-1.3,5.6-2,8.2-2.1C47.6,17.3,45.7,19.2,43.3,19.2z M39.6,12.3
		c0.8-1.2,2.2-2,3.7-2c2.3,0,4.2,1.8,4.4,4.1C45.2,14.2,42.4,13.5,39.6,12.3z M34,9.1c-2.5-1.7-5-3.7-7.4-6.1
		c-0.2-0.2-0.5-0.5-0.7-0.7c0,0,0,0,0,0l8-8V9.1z M25.6,2C25.6,2,25.6,2,25.6,2c-2.5-2.6-4.6-5.3-6.2-8h14.2L25.6,2z M4.3,2
		l-8.1-8.1h14.3C8.9-3.3,6.8-0.6,4.3,2z M3.9,2.4C3.7,2.6,3.6,2.8,3.3,3c-2.4,2.4-5,4.5-7.5,6.2V-5.7L3.9,2.4z M-9.2,14.7
		c0,0.7-0.2,1.3-0.4,1.9c-2.1-0.9-4.1-1.5-6.1-1.9c2-0.3,4-0.9,6.1-1.9C-9.4,13.4-9.2,14-9.2,14.7z M-13.7,10.2c1.6,0,3,0.9,3.8,2.2
		c-2.9,1.2-5.6,1.9-8.2,2C-18,12.1-16.1,10.2-13.7,10.2z M-9.9,17c-0.8,1.3-2.2,2.1-3.8,2.1c-2.4,0-4.3-1.9-4.4-4.2
		C-15.6,15-12.8,15.7-9.9,17z M-5.2,20.3v12.8H8l-7.1,7.1c-5.5-3-9.9-7.7-12.6-13.5L-5.2,20.3z M-6.7,35c4.2,4.5,9.9,7.6,16.2,8.8
		c0.1,2.8,2.4,5,5.2,5.2v2.9C4.3,51.8-5.2,47.2-11.7,40L-6.7,35z M34.9-12.8c0,0.5-0.4,0.8-0.8,0.8s-0.8-0.4-0.8-0.8
		c0-0.5,0.4-0.8,0.8-0.8S34.9-13.2,34.9-12.8z M14.7-27.2c-1,0.1-1.8,1-1.8,2c0,1,0.8,1.9,1.8,2v4.2c0,3.6-1.3,7.8-3.6,11.9H-4.8
		l-1.7-1.8l2.9-2.9c0.2,0.1,0.5,0.3,0.8,0.3c0.7,0,1.3-0.6,1.3-1.3s-0.6-1.3-1.3-1.3s-1.3,0.6-1.3,1.3c0,0.3,0.1,0.5,0.2,0.7L-7.1-9
		l-7.2,7.2c-0.1,0.1-0.1,0.1-0.1,0.2V9.3c-2.7,0.3-4.8,2.6-4.8,5.4c0,2.8,2.1,5.1,4.9,5.4c0.4,2.3,1.1,4.5,2.1,6.6
		c0,0.1,0,0.1,0.1,0.2c0,0,0,0,0.1,0c1.3,2.8,3,5.4,5.1,7.7l-5.1,5.1c-5.7-6.4-9.2-14.8-9.2-24c0-0.9,0-1.7,0.1-2.6
		c0-0.1-0.1-0.3-0.2-0.3c-0.1,0-0.3,0.1-0.3,0.2c-0.1,0.9-0.1,1.8-0.1,2.6c0,20.2,16.3,36.6,36.5,36.7v2.3c-0.4,0.1-0.7,0.5-0.7,0.9
		c0,0.4,0.3,0.8,0.7,0.9v3.5C2.3,60-9.5,55.1-18.3,46.3l-0.4,0.3c-9-9-13.9-20.9-13.9-33.6s5-24.6,13.9-33.6l0.4,0.4
		C-9.5-29.1,2.3-34,14.7-34C14.7-34,14.7-27.2,14.7-27.2z M-3.8-12.8c0-0.5,0.4-0.8,0.8-0.8c0.5,0,0.8,0.4,0.8,0.8
		c0,0.5-0.4,0.8-0.8,0.8S-3.8-12.3-3.8-12.8z M15.2,71.7v-8.7C28.5,63,41,57.8,50.4,48.4L50,48.1c9.4-9.4,14.5-21.8,14.5-35
		S59.4-12.6,50-22l0.3-0.4C40.9-31.8,28.3-37,15-37C1.6-37-11-31.8-20.4-22.3l0.4,0.4c-9.4,9.4-14.5,21.8-14.5,35s5.1,25.7,14.5,35
		l-0.4,0.3C-11,57.8,1.4,63,14.7,63.1v8.7c-32.3-0.1-58.5-26.4-58.5-58.7c0-32.4,26.3-58.7,58.7-58.7s58.7,26.3,58.7,58.7
		C73.6,45.3,47.5,71.6,15.2,71.7z"/>
</g>
<g id="Front">
	<path class="st2" d="M15,29c7.8,0,14.1-6.3,14.1-14.1C29.1,7,22.8,0.7,15,0.7S0.8,7,0.8,14.8C0.8,22.6,7.2,29,15,29z M15,1.7
		c7.2,0,13.1,5.9,13.1,13.1C28.1,22.1,22.2,28,15,28S1.8,22.1,1.8,14.9C1.8,7.6,7.7,1.7,15,1.7z"/>
	<path class="st2" d="M15,26C8.8,26,3.7,21,3.7,14.8H2.2c0,7,5.7,12.8,12.8,12.8s12.8-5.7,12.8-12.8h-1.5C26.2,21,21.2,26,15,26z"/>
	<path class="st2" d="M15,25.5c5.9,0,10.7-4.8,10.7-10.7h-0.8c0,5.5-4.5,9.9-9.9,9.9S5,20.3,5,14.8H4.3C4.3,20.7,9.1,25.5,15,25.5z"
		/>
	<path class="st2" d="M15,24.4c5.3,0,9.6-4.3,9.6-9.6h-0.2c0,5.1-4.2,9.3-9.3,9.3s-9.3-4.2-9.3-9.3H5.4C5.4,20.1,9.7,24.4,15,24.4z"
		/>
	<path class="st2" d="M15,8.1L8.3,19h13.3L15,8.1z M15.1,10.2l3.9,6.3l-3.8-3.8l0,0C15.1,12.7,15.1,10.2,15.1,10.2z M14.9,10.2v2.4
		L11,16.5L14.9,10.2z M10.4,17.4l4.4-4.4v5h-4.7L10.4,17.4z M15.1,18v-5l4.4,4.4l0.4,0.6H15.1z"/>
</g>
</svg>
